<?xml version="1.0" encoding="UTF-8"?>
<svg id="Layer_1" xmlns="http://www.w3.org/2000/svg" version="1.1" viewBox="0 0 263.1 263.1">
  <!-- Generator: Adobe Illustrator 30.5.1, SVG Export Plug-In . SVG Version: 2.1.4 Build 3)  -->
  <defs>
    <style>
      .st0 {
        fill: #fff;
      }

      .st1 {
        fill: #11c1e7;
      }
    </style>
  </defs>
  <rect class="st1" x="0" y="0" width="263.1" height="263.1" rx="130.13" ry="130.13"/>
  <g id="g28">
    <path id="path30" class="st0" d="M110.6,99.1c-2.01,0-3.81,0-4.71.14-1.8.14-2.42,1.87-2.29,3.53,1.66,24.17-3.88,52.15-9.9,52.15-4.5,0-5.61-13.16-5.54-24.86,0-6.93.48-13.57.69-19.39.07-2.15-.69-2.63-2.29-2.77-2.35-.28-4.09-.35-6.44.21-1.8.42-2.29,1.87-4.22,6.37-9.7,22.44-18.98,40.44-18.98,40.44-2.29-18.14.97-35.74,3.74-48.55.35-1.8-.48-2.84-1.94-2.84-2.77,0-6.93.07-8.86,1.32-1.8,1.18-2.42,2.35-2.98,4.92-3.05,14.68-5.12,33.1-2.29,47.44.62,3.12,1.32,3.81,2.63,4.64,1.32.83,6.86,1.59,9.07,1.59,2.49,0,4.71-.62,6.65-3.81,4.02-6.79,7.27-13.57,13.37-26.59.48,17.04,2.77,30.47,14.75,30.61,15.86.14,26.46-39.47,26.66-58.59,0-5.06-2.42-5.89-7.06-5.96"/>
  </g>
  <g id="g32">
    <path id="path34" class="st0" d="M218.91,121.13s-5.33-.35-11.57-.62c0,0,1.32-6.86,1.94-9.63.35-1.39-.42-2.7-2.15-3.19-1.73-.42-5.68-.48-6.99-.35-1.11.14-2.22.76-2.42,1.94-.62,2.84-1.32,6.3-2.15,10.73-2.29-.07-4.5-.14-6.09-.07-1.45,0-2.15.76-2.42,1.94-.28,1.18-.55,2.91-.69,4.64-.07,1.32,1.39,2.01,2.84,1.94,0,0,1.8,0,4.71-.21-.55,2.49-1.66,9.21-2.15,13.44-2.7,8.66-8.1,15.1-12.74,15.03-2.84,0-4.5-1.73-4.5-6.86,0-7.06,1.73-16,4.22-24.93,3.39-8.03,5.4-16.97,5.47-20.98,0-1.52-.42-3.25-2.29-3.6-3.32-.69-6.44-.62-8.66.07-1.94.62-2.35,2.63-2.63,3.74-1.18,5.26-3.12,14.61-4.5,22.85-2.91,3.46-6.23,5.89-9.83,6.44-.48-10.87-6.79-15.65-15.51-15.72-15.31-.14-25.21,13.44-25.35,28.74-.14,12.4,6.65,17.66,16.48,17.73,11.63.07,20.36-8.1,23.75-23.2,3.32-.62,6.16-2.22,8.66-4.43,0,0-1.94,9.35-2.01,14.89-.07,8.38,3.46,13.02,11.91,13.09,6.93,0,13.02-4.78,16.83-10.67.97,7.76,4.99,10.87,11.57,10.94,6.03,0,11.91-3.74,16.07-10.6.83-1.39,1.45-2.56.9-3.19-1.18-1.39-3.46-2.15-4.09-.97-2.77,4.92-5.68,6.93-8.86,6.93-2.49,0-4.5-1.52-4.5-5.89,0-6.3,3.74-23.2,3.74-23.2,3.12-.07,6.58-.14,9.83-.21,2.91,0,4.92-.9,5.47-3.6.28-1.59-.62-2.7-2.49-2.77M133.94,157.35c-3.53,0-5.89-3.12-5.82-9.14.07-11.57,4.29-23.96,11.7-23.89.83,0,1.59.14,2.22.42-.14.42-.21.83-.28,1.04-1.18,6.58.14,10.73,3.25,13.09-1.66,10.11-6.23,18.56-11.15,18.56"/>
  </g>
</svg>