<?xml version="1.0" encoding="UTF-8"?>
<svg id="Layer_1" xmlns="http://www.w3.org/2000/svg" version="1.1" viewBox="0 0 263.1 263.1">
  <!-- Generator: Adobe Illustrator 30.5.1, SVG Export Plug-In . SVG Version: 2.1.4 Build 3)  -->
  <defs>
    <style>
      .st0 {
        fill: #fdc60d;
      }

      .st1 {
        fill: #00a082;
      }
    </style>
  </defs>
  <rect class="st0" x="0" y="0" width="263.1" height="263.1" rx="131.55" ry="131.55"/>
  <g>
    <path class="st1" d="M91.76,56.03c32.69-30.82,85.88-14.47,95.85,28.88,3.39,14.61.76,29.64-6.79,42.31-.69,1.18-1.87,2.91-3.39,5.06-8.86,12.6-17.8,25.21-26.73,37.74-3.88,5.4-6.79,10.46-13.71,11.22-4.92.55-10.18.62-14.75-.9-2.7-.9-4.57-2.84-6.37-5.4-9.76-13.78-19.6-27.56-29.36-41.34-2.77-3.88-5.33-7.76-7.27-11.98-10.18-22.09-5.33-48.82,12.47-65.58h.07ZM155.27,114.06c13.57-19.32-1.11-45.92-24.38-45.22-14.2.42-25.55,10.39-27.84,24.45-.42,2.35-.28,4.78-.28,7.2s.21.76.21,1.25v.9c1.11,6.03,3.6,9.76,7.2,14.89,6.99,9.97,13.99,19.88,20.98,29.64.21.28.42.28.62,0,8.03-11.29,15.86-22.3,23.41-33.1h.07Z"/>
    <ellipse class="st1" cx="131.39" cy="207.08" rx="16.21" ry="15.86" transform="translate(-18.57 13.02) rotate(-5.3)"/>
  </g>
</svg>