<svg width="12" height="11" viewBox="0 0 12 11" fill="none" xmlns="http://www.w3.org/2000/svg">
<path d="M4.58163 0.690965C4.88098 -0.230346 6.18439 -0.230344 6.48374 0.690967L7.10428 2.6008C7.23816 3.01282 7.62211 3.29178 8.05534 3.29178H10.0635C11.0322 3.29178 11.435 4.5314 10.6512 5.1008L9.02664 6.28114C8.67615 6.53578 8.52949 6.98715 8.66337 7.39917L9.28391 9.309C9.58326 10.2303 8.52878 10.9964 7.74507 10.427L6.12047 9.24669C5.76998 8.99205 5.29539 8.99205 4.9449 9.24669L3.3203 10.427C2.53659 10.9964 1.48211 10.2303 1.78146 9.309L2.402 7.39917C2.53587 6.98715 2.38922 6.53578 2.03873 6.28114L0.414129 5.1008C-0.369585 4.53139 0.0331924 3.29178 1.00192 3.29178H3.01003C3.44326 3.29178 3.82721 3.01282 3.96109 2.6008L4.58163 0.690965Z" fill="#FFB30F"/>
</svg>
