<svg width="1257" height="265" viewBox="0 0 1257 265" fill="none" xmlns="http://www.w3.org/2000/svg">
<path d="M92.2638 262.764L0.000801289 7.87415H33.7468L112.727 229.018L191.348 7.87415H225.094L132.831 262.764H92.2638ZM257.236 262.764V7.87415H417.35V38.0301H288.11V120.241H413.042V149.679H288.11V232.608H420.222V262.764H257.236ZM498.015 10.6929C499.417 5.66781 502.865 3.03841 508.357 2.80469H519.226C521.797 2.80469 523.842 3.73958 525.361 5.60938C526.997 7.3623 528.049 10.167 528.516 14.0234L560.419 195.627L607.398 10.6929C608.917 5.43408 612.54 2.80469 618.266 2.80469H628.608C631.53 2.80469 633.633 3.91488 634.919 6.13525C636.204 8.23877 636.497 10.8682 635.795 14.0234L574.443 254.876C573.041 260.135 569.418 262.764 563.575 262.764H550.778C549.025 262.764 547.565 262.238 546.396 261.187C545.227 260.135 544.292 256.979 543.591 251.721L512.039 70.6431L464.885 254.876C463.482 260.135 459.918 262.764 454.192 262.764H443.674C440.87 262.764 438.825 261.712 437.539 259.609C436.137 257.389 435.786 254.759 436.487 251.721L498.015 10.6929ZM628.433 184.934C628.433 163.081 631.647 141.345 638.074 119.725C644.618 98.1056 652.507 78.765 661.739 61.7031C670.971 44.5244 682.365 29.9751 695.921 18.0552C709.594 6.01839 723.734 0 738.342 0C748.392 0 758.793 3.33057 769.544 9.9917C777.023 14.5493 782.165 21.7363 784.97 31.5527C787.891 41.3691 789.352 55.86 789.352 75.0254C789.352 94.1908 785.145 119.667 776.731 151.453C769.135 180.902 757.916 206.495 743.075 228.231C735.128 239.567 725.721 248.39 714.853 254.701C703.984 261.011 693.467 264.283 683.3 264.517C673.133 264.751 663.375 262.355 654.026 257.33C636.964 248.565 628.433 224.433 628.433 184.934ZM668.4 124.633C661.622 146.837 658.174 167.054 658.058 185.285C657.941 203.398 660.044 217.071 664.368 226.303C668.692 235.535 674.301 240.151 681.196 240.151C693.934 240.151 705.095 233.899 714.677 221.395C726.363 205.151 737.582 179.558 748.333 144.617C758.15 111.077 761.773 83.4979 759.202 61.8784C756.748 40.259 749.327 29.4492 736.939 29.4492C723.734 29.4492 711.989 36.1104 701.706 49.4326C689.084 66.2607 677.983 91.3276 668.4 124.633ZM819.225 262.764V7.87415H915.796C933.746 7.87415 949.183 10.9855 962.107 17.2082C975.031 23.4308 984.963 32.4058 991.904 44.1332C999.084 55.6211 1002.67 69.2631 1002.67 85.0591C1002.67 96.5471 999.921 106.838 994.417 115.933C989.151 124.788 982.33 131.849 973.954 137.114C965.577 142.379 956.841 145.251 947.747 145.73L945.593 142.499C961.149 142.499 973.355 146.089 982.211 153.269C991.305 160.449 996.571 171.937 998.007 187.733L1005.19 262.764H973.954L967.492 190.964C966.534 180.433 962.705 172.655 956.004 167.629C949.542 162.603 938.891 160.09 924.053 160.09H850.099V262.764H819.225ZM850.099 129.934H919.745C935.301 129.934 947.627 125.985 956.722 118.087C965.816 110.189 970.364 98.9405 970.364 84.3412C970.364 69.5025 965.697 58.1342 956.363 50.2362C947.029 42.0988 933.506 38.0301 915.796 38.0301H850.099V129.934ZM1031.07 262.764L1122.98 7.87415H1164.62L1256.53 262.764H1222.78L1197.29 190.246H1090.31L1064.82 262.764H1031.07ZM1100.72 160.09H1186.88L1143.8 34.7991L1100.72 160.09Z" fill="url(#paint0_linear_2017_3253)" fill-opacity="0.1"/>
<defs>
<linearGradient id="paint0_linear_2017_3253" x1="643.758" y1="264.764" x2="643.758" y2="-3.73585" gradientUnits="userSpaceOnUse">
<stop stop-color="#D7E58E" stop-opacity="0"/>
<stop offset="1" stop-color="#D7E58E"/>
</linearGradient>
</defs>
</svg>
