<svg width="20" height="20" viewBox="0 0 20 20" fill="none" xmlns="http://www.w3.org/2000/svg">
<path d="M6.30705 4.81539C6.30686 5.20828 6.15005 5.58501 5.87113 5.86268C5.59221 6.14036 5.21403 6.29625 4.81978 6.29605C4.42552 6.29585 4.04749 6.13959 3.76885 5.86163C3.49021 5.58368 3.33379 5.2068 3.33398 4.81391C3.33418 4.42102 3.49099 4.0443 3.76991 3.76662C4.04882 3.48894 4.42701 3.33306 4.82126 3.33325C5.21551 3.33345 5.59354 3.48971 5.87218 3.76767C6.15082 4.04562 6.30725 4.4225 6.30705 4.81539ZM6.35165 7.39303H3.37858V16.6666H6.35165V7.39303ZM11.0491 7.39303H8.09089V16.6666H11.0194V11.8002C11.0194 9.08923 14.5647 8.83739 14.5647 11.8002V16.6666H17.5007V10.7928C17.5007 6.22272 12.2532 6.39308 11.0194 8.6374L11.0491 7.39303Z" fill="white"/>
</svg>
