<svg width="110" height="29" viewBox="0 0 110 29" fill="none" xmlns="http://www.w3.org/2000/svg">
<path d="M37.3584 20.8839C36.8627 20.9107 36.3724 20.7706 35.9667 20.4862C35.7972 20.3613 35.6608 20.1971 35.5693 20.008C35.4778 19.8189 35.434 19.6105 35.4417 19.4008V11.7199C35.4377 11.6874 35.4411 11.6544 35.4518 11.6234C35.4625 11.5924 35.4802 11.5643 35.5035 11.5411C35.5268 11.5179 35.5551 11.5004 35.5863 11.4897C35.6174 11.4791 35.6507 11.4757 35.6834 11.4796H37.0834C37.2417 11.4796 37.3167 11.5625 37.3167 11.7199V18.8042C37.3167 19.1191 37.4584 19.2765 37.75 19.2765C37.8737 19.2815 37.9974 19.2676 38.1167 19.2351C38.2834 19.2351 38.375 19.2848 38.3834 19.4339L38.5083 20.4696C38.5143 20.4999 38.5138 20.531 38.5067 20.5609C38.4996 20.5909 38.4861 20.619 38.4671 20.6433C38.4482 20.6677 38.4242 20.6877 38.3968 20.7021C38.3694 20.7164 38.3393 20.7248 38.3084 20.7265C38.0017 20.8272 37.6813 20.8804 37.3584 20.8839Z" fill="#B5B5B5"/>
<path d="M45.2334 19.9973C44.5299 20.5752 43.6459 20.8913 42.7334 20.8913C41.8209 20.8913 40.9369 20.5752 40.2334 19.9973C39.6151 19.3767 39.2682 18.5384 39.2682 17.6649C39.2682 16.7913 39.6151 15.953 40.2334 15.3324C40.9382 14.7575 41.8217 14.4433 42.7334 14.4433C43.645 14.4433 44.5285 14.7575 45.2334 15.3324C45.8374 15.9588 46.1747 16.793 46.1747 17.6607C46.1747 18.5285 45.8374 19.3627 45.2334 19.989V19.9973ZM41.55 18.9036C41.8765 19.1976 42.3012 19.3605 42.7417 19.3605C43.1822 19.3605 43.6069 19.1976 43.9334 18.9036C44.2289 18.5659 44.3915 18.1333 44.3915 17.6856C44.3915 17.238 44.2289 16.8054 43.9334 16.4676C43.6069 16.1736 43.1822 16.0107 42.7417 16.0107C42.3012 16.0107 41.8765 16.1736 41.55 16.4676C41.2546 16.8054 41.0919 17.238 41.0919 17.6856C41.0919 18.1333 41.2546 18.5659 41.55 18.9036Z" fill="#B5B5B5"/>
<path d="M53.8834 14.653C54.0417 14.653 54.1167 14.7359 54.1167 14.8933V20.8342C54.1313 21.2352 54.0558 21.6343 53.8958 22.0026C53.7358 22.371 53.4953 22.6993 53.1917 22.9636C52.5179 23.5349 51.6514 23.8309 50.7667 23.7922C49.9677 23.8201 49.1793 23.6032 48.5084 23.1707C48.2219 22.9837 47.9771 22.74 47.7894 22.455C47.6016 22.1699 47.4747 21.8495 47.4167 21.5136C47.4167 21.3479 47.4167 21.2733 47.6417 21.2733H49.0417C49.1011 21.2753 49.1588 21.2944 49.2076 21.3282C49.2564 21.362 49.2943 21.4091 49.3167 21.4639C49.4076 21.7155 49.5886 21.9251 49.8251 22.0522C50.1133 22.2001 50.4341 22.2741 50.7584 22.2676C50.9541 22.2783 51.1499 22.25 51.3345 22.1846C51.5191 22.1192 51.6886 22.0178 51.8334 21.8864C51.9656 21.7491 52.0685 21.5864 52.1358 21.4084C52.2031 21.2305 52.2335 21.0407 52.2251 20.8507V20.3287C51.7238 20.6953 51.1137 20.8849 50.4917 20.8673C50.0564 20.883 49.6224 20.8112 49.2156 20.656C48.809 20.5007 48.4381 20.2655 48.1251 19.9642C47.5243 19.3462 47.1885 18.5203 47.1885 17.6607C47.1885 16.8013 47.5243 15.9753 48.1251 15.3573C48.4396 15.0587 48.811 14.8257 49.2174 14.672C49.6239 14.5183 50.0571 14.447 50.4917 14.4624C51.1317 14.4456 51.7582 14.6475 52.2667 15.0342V14.9016C52.2629 14.8699 52.2662 14.8376 52.2765 14.8073C52.2867 14.7771 52.3036 14.7494 52.326 14.7263C52.3483 14.7033 52.3756 14.6856 52.4056 14.6743C52.4358 14.663 52.4681 14.6587 52.5001 14.6613L53.8834 14.653ZM50.6501 19.3924C50.8647 19.3991 51.0783 19.3587 51.2756 19.2742C51.4728 19.1898 51.6491 19.0633 51.7917 18.9036C52.0688 18.5479 52.2191 18.1106 52.2191 17.6607C52.2191 17.2108 52.0688 16.7737 51.7917 16.4179C51.6496 16.2604 51.4744 16.1357 51.2786 16.0527C51.0828 15.9697 50.8711 15.9303 50.6584 15.9373C50.4412 15.9305 50.2252 15.9707 50.0252 16.0551C49.8252 16.1396 49.6461 16.2662 49.5001 16.4262C49.1931 16.7665 49.0317 17.2123 49.0501 17.669C49.0351 18.1213 49.1929 18.5624 49.4917 18.9036C49.6381 19.0632 49.8173 19.1895 50.0172 19.2739C50.2171 19.3582 50.433 19.3987 50.6501 19.3924Z" fill="#B5B5B5"/>
<path d="M61.3083 19.9973C60.6035 20.5723 59.72 20.8865 58.8083 20.8865C57.8966 20.8865 57.0131 20.5723 56.3083 19.9973C55.7037 19.3696 55.3662 18.5341 55.3662 17.6649C55.3662 16.7958 55.7037 15.9602 56.3083 15.3325C57.0138 14.759 57.897 14.4457 58.8083 14.4457C59.7195 14.4457 60.6028 14.759 61.3083 15.3325C61.9124 15.9588 62.2496 16.793 62.2496 17.6608C62.2496 18.5285 61.9124 19.3627 61.3083 19.989V19.9973ZM57.6166 18.9036C57.7764 19.0548 57.9647 19.1728 58.1707 19.251C58.3767 19.3293 58.5962 19.3661 58.8166 19.3593C59.0356 19.365 59.2536 19.3277 59.4581 19.2495C59.6626 19.1712 59.8495 19.0538 60.0083 18.9036C60.299 18.5636 60.4585 18.1319 60.4585 17.6856C60.4585 17.2394 60.299 16.8077 60.0083 16.4676C59.8495 16.3176 59.6626 16.2 59.4581 16.1219C59.2536 16.0436 59.0356 16.0063 58.8166 16.0119C58.5962 16.0052 58.3767 16.042 58.1707 16.1202C57.9647 16.1984 57.7764 16.3166 57.6166 16.4676C57.326 16.8077 57.1665 17.2394 57.1665 17.6856C57.1665 18.1319 57.326 18.5636 57.6166 18.9036Z" fill="#B5B5B5"/>
<path d="M65.2584 13.2445C65.0381 13.4362 64.7553 13.5418 64.4625 13.5418C64.1698 13.5418 63.887 13.4362 63.6667 13.2445C63.5669 13.1508 63.4873 13.0377 63.4329 12.9124C63.3785 12.787 63.3505 12.6519 63.3505 12.5153C63.3505 12.3788 63.3785 12.2437 63.4329 12.1183C63.4873 11.9929 63.5669 11.8799 63.6667 11.7862C63.8893 11.5993 64.1712 11.4968 64.4625 11.4968C64.7539 11.4968 65.0358 11.5993 65.2584 11.7862C65.3583 11.8799 65.4379 11.9929 65.4922 12.1183C65.5466 12.2437 65.5746 12.3788 65.5746 12.5153C65.5746 12.6519 65.5466 12.787 65.4922 12.9124C65.4379 13.0377 65.3583 13.1508 65.2584 13.2445ZM65.4334 20.8839C64.938 20.9081 64.4486 20.7682 64.0417 20.4862C63.8748 20.3594 63.7407 20.1947 63.6509 20.0059C63.561 19.817 63.5178 19.6096 63.525 19.4008V14.8933C63.521 14.8608 63.5245 14.8278 63.5352 14.7968C63.5459 14.7658 63.5635 14.7377 63.5869 14.7145C63.6102 14.6913 63.6385 14.6738 63.6696 14.6632C63.7008 14.6525 63.734 14.6491 63.7667 14.653H65.1667C65.325 14.653 65.4 14.7359 65.4 14.8933V18.8042C65.4 19.119 65.5417 19.2765 65.825 19.2765C65.9515 19.281 66.0778 19.267 66.2 19.235C66.3667 19.235 66.4584 19.2848 66.4667 19.4339L66.5917 20.4696C66.5977 20.4999 66.5971 20.5309 66.59 20.5609C66.583 20.5908 66.5695 20.619 66.5505 20.6433C66.5315 20.6676 66.5075 20.6877 66.4802 20.702C66.4528 20.7164 66.4226 20.7247 66.3917 20.7265C66.0824 20.8278 65.7591 20.8809 65.4334 20.8839Z" fill="#B5B5B5"/>
<path d="M71.7416 14.4542C72.179 14.437 72.6152 14.5073 73.0246 14.661C73.4341 14.8148 73.8083 15.0487 74.125 15.349C74.7143 15.9779 75.042 16.8054 75.042 17.6649C75.042 18.5243 74.7143 19.3519 74.125 19.9807C73.8098 20.2837 73.4361 20.52 73.0264 20.6752C72.6167 20.8304 72.1797 20.9014 71.7416 20.8839C71.1176 20.8977 70.5061 20.7086 70 20.3453V23.3364C70 23.4939 69.9166 23.5684 69.7583 23.5684H68.3583C68.3264 23.5744 68.2935 23.5725 68.2624 23.563C68.2314 23.5534 68.2031 23.5365 68.1801 23.5136C68.1572 23.4907 68.1401 23.4627 68.1306 23.4318C68.1209 23.401 68.1191 23.3683 68.125 23.3364V16.5422C68.1348 16.4757 68.1288 16.4079 68.1077 16.3441C68.0864 16.2804 68.0504 16.2224 68.0027 16.1749C67.9549 16.1275 67.8967 16.0917 67.8325 16.0706C67.7684 16.0495 67.7002 16.0436 67.6333 16.0533H67.3583C67.175 16.0533 67.0833 15.987 67.0833 15.8544V14.8767C67.079 14.8162 67.0956 14.7561 67.1306 14.7064C67.1654 14.6566 67.2164 14.6202 67.275 14.6033C67.5632 14.4991 67.8683 14.4486 68.175 14.4542C68.4808 14.4272 68.7877 14.4918 69.0565 14.6393C69.3251 14.787 69.5435 15.011 69.6833 15.2827C69.9517 15.0128 70.2727 14.8001 70.6266 14.6576C70.9806 14.5151 71.36 14.4459 71.7416 14.4542ZM70.4416 18.9036C70.5902 19.058 70.7687 19.1809 70.9664 19.2648C71.1641 19.3488 71.3767 19.392 71.5917 19.392C71.8066 19.392 72.0193 19.3488 72.2169 19.2648C72.4146 19.1809 72.5931 19.058 72.7416 18.9036C73.0546 18.5565 73.2191 18.1017 73.2 17.6359C73.2218 17.1697 73.057 16.7138 72.7416 16.3682C72.5931 16.2138 72.4146 16.0909 72.2169 16.007C72.0193 15.923 71.8066 15.8797 71.5917 15.8797C71.3767 15.8797 71.1641 15.923 70.9664 16.007C70.7687 16.0909 70.5902 16.2138 70.4416 16.3682C70.1385 16.72 69.9806 17.1729 70 17.6359C69.9831 18.0985 70.1406 18.5506 70.4416 18.9036Z" fill="#B5B5B5"/>
<path d="M78.975 20.8839C78.2269 20.9145 77.4852 20.7366 76.8334 20.3702C76.5719 20.2136 76.3492 20.0004 76.1818 19.7465C76.0144 19.4926 75.9068 19.2045 75.8667 18.9036C75.8667 18.7379 75.925 18.655 76.1084 18.655H77.3334C77.3916 18.6574 77.4482 18.6755 77.4967 18.7077C77.5452 18.7399 77.5839 18.7847 77.6084 18.8373C77.7834 19.2847 78.2417 19.5085 78.975 19.5085C79.2309 19.5201 79.4855 19.4689 79.7167 19.3593C79.7965 19.3235 79.8649 19.2668 79.9149 19.1953C79.9648 19.1238 79.9942 19.0402 80 18.9533C80 18.7379 79.8667 18.5887 79.6 18.4893C79.2838 18.3847 78.9568 18.3152 78.625 18.2822C78.2321 18.2379 77.8424 18.1687 77.4584 18.075C77.0849 17.991 76.7453 17.7976 76.4834 17.5199C76.3291 17.3311 76.2156 17.1128 76.1498 16.8786C76.084 16.6443 76.0674 16.3991 76.101 16.1582C76.1347 15.9173 76.2178 15.6858 76.3452 15.4782C76.4726 15.2706 76.6416 15.0913 76.8417 14.9513C77.4424 14.5709 78.1471 14.3856 78.8584 14.421C79.547 14.3979 80.2284 14.5673 80.825 14.9099C81.0655 15.0454 81.2725 15.2324 81.4311 15.4574C81.5897 15.6825 81.6958 15.9398 81.7417 16.2107C81.7417 16.3765 81.6667 16.4593 81.5167 16.4593H80.2834C80.2314 16.4624 80.1798 16.4498 80.1352 16.4232C80.0906 16.3966 80.0551 16.3572 80.0334 16.3102C79.9509 16.114 79.7958 15.9567 79.6 15.871C79.3792 15.7562 79.1325 15.6991 78.8834 15.7053C78.6391 15.6921 78.3954 15.7406 78.175 15.8462C78.0974 15.876 78.0305 15.9282 77.9829 15.9961C77.9354 16.0641 77.9094 16.1446 77.9084 16.2273C77.9137 16.3407 77.9554 16.4493 78.0274 16.5373C78.0994 16.6253 78.1979 16.6879 78.3084 16.7162C78.6284 16.8362 78.9611 16.9195 79.3 16.9647C79.6898 17.0158 80.0765 17.0877 80.4584 17.1802C80.8319 17.2643 81.1714 17.4576 81.4334 17.7353C81.5735 17.8884 81.6817 18.0674 81.7518 18.2623C81.8219 18.4571 81.8524 18.6638 81.8417 18.8705C81.8489 19.1569 81.7813 19.4403 81.6455 19.693C81.5096 19.9456 81.3102 20.159 81.0667 20.3122C80.4441 20.7096 79.7145 20.909 78.975 20.8839Z" fill="#B5B5B5"/>
<path d="M90.65 20.4696C90.655 20.499 90.6534 20.5291 90.6467 20.558C90.6392 20.587 90.6267 20.6142 90.6084 20.6381C90.5909 20.6621 90.5684 20.6822 90.5425 20.6974C90.5167 20.7125 90.4884 20.7224 90.4584 20.7264C90.1542 20.8252 89.8367 20.8783 89.5167 20.8839C89.2 20.9165 88.88 20.8673 88.5884 20.741C88.2959 20.6148 88.0417 20.4156 87.85 20.163C87.2617 20.6662 86.5 20.9244 85.725 20.8839C85.365 20.9004 85.0059 20.8418 84.67 20.7119C84.3342 20.5821 84.0292 20.3838 83.775 20.1299C83.5225 19.8638 83.3269 19.5498 83.1994 19.2067C83.072 18.8636 83.0155 18.4984 83.0334 18.133V14.8933C83.0334 14.7359 83.1084 14.653 83.2667 14.653H84.6667C84.825 14.653 84.9 14.7359 84.9 14.8933V17.8844C84.885 18.2571 85.0125 18.6215 85.2584 18.9036C85.3809 19.0328 85.53 19.1344 85.695 19.2016C85.86 19.2688 86.0384 19.3 86.2167 19.293C86.3992 19.301 86.5817 19.2729 86.7534 19.2102C86.925 19.1477 87.0825 19.0519 87.2167 18.9284C87.3434 18.7984 87.4425 18.6437 87.5067 18.4741C87.5717 18.3045 87.6 18.1236 87.5917 17.9424V14.8933C87.5917 14.7359 87.6667 14.653 87.825 14.653H89.2417C89.4 14.653 89.475 14.7359 89.475 14.8933V18.7959C89.475 19.119 89.6167 19.2764 89.8917 19.2764C90.0209 19.2814 90.15 19.2675 90.275 19.235C90.3067 19.2262 90.34 19.2247 90.3717 19.2305C90.4042 19.2362 90.4342 19.2491 90.4609 19.2682C90.4875 19.2874 90.5092 19.3122 90.525 19.3409C90.54 19.3696 90.5484 19.4014 90.55 19.4339L90.65 20.4696Z" fill="#B5B5B5"/>
<path d="M103.892 20.4696C103.899 20.4993 103.9 20.5303 103.894 20.5603C103.888 20.5902 103.875 20.6185 103.857 20.643C103.838 20.6676 103.815 20.6878 103.788 20.7022C103.761 20.7167 103.731 20.725 103.7 20.7265C103.39 20.8267 103.068 20.8798 102.742 20.8839C102.246 20.9094 101.757 20.7694 101.35 20.4862C101.174 20.3649 101.032 20.2024 100.934 20.0131C100.837 19.8238 100.788 19.6134 100.792 19.4008V17.4536C100.809 17.0821 100.684 16.7178 100.442 16.4345C100.325 16.305 100.18 16.2029 100.019 16.1355C99.8575 16.0683 99.6834 16.0374 99.5084 16.0451C99.3509 16.0392 99.1942 16.0689 99.0492 16.1321C98.905 16.1952 98.7775 16.2901 98.675 16.4096C98.455 16.6873 98.3425 17.0343 98.3584 17.3873V20.4448C98.3584 20.6022 98.2834 20.6851 98.125 20.6851H96.7167C96.6842 20.6891 96.6509 20.6856 96.62 20.675C96.5884 20.6643 96.56 20.6468 96.5367 20.6236C96.5134 20.6005 96.4959 20.5723 96.485 20.5413C96.4742 20.5103 96.4709 20.4773 96.475 20.4448V17.4536C96.4934 17.0862 96.3775 16.7244 96.15 16.4345C96.0484 16.3127 95.9209 16.2147 95.7767 16.1474C95.6334 16.0801 95.4759 16.0451 95.3167 16.0451C95.1467 16.0383 94.9775 16.0672 94.8192 16.1301C94.6609 16.1929 94.5184 16.2882 94.4 16.4096C94.1617 16.6784 94.0392 17.0296 94.0584 17.3873V20.4448C94.0625 20.4773 94.0592 20.5103 94.0484 20.5413C94.0375 20.5723 94.02 20.6005 93.9967 20.6236C93.9734 20.6468 93.945 20.6643 93.9142 20.675C93.8825 20.6856 93.8492 20.6891 93.8167 20.6851H92.4584C92.3 20.6851 92.225 20.6022 92.225 20.4448V16.5422C92.235 16.4757 92.2292 16.408 92.2075 16.3442C92.1867 16.2805 92.1509 16.2225 92.1025 16.175C92.055 16.1275 91.9967 16.0918 91.9325 16.0707C91.8684 16.0495 91.8 16.0436 91.7334 16.0533H91.4584C91.275 16.0533 91.1834 15.9871 91.1834 15.8545V14.8768C91.1792 14.8163 91.1959 14.7561 91.2309 14.7064C91.2659 14.6566 91.3167 14.6202 91.375 14.6033C91.6634 14.4992 91.9684 14.4486 92.275 14.4542C92.5692 14.4293 92.865 14.4876 93.1275 14.6225C93.39 14.7574 93.6084 14.9633 93.7584 15.2165C94.0392 14.9516 94.3725 14.7471 94.7367 14.6159C95.1009 14.4848 95.4884 14.4298 95.875 14.4542C96.2509 14.436 96.625 14.506 96.9684 14.6586C97.3117 14.8112 97.6134 15.0421 97.85 15.3325C98.1259 15.0344 98.465 14.8011 98.8425 14.6492C99.22 14.4973 99.6267 14.4308 100.033 14.4542C100.397 14.4373 100.76 14.4955 101.1 14.6254C101.44 14.7551 101.749 14.9536 102.008 15.2082C102.262 15.4738 102.458 15.7877 102.585 16.131C102.713 16.4742 102.769 16.8397 102.75 17.2051V18.8042C102.75 19.1191 102.892 19.2765 103.158 19.2765C103.288 19.2825 103.417 19.2685 103.542 19.2351C103.714 19.2351 103.806 19.3013 103.817 19.4339L103.892 20.4696Z" fill="#B5B5B5"/>
<path d="M6.17504 13.5759C6.78985 11.1189 8.21373 8.93706 10.22 7.37781C12.2262 5.81852 14.6995 4.97144 17.2459 4.97144C19.7923 4.97144 22.2655 5.81852 24.2718 7.37781C26.278 8.93706 27.7019 11.1189 28.3167 13.5759H27.3167C25.6298 13.5512 23.9775 14.0525 22.5917 15.0093C22.5117 15.0669 22.4282 15.1195 22.3417 15.1668H22.225C22.1385 15.1195 22.055 15.0669 21.975 15.0093C20.577 14.0746 18.9305 13.5754 17.2459 13.5754C15.5612 13.5754 13.9147 14.0746 12.5167 15.0093C12.4367 15.0669 12.3532 15.1195 12.2667 15.1668H12.15C12.0635 15.1195 11.98 15.0669 11.9 15.0093C10.5143 14.0525 8.86196 13.5512 7.17504 13.5759H6.17504ZM25.5167 18.771C26.03 18.3736 26.6663 18.1656 27.3167 18.1828H28.6584V15.523H27.3167C26.171 15.5093 25.0516 15.8638 24.125 16.5339C23.6036 16.9161 22.9729 17.1224 22.325 17.1224C21.6772 17.1224 21.0465 16.9161 20.525 16.5339C19.575 15.8763 18.4451 15.5238 17.2875 15.5238C16.13 15.5238 15.0001 15.8763 14.05 16.5339C13.5286 16.9161 12.8979 17.1224 12.25 17.1224C11.6022 17.1224 10.9715 16.9161 10.45 16.5339C9.51204 15.8552 8.37654 15.5003 7.21671 15.523H5.83337V18.1828H7.17504C7.82547 18.1656 8.46171 18.3736 8.97504 18.771C9.92337 19.4291 11.052 19.7819 12.2084 19.7819C13.3648 19.7819 14.4934 19.4291 15.4417 18.771C15.9557 18.3748 16.5915 18.167 17.2417 18.1828C17.8924 18.1642 18.529 18.3723 19.0417 18.771C19.9918 19.4287 21.1216 19.7812 22.2792 19.7812C23.4368 19.7812 24.5666 19.4287 25.5167 18.771ZM25.5167 23.527C26.03 23.1296 26.6663 22.9216 27.3167 22.9388H28.6584V20.279H27.3167C26.171 20.2653 25.0516 20.6198 24.125 21.2899C23.6036 21.6721 22.9729 21.8784 22.325 21.8784C21.6772 21.8784 21.0465 21.6721 20.525 21.2899C19.575 20.6323 18.4451 20.2799 17.2875 20.2799C16.13 20.2799 15.0001 20.6323 14.05 21.2899C13.5286 21.6721 12.8979 21.8784 12.25 21.8784C11.6022 21.8784 10.9715 21.6721 10.45 21.2899C9.51204 20.6113 8.37654 20.2563 7.21671 20.279H5.83337V22.9388H7.17504C7.82547 22.9216 8.46171 23.1296 8.97504 23.527C9.92337 24.1851 11.052 24.5379 12.2084 24.5379C13.3648 24.5379 14.4934 24.1851 15.4417 23.527C15.9557 23.1308 16.5915 22.923 17.2417 22.9388C17.8924 22.9202 18.529 23.1283 19.0417 23.527C19.9918 24.1847 21.1216 24.5372 22.2792 24.5372C23.4368 24.5372 24.5666 24.1847 25.5167 23.527Z" fill="#B5B5B5"/>
</svg>
