<svg width="20" height="25" viewBox="0 0 20 25" fill="none" xmlns="http://www.w3.org/2000/svg">
<path fill-rule="evenodd" clip-rule="evenodd" d="M7.96514 0.460593C8.6104 0.153733 9.30503 0 10 0C10.695 0 11.3896 0.153733 12.0349 0.460593C14.5207 1.64277 16.5079 3.85684 17.8679 6.40481C19.2297 8.95592 20 11.9088 20 14.659C20 20.3555 15.5371 25 10 25C4.46287 25 0 20.3555 0 14.659C0 11.9088 0.77032 8.95592 2.13207 6.40481C3.49214 3.85684 5.47928 1.64277 7.96514 0.460593ZM9.14286 1.86788C8.98937 1.91308 8.83829 1.97067 8.69097 2.0407C6.62402 3.02367 4.8757 4.91948 3.63851 7.23723C2.40301 9.55185 1.71429 12.2205 1.71429 14.659C1.71429 19.1194 4.98081 22.7657 9.14286 23.2102V1.86788ZM10.8571 1.86788V6.90621L13.8606 3.85043C13.0843 3.09545 12.2281 2.47781 11.309 2.0407C11.1617 1.97067 11.0106 1.91308 10.8571 1.86788ZM15.0128 5.14469L10.8571 9.37286V13.3015L16.5193 7.54065C16.4678 7.43887 16.4151 7.33772 16.3615 7.23723C15.9629 6.49043 15.5112 5.78744 15.0128 5.14469ZM17.2659 9.2476L10.8571 15.7683V19.1155L17.9653 11.8834L18.02 11.9391C17.8479 11.0353 17.5944 10.1293 17.2659 9.2476ZM18.2712 14.0388L10.8571 21.5822V23.2102C15.0192 22.7657 18.2857 19.1194 18.2857 14.659C18.2857 14.4537 18.2808 14.247 18.2712 14.0388Z" fill="white"/>
</svg>
