<svg width="32" height="28" viewBox="0 0 32 28" fill="none" xmlns="http://www.w3.org/2000/svg">
<path d="M6.48004 27.7202C4.48004 27.7202 2.92004 27.0002 1.80004 25.5602C0.600044 24.1202 4.38541e-05 22.1602 4.38541e-05 19.6802C4.38541e-05 16.0002 0.800044 12.6402 2.40004 9.60015C4.08004 6.56015 6.76004 3.72015 10.44 1.08015C11.4 0.360151 12.16 0.200151 12.72 0.600151C13.04 0.840152 13.2 1.20015 13.2 1.68015C13.2 2.08015 12.92 2.48015 12.36 2.88015C9.64004 5.20015 7.88004 7.00015 7.08004 8.28015C6.36004 9.48015 6.00004 10.7602 6.00004 12.1202C6.00004 13.5602 6.32004 14.6802 6.96004 15.4802C7.60004 16.2002 8.32004 16.8402 9.12004 17.4002C9.92004 17.8802 10.64 18.4802 11.28 19.2002C11.92 19.9202 12.24 21.0002 12.24 22.4402C12.24 23.8802 11.72 25.1202 10.68 26.1602C9.72004 27.2002 8.32004 27.7202 6.48004 27.7202ZM24.48 27.7202C22.48 27.7202 20.88 27.0002 19.68 25.5602C18.56 24.1202 18 22.1602 18 19.6802C18 16.0002 18.8 12.6402 20.4 9.60015C22.08 6.56015 24.76 3.72015 28.44 1.08015C29.4 0.360151 30.16 0.200151 30.72 0.600151C31.04 0.840152 31.2 1.20015 31.2 1.68015C31.2 2.08015 30.92 2.48015 30.36 2.88015C27.64 5.20015 25.88 7.00015 25.08 8.28015C24.36 9.48015 24 10.7602 24 12.1202C24 13.5602 24.32 14.6802 24.96 15.4802C25.6 16.2002 26.32 16.8402 27.12 17.4002C27.92 17.8802 28.64 18.4802 29.28 19.2002C29.92 19.9202 30.24 21.0002 30.24 22.4402C30.24 23.8802 29.72 25.1202 28.68 26.1602C27.72 27.2002 26.32 27.7202 24.48 27.7202Z" fill="#D7E58E"/>
</svg>
