<svg width="24" height="22" viewBox="0 0 24 22" fill="none" xmlns="http://www.w3.org/2000/svg">
<path fill-rule="evenodd" clip-rule="evenodd" d="M5.86867 0C5.21219 0 4.59915 0.332512 4.23499 0.886081L0.208008 7.00786C-0.0385215 7.38264 -0.0680068 7.86258 0.130749 8.26544C2.33441 12.7321 5.39687 16.7071 9.13814 19.9571L11.1024 21.6635C11.6189 22.1122 12.3811 22.1122 12.8976 21.6635L14.8618 19.9571C18.6032 16.7071 21.6656 12.7321 23.8692 8.26544C24.068 7.86258 24.0385 7.38264 23.792 7.00786L19.7651 0.886081C19.4009 0.332512 18.7878 0 18.1314 0H5.86867ZM5.63529 1.83218C5.68731 1.7531 5.77489 1.7056 5.86867 1.7056H8.49386L6.34516 6.93188C6.29567 7.05226 6.25831 7.17642 6.23313 7.30251C5.44346 7.24294 4.65446 7.17112 3.8664 7.08706L2.28924 6.91881L5.63529 1.83218ZM2.21496 8.62589C4.22709 12.3668 6.88409 15.7158 10.0626 18.5128L6.55596 9.03592C5.59966 8.96929 4.64426 8.88503 3.69023 8.78326L2.21496 8.62589ZM8.39268 9.14223L12 18.8912L15.6074 9.14223C13.2037 9.25299 10.7963 9.25299 8.39268 9.14223ZM17.444 9.03592L13.9375 18.5128C17.116 15.7158 19.7729 12.3668 21.785 8.62589L20.3098 8.78326C19.3558 8.88503 18.4004 8.96929 17.444 9.03592ZM21.7108 6.91881L20.1336 7.08706C19.3456 7.17112 18.5566 7.24294 17.7668 7.30251C17.7417 7.17642 17.7043 7.05226 17.6549 6.93188L15.5062 1.7056H18.1314C18.2252 1.7056 18.3127 1.7531 18.3647 1.83219L21.7108 6.91881ZM16.0298 7.41372C13.3451 7.55503 10.6549 7.55503 7.97025 7.41372L10.3171 1.7056H13.683L16.0298 7.41372Z" fill="white"/>
</svg>
