<svg width="215" height="21" viewBox="0 0 215 21" fill="none" xmlns="http://www.w3.org/2000/svg">
<path d="M5.33206 15.2344C5.33206 15.3698 5.28974 15.4883 5.20511 15.5898C5.12894 15.6829 5.01891 15.7337 4.87503 15.7422L0.507843 15.9707C0.38089 15.9792 0.2624 15.9453 0.152374 15.8691C0.0508118 15.7845 3.05176e-05 15.6702 3.05176e-05 15.5264C3.05176e-05 15.391 0.0381165 15.2767 0.114288 15.1836C0.198924 15.082 0.313182 15.027 0.457062 15.0186L4.82425 14.79C4.95967 14.7816 5.07392 14.8197 5.16702 14.9043C5.26859 14.9889 5.3236 15.099 5.33206 15.2344ZM23.0303 1.00293C24.0714 1.00293 25.1335 1.10026 26.2169 1.29492C27.3002 1.48112 28.3539 1.76888 29.378 2.1582C30.4021 2.54753 31.3669 3.03841 32.2725 3.63086C33.1781 4.21484 33.9695 4.90039 34.6466 5.6875C35.3236 6.47461 35.8568 7.36328 36.2462 8.35352C36.644 9.34375 36.8428 10.4398 36.8428 11.6416C36.8428 12.8434 36.6313 13.9564 36.2081 14.9805C35.7849 16.0046 35.1925 16.889 34.4307 17.6338C33.669 18.3786 32.7592 18.9626 31.7012 19.3857C30.6433 19.8089 29.4796 20.0205 28.21 20.0205C27.6091 20.0205 26.9871 19.974 26.3438 19.8809C25.7006 19.7962 25.0574 19.6608 24.4141 19.4746C23.7709 19.2884 23.1361 19.0599 22.5098 18.7891C21.892 18.5098 21.2996 18.1797 20.7325 17.7988C20.0639 18.459 19.2895 18.9753 18.4093 19.3477C17.5375 19.7116 16.615 19.8936 15.6417 19.8936C15.1169 19.8936 14.6261 19.8343 14.169 19.7158C13.712 19.5973 13.3142 19.4281 12.9757 19.208C12.6456 18.988 12.3832 18.7214 12.1886 18.4082C12.0024 18.0951 11.9093 17.748 11.9093 17.3672C11.9093 17.0371 11.9897 16.7282 12.1505 16.4404C12.3197 16.1527 12.5525 15.8988 12.8487 15.6787C13.1534 15.4587 13.5131 15.2852 13.9278 15.1582C14.351 15.0312 14.8123 14.9678 15.3116 14.9678C16.7843 14.9678 18.5277 15.5094 20.5421 16.5928C20.9145 16.1273 21.2192 15.6025 21.4561 15.0186C21.7185 14.3669 21.9216 13.6982 22.0655 13.0127C22.2178 12.3187 22.349 11.6289 22.4591 10.9434C22.5776 10.2578 22.696 9.58919 22.8145 8.9375C22.9415 8.28581 23.1108 7.6722 23.3223 7.09668C23.5424 6.52116 23.8259 5.99642 24.1729 5.52246C24.5284 5.04004 24.9897 4.62956 25.5567 4.29102C25.6414 4.2487 25.7175 4.22754 25.7852 4.22754C25.9037 4.22754 26.0137 4.26986 26.1153 4.35449C26.2253 4.43913 26.2803 4.55762 26.2803 4.70996C26.2803 4.8877 26.1999 5.02311 26.0391 5.11621C25.5906 5.37858 25.2224 5.70866 24.9346 6.10645C24.6553 6.49577 24.4226 6.93587 24.2364 7.42676C24.0502 7.91764 23.9021 8.44661 23.7921 9.01367C23.682 9.58073 23.5762 10.1732 23.4747 10.791C23.3901 11.2988 23.297 11.832 23.1954 12.3906C23.0938 12.9408 22.9669 13.4909 22.8145 14.041C22.6622 14.5827 22.4675 15.1159 22.2305 15.6406C22.002 16.1569 21.7185 16.6351 21.38 17.0752C21.3969 17.0837 21.4053 17.0921 21.4053 17.1006C21.4138 17.1006 21.4265 17.1048 21.4434 17.1133C22.5183 17.7565 23.6355 18.2432 24.795 18.5732C25.9545 18.9033 27.0886 19.0684 28.1973 19.0684C29.3992 19.0684 30.474 18.8695 31.422 18.4717C32.3783 18.0739 33.1866 17.5407 33.8468 16.8721C34.5069 16.195 35.0105 15.4079 35.3575 14.5107C35.7045 13.6136 35.878 12.6657 35.878 11.667C35.878 10.6514 35.7087 9.70768 35.3702 8.83594C35.0317 7.95573 34.5662 7.15592 33.9737 6.43652C33.3897 5.71712 32.6915 5.07812 31.879 4.51953C31.0749 3.96094 30.2032 3.49544 29.2637 3.12305C28.3328 2.74219 27.351 2.45443 26.3184 2.25977C25.2943 2.05664 24.266 1.95508 23.2335 1.95508C21.8455 1.95508 20.5759 2.07357 19.4249 2.31055C18.2823 2.53906 17.2963 2.8776 16.4669 3.32617C15.6459 3.77474 15.0069 4.32487 14.5499 4.97656C14.0928 5.62826 13.8643 6.36882 13.8643 7.19824C13.8643 7.6722 13.932 8.09115 14.0675 8.45508C14.2113 8.81901 14.3891 9.13639 14.6007 9.40723C14.8207 9.6696 15.0577 9.89388 15.3116 10.0801C15.5655 10.2663 15.8025 10.4186 16.0225 10.5371C16.2426 10.6471 16.4288 10.7275 16.5811 10.7783C16.7419 10.8291 16.835 10.8587 16.8604 10.8672C16.9705 10.8926 17.0551 10.9518 17.1143 11.0449C17.182 11.1296 17.2159 11.2269 17.2159 11.3369C17.2159 11.4808 17.1651 11.5908 17.0636 11.667C16.962 11.7432 16.852 11.7812 16.7335 11.7812C16.5642 11.7812 16.3526 11.7432 16.0987 11.667C15.8448 11.5824 15.574 11.4596 15.2862 11.2988C15.0069 11.1296 14.7234 10.9222 14.4356 10.6768C14.1563 10.4229 13.9024 10.1266 13.6739 9.78809C13.4454 9.44954 13.2592 9.06445 13.1153 8.63281C12.9799 8.20117 12.9122 7.72298 12.9122 7.19824C12.9122 6.24186 13.1534 5.38281 13.6358 4.62109C14.1267 3.85091 14.8165 3.19922 15.7052 2.66602C16.5938 2.13281 17.656 1.72233 18.8917 1.43457C20.1358 1.14681 21.5154 1.00293 23.0303 1.00293ZM19.8565 17.3164C18.9763 16.8509 18.1596 16.4997 17.4063 16.2627C16.6531 16.0257 15.9633 15.9072 15.337 15.9072C14.9815 15.9072 14.6514 15.9495 14.3468 16.0342C14.0505 16.1104 13.7924 16.2161 13.5723 16.3516C13.3523 16.487 13.1788 16.6436 13.0518 16.8213C12.9249 16.999 12.8614 17.1852 12.8614 17.3799C12.8614 17.5661 12.9164 17.7523 13.0264 17.9385C13.1449 18.1247 13.3184 18.2897 13.547 18.4336C13.7839 18.5775 14.0759 18.696 14.4229 18.7891C14.7699 18.8822 15.1762 18.9287 15.6417 18.9287C16.4373 18.9287 17.1947 18.7891 17.9141 18.5098C18.642 18.222 19.2895 17.8242 19.8565 17.3164ZM39.5348 14.46C39.5009 14.6885 39.4586 14.9043 39.4078 15.1074C39.357 15.3021 39.3062 15.4756 39.2555 15.6279C39.2131 15.7718 39.1751 15.8903 39.1412 15.9834C39.1074 16.0765 39.0862 16.1273 39.0777 16.1357C38.9931 16.3304 38.845 16.4277 38.6334 16.4277C38.5149 16.4277 38.4049 16.3854 38.3033 16.3008C38.2018 16.2077 38.151 16.0934 38.151 15.958C38.151 15.9072 38.1594 15.8691 38.1764 15.8438C38.1933 15.8184 38.2187 15.7676 38.2525 15.6914C38.2864 15.6152 38.3287 15.4883 38.3795 15.3105C38.4303 15.1328 38.4937 14.8577 38.5699 14.4854C38.426 14.4854 38.2779 14.4811 38.1256 14.4727C37.9732 14.4642 37.8336 14.4346 37.7066 14.3838C37.5712 14.333 37.4612 14.2526 37.3766 14.1426C37.2919 14.0326 37.2496 13.8802 37.2496 13.6855C37.2496 13.5417 37.2919 13.347 37.3766 13.1016C37.4527 12.8561 37.5585 12.6149 37.6939 12.3779C37.8294 12.141 37.9817 11.9378 38.151 11.7686C38.3202 11.5908 38.4895 11.502 38.6588 11.502C38.8534 11.502 39.01 11.5739 39.1285 11.7178C39.2555 11.8617 39.3528 12.0394 39.4205 12.251C39.4882 12.4541 39.5348 12.6699 39.5602 12.8984C39.594 13.127 39.6109 13.3258 39.6109 13.4951C39.7548 13.4951 39.8945 13.4951 40.0299 13.4951C40.1738 13.4867 40.3092 13.4824 40.4361 13.4824C40.9185 13.4824 41.2867 13.5882 41.5406 13.7998C41.7945 14.0114 41.9215 14.3584 41.9215 14.8408C41.9215 15.0355 41.9088 15.2386 41.8834 15.4502C41.858 15.6618 41.8284 15.8818 41.7945 16.1104C41.7607 16.3304 41.731 16.5505 41.7057 16.7705C41.6803 16.9906 41.6676 17.2064 41.6676 17.418C41.6676 17.7227 41.7099 17.9766 41.7945 18.1797C41.8792 18.3743 41.985 18.5309 42.1119 18.6494C42.2389 18.7679 42.3743 18.8525 42.5182 18.9033C42.662 18.9456 42.7932 18.9668 42.9117 18.9668C43.2756 18.9668 43.6184 18.8483 43.94 18.6113C44.2616 18.3743 44.5579 18.0908 44.8287 17.7607C45.0995 17.4222 45.3407 17.0667 45.5523 16.6943C45.7724 16.3219 45.9544 15.9961 46.0982 15.7168C46.1406 15.6406 46.1998 15.5814 46.276 15.5391C46.3521 15.4967 46.4325 15.4756 46.5172 15.4756C46.6695 15.4756 46.788 15.5264 46.8727 15.6279C46.9573 15.721 46.9996 15.8268 46.9996 15.9453C46.9996 16.0299 46.9827 16.1061 46.9488 16.1738C46.7542 16.5208 46.5256 16.9144 46.2633 17.3545C46.0094 17.7861 45.7174 18.1924 45.3873 18.5732C45.0572 18.9541 44.6848 19.2757 44.2701 19.5381C43.8639 19.8005 43.4153 19.9316 42.9244 19.9316C42.6197 19.9316 42.332 19.8724 42.0611 19.7539C41.7903 19.6439 41.5533 19.4831 41.3502 19.2715C41.1555 19.0514 40.999 18.7848 40.8805 18.4717C40.762 18.1501 40.7027 17.7904 40.7027 17.3926C40.7027 16.9694 40.745 16.5505 40.8297 16.1357C40.9143 15.7126 40.9566 15.3105 40.9566 14.9297C40.9566 14.7689 40.9185 14.6504 40.8424 14.5742C40.7747 14.4896 40.6181 14.4473 40.3727 14.4473C40.2542 14.4473 40.123 14.4473 39.9791 14.4473C39.8437 14.4473 39.6956 14.4515 39.5348 14.46ZM38.6842 13.5205C38.6842 13.4613 38.6799 13.3851 38.6715 13.292C38.6715 13.1904 38.663 13.0931 38.6461 13C38.6376 12.9069 38.6207 12.8265 38.5953 12.7588C38.5784 12.6911 38.5572 12.6572 38.5318 12.6572C38.5064 12.6572 38.4726 12.6911 38.4303 12.7588C38.3964 12.818 38.3583 12.8942 38.316 12.9873C38.2737 13.0719 38.2356 13.165 38.2018 13.2666C38.1679 13.3682 38.1425 13.4528 38.1256 13.5205H38.6842ZM48.1173 19.3096C48.1173 19.5042 48.0496 19.665 47.9142 19.792C47.7872 19.9274 47.6264 19.9951 47.4317 19.9951C47.2371 19.9951 47.072 19.9274 46.9366 19.792C46.8097 19.665 46.7462 19.5042 46.7462 19.3096C46.7462 19.1234 46.8097 18.9668 46.9366 18.8398C47.072 18.7044 47.2371 18.6367 47.4317 18.6367C47.6264 18.6367 47.7872 18.7044 47.9142 18.8398C48.0496 18.9668 48.1173 19.1234 48.1173 19.3096ZM70.5636 0C70.7668 0 70.9445 0.0888672 71.0968 0.266602C71.2492 0.444336 71.3253 0.664388 71.3253 0.926758C71.3253 1.28223 71.1815 1.68001 70.8937 2.12012C70.6144 2.55176 70.2082 3.00456 69.675 3.47852C69.5819 3.95247 69.5015 4.49414 69.4337 5.10352C69.366 5.70443 69.3322 6.38997 69.3322 7.16016C69.3322 8.34505 69.2941 9.50033 69.2179 10.626C69.1418 11.7516 68.9979 12.8096 68.7863 13.7998C68.5747 14.79 68.2742 15.6999 67.8849 16.5293C67.5041 17.3587 67.0005 18.0739 66.3742 18.6748C65.7563 19.2673 65.0031 19.7285 64.1144 20.0586C63.2257 20.3971 62.172 20.5664 60.9533 20.5664C59.9377 20.5664 59.0321 20.4479 58.2365 20.2109C57.4409 19.974 56.7638 19.6481 56.2052 19.2334C55.6551 18.8102 55.2319 18.3193 54.9357 17.7607C54.6479 17.1937 54.5041 16.5801 54.5041 15.9199C54.5041 15.2598 54.6437 14.6504 54.923 14.0918C55.2023 13.5247 55.5789 13.0339 56.0529 12.6191C56.5268 12.196 57.077 11.8659 57.7033 11.6289C58.338 11.3919 59.0109 11.2734 59.7218 11.2734C59.8319 11.2734 59.9419 11.2777 60.0519 11.2861C60.1704 11.2861 60.2762 11.3031 60.3693 11.3369C60.4624 11.3623 60.5386 11.4131 60.5978 11.4893C60.6655 11.557 60.6994 11.6543 60.6994 11.7812C60.6994 11.9167 60.6486 12.0309 60.547 12.124C60.4539 12.2087 60.3439 12.251 60.2169 12.251C60.1323 12.251 60.0477 12.251 59.963 12.251C59.8869 12.2425 59.8065 12.2383 59.7218 12.2383C59.1463 12.2383 58.6004 12.3314 58.0841 12.5176C57.5679 12.7038 57.1151 12.9619 56.7257 13.292C56.3364 13.6221 56.0275 14.0114 55.799 14.46C55.5705 14.9085 55.4562 15.3952 55.4562 15.9199C55.4562 16.3854 55.5408 16.8001 55.7101 17.1641C55.8794 17.528 56.1079 17.8496 56.3957 18.1289C56.6834 18.3997 57.0135 18.6325 57.3859 18.8271C57.7668 19.0218 58.1645 19.1784 58.5793 19.2969C58.994 19.4154 59.4129 19.5042 59.8361 19.5635C60.2677 19.6143 60.6782 19.6396 61.0675 19.6396C62.1424 19.6396 63.0692 19.4873 63.8478 19.1826C64.6265 18.8779 65.2824 18.4505 65.8156 17.9004C66.3572 17.3503 66.7931 16.6943 67.1232 15.9326C67.4533 15.1624 67.7114 14.3161 67.8976 13.3936C68.0838 12.4626 68.2065 11.4723 68.2658 10.4229C68.3335 9.36491 68.3716 8.27311 68.38 7.14746C68.3885 6.60579 68.4097 6.07682 68.4435 5.56055C68.4774 5.03581 68.5239 4.56185 68.5832 4.13867C68.2446 4.31641 67.8722 4.48991 67.466 4.65918C67.0597 4.82845 66.6492 5.00618 66.2345 5.19238C65.8283 5.37012 65.4305 5.56478 65.0412 5.77637C64.6518 5.97949 64.3048 6.20801 64.0002 6.46191C63.7039 6.70736 63.4627 6.98665 63.2765 7.2998C63.0988 7.60449 63.0099 7.94727 63.0099 8.32812C63.0099 8.67513 63.0692 8.97982 63.1877 9.24219C63.3061 9.49609 63.4543 9.71191 63.632 9.88965C63.8097 10.0674 64.0044 10.2155 64.216 10.334C64.4276 10.444 64.6222 10.5329 64.8 10.6006C64.9862 10.6598 65.1427 10.7064 65.2697 10.7402C65.4051 10.7656 65.4813 10.7783 65.4982 10.7783C65.6421 10.8206 65.7394 10.8799 65.7902 10.9561C65.841 11.0238 65.8664 11.1084 65.8664 11.21C65.8664 11.3538 65.824 11.4723 65.7394 11.5654C65.6548 11.6501 65.549 11.6924 65.422 11.6924C65.4051 11.6924 65.367 11.6924 65.3078 11.6924C65.257 11.6839 65.2231 11.6755 65.2062 11.667C64.9269 11.6077 64.6053 11.5062 64.2414 11.3623C63.8774 11.21 63.5304 11.0026 63.2003 10.7402C62.8787 10.4694 62.6037 10.1309 62.3752 9.72461C62.1551 9.31836 62.0451 8.82324 62.0451 8.23926C62.0451 7.72298 62.172 7.26595 62.4259 6.86816C62.6798 6.47038 63.0099 6.11491 63.4162 5.80176C63.8309 5.48861 64.2879 5.20931 64.7873 4.96387C65.2951 4.71842 65.7987 4.48991 66.298 4.27832C66.7974 4.05827 67.2671 3.84668 67.7072 3.64355C68.1473 3.44043 68.507 3.22038 68.7863 2.9834C69.0233 1.95931 69.2983 1.20605 69.6115 0.723633C69.9246 0.241211 70.242 0 70.5636 0ZM71.8083 14.9805C71.7575 15.1159 71.694 15.2682 71.6178 15.4375C71.5501 15.6068 71.4697 15.7845 71.3766 15.9707C71.3005 16.1146 71.2201 16.2288 71.1354 16.3135C71.0592 16.3896 70.9577 16.4277 70.8307 16.4277C70.6869 16.4277 70.5726 16.3854 70.488 16.3008C70.4033 16.2077 70.361 16.1019 70.361 15.9834C70.361 15.9411 70.3652 15.9072 70.3737 15.8818C70.3822 15.848 70.4033 15.7972 70.4372 15.7295C70.6572 15.3063 70.818 14.9382 70.9196 14.625C71.0296 14.3034 71.1185 13.9691 71.1862 13.6221C71.127 13.4274 71.0846 13.2624 71.0592 13.127C71.0339 12.9915 71.0212 12.8519 71.0212 12.708C71.0212 12.4287 71.0804 12.2044 71.1989 12.0352C71.3174 11.8574 71.4824 11.7686 71.694 11.7686C71.8887 11.7686 72.041 11.8532 72.151 12.0225C72.2695 12.1917 72.3288 12.3991 72.3288 12.6445C72.3288 12.7799 72.3161 12.9154 72.2907 13.0508C72.2653 13.1862 72.2315 13.3555 72.1891 13.5586C72.3838 14.041 72.5785 14.4684 72.7731 14.8408C72.9678 15.2132 73.1413 15.556 73.2936 15.8691C73.446 16.1738 73.5687 16.4616 73.6618 16.7324C73.7634 17.0033 73.8141 17.2741 73.8141 17.5449C73.8141 17.9004 73.7422 18.2389 73.5983 18.5605C73.4544 18.8822 73.2175 19.153 72.8874 19.373C72.9297 19.3815 72.972 19.3857 73.0143 19.3857C73.0566 19.3857 73.099 19.3857 73.1413 19.3857C73.6237 19.3857 74.068 19.2757 74.4743 19.0557C74.8805 18.8356 75.2445 18.5521 75.5661 18.2051C75.8962 17.8496 76.1882 17.4603 76.4421 17.0371C76.696 16.6055 76.916 16.1781 77.1022 15.7549C77.1869 15.5602 77.3053 15.4629 77.4577 15.4629C77.6016 15.4629 77.7116 15.5137 77.7878 15.6152C77.8724 15.7168 77.9147 15.8268 77.9147 15.9453C77.9147 16.013 77.902 16.0765 77.8766 16.1357C77.7835 16.3643 77.6608 16.6266 77.5085 16.9229C77.3646 17.2106 77.1869 17.5111 76.9753 17.8242C76.7721 18.1289 76.5352 18.4294 76.2643 18.7256C75.9935 19.0218 75.6888 19.2884 75.3503 19.5254C75.0202 19.7539 74.6563 19.9359 74.2585 20.0713C73.8607 20.2152 73.4248 20.2871 72.9509 20.2871C72.3838 20.2871 71.8548 20.1855 71.3639 19.9824C70.8815 19.7878 70.488 19.4619 70.1833 19.0049C70.1325 18.9287 70.1071 18.8483 70.1071 18.7637C70.1071 18.6367 70.1537 18.5267 70.2467 18.4336C70.3483 18.332 70.4626 18.2812 70.5895 18.2812C70.7249 18.2812 70.8392 18.3278 70.9323 18.4209C70.9408 18.4378 70.9704 18.4674 71.0212 18.5098C71.0719 18.5436 71.1312 18.5859 71.1989 18.6367C71.2751 18.679 71.3597 18.7171 71.4528 18.751C71.5544 18.7848 71.6559 18.8018 71.7575 18.8018C71.9606 18.8018 72.1299 18.7594 72.2653 18.6748C72.4092 18.5902 72.5234 18.4886 72.6081 18.3701C72.6927 18.2432 72.752 18.112 72.7858 17.9766C72.8281 17.8327 72.8493 17.71 72.8493 17.6084C72.8493 17.3968 72.8154 17.1852 72.7477 16.9736C72.68 16.762 72.5912 16.5505 72.4811 16.3389C72.3796 16.1273 72.2653 15.9115 72.1384 15.6914C72.0199 15.4629 71.9098 15.2259 71.8083 14.9805ZM86.2941 16.1357C86.2603 16.2035 86.1883 16.3473 86.0783 16.5674C85.9767 16.779 85.8413 17.0244 85.6721 17.3037C85.5113 17.583 85.3208 17.875 85.1008 18.1797C84.8807 18.4844 84.6353 18.7637 84.3644 19.0176C84.0936 19.2715 83.8016 19.4831 83.4885 19.6523C83.1753 19.8132 82.8452 19.8936 82.4982 19.8936C82.0073 19.8936 81.5926 19.737 81.2541 19.4238C80.924 19.1107 80.6828 18.7171 80.5305 18.2432C80.2427 18.7256 79.8999 19.1107 79.5021 19.3984C79.1043 19.6777 78.7066 19.8174 78.3088 19.8174C77.9956 19.8174 77.7121 19.7624 77.4582 19.6523C77.2043 19.5339 76.9885 19.373 76.8107 19.1699C76.633 18.9583 76.4933 18.7129 76.3918 18.4336C76.2987 18.1543 76.2521 17.8496 76.2521 17.5195C76.2521 16.8594 76.3622 16.2796 76.5822 15.7803C76.8107 15.2725 77.0985 14.8493 77.4455 14.5107C77.7925 14.1722 78.1734 13.9183 78.5881 13.749C79.0113 13.5798 79.4175 13.4951 79.8068 13.4951C80.0692 13.4951 80.3104 13.5332 80.5305 13.6094C80.7505 13.6771 80.9367 13.7533 81.0891 13.8379C81.2499 13.9225 81.3726 14.0029 81.4572 14.0791C81.5418 14.1468 81.5884 14.1849 81.5969 14.1934C81.69 14.3034 81.7365 14.4176 81.7365 14.5361C81.7365 14.6631 81.69 14.7773 81.5969 14.8789C81.5038 14.972 81.3937 15.0186 81.2668 15.0186C81.1314 15.0186 81.0171 14.972 80.924 14.8789C80.9071 14.862 80.869 14.8324 80.8098 14.79C80.7505 14.7393 80.6701 14.6885 80.5685 14.6377C80.467 14.5869 80.3443 14.5446 80.2004 14.5107C80.065 14.4684 79.9084 14.4473 79.7307 14.4473C79.4683 14.4473 79.189 14.5065 78.8928 14.625C78.5965 14.7435 78.3257 14.9297 78.0803 15.1836C77.8348 15.429 77.6275 15.7422 77.4582 16.123C77.2974 16.4954 77.217 16.9398 77.217 17.4561C77.217 17.6169 77.2339 17.7819 77.2678 17.9512C77.3016 18.112 77.3609 18.2601 77.4455 18.3955C77.5301 18.5309 77.6444 18.641 77.7883 18.7256C77.9321 18.8102 78.1099 18.8525 78.3215 18.8525C78.4738 18.8525 78.6473 18.8018 78.842 18.7002C79.0451 18.5986 79.2355 18.4421 79.4133 18.2305C79.5995 18.0189 79.7645 17.7523 79.9084 17.4307C80.0607 17.109 80.1665 16.7282 80.2258 16.2881C80.2427 16.1696 80.2977 16.0723 80.3908 15.9961C80.4839 15.9115 80.5939 15.8691 80.7209 15.8691C80.8394 15.8691 80.9409 15.9157 81.0256 16.0088C81.1187 16.1019 81.1695 16.2077 81.1779 16.3262C81.1864 16.487 81.2033 16.7155 81.2287 17.0117C81.2541 17.2995 81.3091 17.5872 81.3937 17.875C81.4868 18.1628 81.6223 18.4124 81.8 18.624C81.9777 18.8356 82.2232 18.9414 82.5363 18.9414C82.7394 18.9414 82.9383 18.8864 83.133 18.7764C83.3361 18.6663 83.5308 18.5225 83.717 18.3447C83.9116 18.1585 84.0936 17.9512 84.2629 17.7227C84.4406 17.4857 84.6014 17.2487 84.7453 17.0117C84.8892 16.7747 85.0161 16.5462 85.1262 16.3262C85.2362 16.1061 85.3293 15.9157 85.4055 15.7549C85.4478 15.6618 85.507 15.5898 85.5832 15.5391C85.6678 15.4883 85.7567 15.4629 85.8498 15.4629C85.9937 15.4629 86.1079 15.5179 86.1926 15.6279C86.2857 15.7295 86.3322 15.8395 86.3322 15.958C86.3322 16.0173 86.3195 16.0765 86.2941 16.1357ZM95.6003 16.1611C95.5749 16.2119 95.5199 16.3177 95.4353 16.4785C95.3506 16.6309 95.2406 16.8128 95.1052 17.0244C94.9698 17.2275 94.809 17.4476 94.6228 17.6846C94.4366 17.9131 94.2334 18.1247 94.0134 18.3193C93.7933 18.514 93.5564 18.6748 93.3025 18.8018C93.0486 18.9287 92.7862 18.9922 92.5154 18.9922C92.0752 18.9922 91.7029 18.916 91.3982 18.7637C91.0935 18.6029 90.8438 18.4251 90.6491 18.2305C90.5137 18.5267 90.3487 18.7975 90.154 19.043C89.9594 19.2884 89.7435 19.5 89.5066 19.6777C89.2696 19.8639 89.0157 20.0078 88.7448 20.1094C88.4825 20.2109 88.2116 20.2617 87.9323 20.2617C87.4161 20.2617 86.976 20.1094 86.612 19.8047C86.2481 19.5 85.9434 19.0938 85.698 18.5859C85.461 18.0697 85.2748 17.473 85.1394 16.7959C85.004 16.1188 84.8982 15.4079 84.822 14.6631C84.7543 13.9183 84.712 13.165 84.695 12.4033C84.6781 11.6416 84.6696 10.918 84.6696 10.2324C84.6696 8.92057 84.7077 7.78646 84.7839 6.83008C84.8601 5.86523 84.9616 5.0485 85.0886 4.37988C85.224 3.7028 85.3764 3.1569 85.5456 2.74219C85.7234 2.31901 85.9096 1.99316 86.1042 1.76465C86.2989 1.52767 86.4978 1.36686 86.7009 1.28223C86.904 1.19759 87.1029 1.15527 87.2976 1.15527C87.6107 1.15527 87.8858 1.24837 88.1228 1.43457C88.3682 1.62077 88.5713 1.88314 88.7321 2.22168C88.9014 2.55176 89.0284 2.95378 89.113 3.42773C89.1976 3.90169 89.24 4.4222 89.24 4.98926C89.24 5.89486 89.1426 6.83008 88.948 7.79492C88.7533 8.75977 88.4994 9.72461 88.1862 10.6895C87.8816 11.6458 87.5388 12.5895 87.1579 13.5205C86.7771 14.443 86.4004 15.319 86.028 16.1484C86.0788 16.5632 86.155 16.9609 86.2566 17.3418C86.3581 17.7142 86.4893 18.0485 86.6501 18.3447C86.8109 18.6325 87.0014 18.8652 87.2214 19.043C87.4415 19.2122 87.6954 19.2969 87.9831 19.2969C88.2709 19.2969 88.5417 19.2165 88.7956 19.0557C89.0495 18.8864 89.2696 18.6706 89.4558 18.4082C89.642 18.1374 89.7859 17.8327 89.8874 17.4941C89.9974 17.1556 90.0525 16.8086 90.0525 16.4531C90.0525 16.2161 90.0271 15.9792 89.9763 15.7422C89.934 15.4967 89.862 15.2809 89.7605 15.0947C89.6674 14.9001 89.5489 14.7435 89.405 14.625C89.2611 14.5065 89.0876 14.4473 88.8845 14.4473C88.7321 14.4473 88.6137 14.4811 88.529 14.5488C88.4444 14.6081 88.3809 14.68 88.3386 14.7646C88.2963 14.8408 88.2709 14.917 88.2624 14.9932C88.254 15.0693 88.2497 15.1201 88.2497 15.1455C88.2497 15.264 88.2751 15.3825 88.3259 15.501C88.3767 15.6195 88.474 15.7253 88.6179 15.8184C88.7618 15.9199 88.8337 16.0596 88.8337 16.2373C88.8337 16.3812 88.7829 16.4954 88.6814 16.5801C88.5883 16.6647 88.4825 16.707 88.364 16.707C88.1947 16.707 88.0424 16.6562 87.907 16.5547C87.78 16.4531 87.67 16.3262 87.5769 16.1738C87.4838 16.013 87.4118 15.8438 87.3611 15.666C87.3103 15.4883 87.2849 15.3232 87.2849 15.1709C87.2849 14.9255 87.3272 14.7012 87.4118 14.498C87.4965 14.2865 87.6107 14.1087 87.7546 13.9648C87.907 13.8125 88.0762 13.6982 88.2624 13.6221C88.4571 13.5374 88.6602 13.4951 88.8718 13.4951C89.2357 13.4951 89.5489 13.5798 89.8112 13.749C90.0821 13.9183 90.3064 14.1426 90.4841 14.4219C90.6618 14.7012 90.793 15.0186 90.8777 15.374C90.9623 15.7295 91.0046 16.0892 91.0046 16.4531C91.0046 16.6647 90.9919 16.8721 90.9665 17.0752C91.0004 17.1429 91.0554 17.2318 91.1316 17.3418C91.2077 17.4518 91.3093 17.5576 91.4362 17.6592C91.5632 17.7607 91.7155 17.8496 91.8933 17.9258C92.071 18.002 92.2784 18.04 92.5154 18.04C92.7185 18.04 92.9258 17.9639 93.1374 17.8115C93.3575 17.6507 93.5648 17.4561 93.7595 17.2275C93.9626 16.9906 94.1488 16.7409 94.3181 16.4785C94.4874 16.2077 94.627 15.958 94.737 15.7295C94.7793 15.6449 94.8386 15.5814 94.9148 15.5391C94.9909 15.4883 95.0756 15.4629 95.1687 15.4629C95.3126 15.4629 95.4268 15.5137 95.5114 15.6152C95.6045 15.7168 95.6511 15.8311 95.6511 15.958C95.6511 16.0088 95.6342 16.0765 95.6003 16.1611ZM85.7868 14.5234C86.0746 13.8125 86.3666 13.0677 86.6628 12.2891C86.959 11.502 87.2256 10.7021 87.4626 9.88965C87.6996 9.07715 87.8943 8.25618 88.0466 7.42676C88.1989 6.59733 88.2751 5.7806 88.2751 4.97656C88.2751 4.67188 88.2582 4.35449 88.2243 4.02441C88.1989 3.68587 88.1482 3.37695 88.072 3.09766C87.9958 2.81836 87.89 2.58561 87.7546 2.39941C87.6277 2.21322 87.4626 2.12012 87.2595 2.12012C87.1918 2.12012 87.1029 2.16667 86.9929 2.25977C86.8913 2.3444 86.7813 2.50098 86.6628 2.72949C86.5443 2.94954 86.4258 3.25846 86.3073 3.65625C86.1889 4.05404 86.0788 4.56185 85.9773 5.17969C85.8842 5.78906 85.8038 6.52539 85.7361 7.38867C85.6768 8.25195 85.6472 9.26758 85.6472 10.4355C85.6472 10.8249 85.6514 11.2227 85.6599 11.6289C85.6683 12.0267 85.6768 12.4076 85.6853 12.7715C85.7022 13.1354 85.7191 13.4697 85.7361 13.7744C85.753 14.0791 85.7699 14.3288 85.7868 14.5234ZM95.7532 18.2812C95.9309 18.5267 96.1594 18.7256 96.4387 18.8779C96.718 19.0218 97.0608 19.0938 97.467 19.0938C97.8818 19.0938 98.2584 18.9964 98.5969 18.8018C98.9355 18.5986 99.2444 18.3363 99.5237 18.0146C99.803 17.693 100.053 17.3333 100.273 16.9355C100.493 16.5378 100.692 16.14 100.869 15.7422C100.912 15.6491 100.971 15.5814 101.047 15.5391C101.123 15.4883 101.208 15.4629 101.301 15.4629C101.445 15.4629 101.559 15.5137 101.644 15.6152C101.737 15.7168 101.783 15.8268 101.783 15.9453C101.783 15.9876 101.779 16.0257 101.771 16.0596C101.762 16.085 101.75 16.1146 101.733 16.1484C101.149 17.4349 100.51 18.404 99.8157 19.0557C99.1301 19.7074 98.3515 20.0417 97.4797 20.0586C96.9211 20.0586 96.4387 19.9486 96.0325 19.7285C95.6262 19.5169 95.2919 19.2419 95.0295 18.9033C94.7672 18.5563 94.5725 18.167 94.4456 17.7354C94.3186 17.3037 94.2551 16.8721 94.2551 16.4404C94.2551 16.0088 94.3059 15.611 94.4075 15.2471C94.5175 14.8831 94.6698 14.5658 94.8645 14.2949C95.0676 14.0241 95.3046 13.8125 95.5754 13.6602C95.8547 13.5078 96.1594 13.4316 96.4895 13.4316C96.6842 13.4316 96.8746 13.474 97.0608 13.5586C97.2555 13.6348 97.429 13.749 97.5813 13.9014C97.7336 14.0452 97.8564 14.223 97.9495 14.4346C98.0426 14.6462 98.0891 14.8874 98.0891 15.1582C98.0891 15.5052 98.0299 15.8311 97.9114 16.1357C97.7929 16.4404 97.6278 16.724 97.4163 16.9863C97.2131 17.2487 96.9677 17.4899 96.6799 17.71C96.3922 17.93 96.0833 18.1204 95.7532 18.2812ZM95.3723 17.4561C95.6347 17.346 95.8717 17.2064 96.0833 17.0371C96.3033 16.8678 96.4895 16.6816 96.6418 16.4785C96.7942 16.2754 96.9127 16.0638 96.9973 15.8438C97.0819 15.6152 97.1243 15.3867 97.1243 15.1582C97.1243 14.9043 97.0608 14.7139 96.9338 14.5869C96.8069 14.4515 96.6588 14.3838 96.4895 14.3838C96.261 14.3838 96.0663 14.4473 95.9055 14.5742C95.7447 14.7012 95.6135 14.8662 95.512 15.0693C95.4104 15.2725 95.3342 15.501 95.2834 15.7549C95.2411 16.0003 95.22 16.2458 95.22 16.4912C95.22 16.6436 95.2327 16.8044 95.2581 16.9736C95.2919 17.1429 95.33 17.3037 95.3723 17.4561ZM107.586 16.1611C107.493 16.3558 107.374 16.5885 107.23 16.8594C107.095 17.1217 106.938 17.3968 106.76 17.6846C106.583 17.9723 106.384 18.2601 106.164 18.5479C105.944 18.8271 105.703 19.0811 105.44 19.3096C105.186 19.5296 104.911 19.7074 104.615 19.8428C104.327 19.9867 104.018 20.0586 103.688 20.0586C103.18 20.0586 102.745 19.902 102.381 19.5889C102.017 19.2757 101.708 18.8652 101.454 18.3574C101.2 17.8496 100.993 17.2741 100.832 16.6309C100.679 15.9792 100.561 15.319 100.476 14.6504C100.392 13.9733 100.332 13.3174 100.299 12.6826C100.273 12.0479 100.26 11.485 100.26 10.9941C100.26 10.2832 100.282 9.54688 100.324 8.78516C100.375 8.02344 100.451 7.27865 100.552 6.55078C100.654 5.82292 100.781 5.13314 100.933 4.48145C101.094 3.82975 101.28 3.25846 101.492 2.76758C101.712 2.27669 101.962 1.88737 102.241 1.59961C102.52 1.31185 102.838 1.16797 103.193 1.16797C103.472 1.16797 103.722 1.23568 103.942 1.37109C104.171 1.49805 104.361 1.70964 104.513 2.00586C104.666 2.30208 104.784 2.68717 104.869 3.16113C104.954 3.63509 104.996 4.21484 104.996 4.90039C104.996 5.74674 104.907 6.62272 104.729 7.52832C104.552 8.42546 104.31 9.33105 104.006 10.2451C103.701 11.1592 103.341 12.0732 102.927 12.9873C102.512 13.8929 102.067 14.7773 101.594 15.6406C101.805 16.7155 102.089 17.5618 102.444 18.1797C102.8 18.7891 103.227 19.0938 103.726 19.0938C104.065 19.0938 104.391 18.9626 104.704 18.7002C105.017 18.4294 105.305 18.112 105.567 17.748C105.83 17.3841 106.058 17.016 106.253 16.6436C106.456 16.2627 106.612 15.958 106.722 15.7295C106.765 15.6449 106.824 15.5814 106.9 15.5391C106.976 15.4883 107.061 15.4629 107.154 15.4629C107.298 15.4629 107.412 15.5137 107.497 15.6152C107.59 15.7168 107.636 15.8311 107.636 15.958C107.636 16.0088 107.62 16.0765 107.586 16.1611ZM101.225 11.0576C101.225 11.5993 101.238 12.1198 101.263 12.6191C101.289 13.1185 101.323 13.5967 101.365 14.0537C101.72 13.3682 102.059 12.6403 102.381 11.8701C102.702 11.0915 102.986 10.3086 103.231 9.52148C103.477 8.72591 103.671 7.9388 103.815 7.16016C103.968 6.37305 104.044 5.62402 104.044 4.91309C104.044 3.91439 103.963 3.19922 103.802 2.76758C103.642 2.33594 103.426 2.12012 103.155 2.12012C102.977 2.12012 102.804 2.24284 102.635 2.48828C102.474 2.73372 102.321 3.06803 102.177 3.49121C102.034 3.91439 101.902 4.41374 101.784 4.98926C101.665 5.56478 101.564 6.18262 101.479 6.84277C101.403 7.50293 101.34 8.19271 101.289 8.91211C101.247 9.63151 101.225 10.3467 101.225 11.0576ZM113.439 16.1611C113.346 16.3558 113.227 16.5885 113.083 16.8594C112.948 17.1217 112.791 17.3968 112.614 17.6846C112.436 17.9723 112.237 18.2601 112.017 18.5479C111.797 18.8271 111.556 19.0811 111.293 19.3096C111.039 19.5296 110.764 19.7074 110.468 19.8428C110.18 19.9867 109.871 20.0586 109.541 20.0586C109.033 20.0586 108.598 19.902 108.234 19.5889C107.87 19.2757 107.561 18.8652 107.307 18.3574C107.053 17.8496 106.846 17.2741 106.685 16.6309C106.533 15.9792 106.414 15.319 106.329 14.6504C106.245 13.9733 106.185 13.3174 106.152 12.6826C106.126 12.0479 106.114 11.485 106.114 10.9941C106.114 10.2832 106.135 9.54688 106.177 8.78516C106.228 8.02344 106.304 7.27865 106.406 6.55078C106.507 5.82292 106.634 5.13314 106.786 4.48145C106.947 3.82975 107.133 3.25846 107.345 2.76758C107.565 2.27669 107.815 1.88737 108.094 1.59961C108.373 1.31185 108.691 1.16797 109.046 1.16797C109.325 1.16797 109.575 1.23568 109.795 1.37109C110.024 1.49805 110.214 1.70964 110.366 2.00586C110.519 2.30208 110.637 2.68717 110.722 3.16113C110.807 3.63509 110.849 4.21484 110.849 4.90039C110.849 5.74674 110.76 6.62272 110.582 7.52832C110.405 8.42546 110.163 9.33105 109.859 10.2451C109.554 11.1592 109.194 12.0732 108.78 12.9873C108.365 13.8929 107.921 14.7773 107.447 15.6406C107.658 16.7155 107.942 17.5618 108.297 18.1797C108.653 18.7891 109.08 19.0938 109.579 19.0938C109.918 19.0938 110.244 18.9626 110.557 18.7002C110.87 18.4294 111.158 18.112 111.42 17.748C111.683 17.3841 111.911 17.016 112.106 16.6436C112.309 16.2627 112.465 15.958 112.575 15.7295C112.618 15.6449 112.677 15.5814 112.753 15.5391C112.829 15.4883 112.914 15.4629 113.007 15.4629C113.151 15.4629 113.265 15.5137 113.35 15.6152C113.443 15.7168 113.49 15.8311 113.49 15.958C113.49 16.0088 113.473 16.0765 113.439 16.1611ZM107.078 11.0576C107.078 11.5993 107.091 12.1198 107.116 12.6191C107.142 13.1185 107.176 13.5967 107.218 14.0537C107.574 13.3682 107.912 12.6403 108.234 11.8701C108.555 11.0915 108.839 10.3086 109.084 9.52148C109.33 8.72591 109.524 7.9388 109.668 7.16016C109.821 6.37305 109.897 5.62402 109.897 4.91309C109.897 3.91439 109.816 3.19922 109.656 2.76758C109.495 2.33594 109.279 2.12012 109.008 2.12012C108.83 2.12012 108.657 2.24284 108.488 2.48828C108.327 2.73372 108.174 3.06803 108.031 3.49121C107.887 3.91439 107.755 4.41374 107.637 4.98926C107.519 5.56478 107.417 6.18262 107.332 6.84277C107.256 7.50293 107.193 8.19271 107.142 8.91211C107.1 9.63151 107.078 10.3467 107.078 11.0576ZM121.882 16.1357C121.848 16.2035 121.776 16.3473 121.666 16.5674C121.564 16.779 121.429 17.0244 121.26 17.3037C121.099 17.583 120.908 17.875 120.688 18.1797C120.468 18.4844 120.223 18.7637 119.952 19.0176C119.681 19.2715 119.389 19.4831 119.076 19.6523C118.763 19.8132 118.433 19.8936 118.086 19.8936C117.595 19.8936 117.18 19.737 116.842 19.4238C116.512 19.1107 116.27 18.7171 116.118 18.2432C115.83 18.7256 115.487 19.1107 115.09 19.3984C114.692 19.6777 114.294 19.8174 113.896 19.8174C113.583 19.8174 113.3 19.7624 113.046 19.6523C112.792 19.5339 112.576 19.373 112.398 19.1699C112.22 18.9583 112.081 18.7129 111.979 18.4336C111.886 18.1543 111.84 17.8496 111.84 17.5195C111.84 16.8594 111.95 16.2796 112.17 15.7803C112.398 15.2725 112.686 14.8493 113.033 14.5107C113.38 14.1722 113.761 13.9183 114.176 13.749C114.599 13.5798 115.005 13.4951 115.394 13.4951C115.657 13.4951 115.898 13.5332 116.118 13.6094C116.338 13.6771 116.524 13.7533 116.677 13.8379C116.837 13.9225 116.96 14.0029 117.045 14.0791C117.129 14.1468 117.176 14.1849 117.184 14.1934C117.277 14.3034 117.324 14.4176 117.324 14.5361C117.324 14.6631 117.277 14.7773 117.184 14.8789C117.091 14.972 116.981 15.0186 116.854 15.0186C116.719 15.0186 116.605 14.972 116.512 14.8789C116.495 14.862 116.456 14.8324 116.397 14.79C116.338 14.7393 116.258 14.6885 116.156 14.6377C116.054 14.5869 115.932 14.5446 115.788 14.5107C115.652 14.4684 115.496 14.4473 115.318 14.4473C115.056 14.4473 114.776 14.5065 114.48 14.625C114.184 14.7435 113.913 14.9297 113.668 15.1836C113.422 15.429 113.215 15.7422 113.046 16.123C112.885 16.4954 112.804 16.9398 112.804 17.4561C112.804 17.6169 112.821 17.7819 112.855 17.9512C112.889 18.112 112.948 18.2601 113.033 18.3955C113.118 18.5309 113.232 18.641 113.376 18.7256C113.52 18.8102 113.697 18.8525 113.909 18.8525C114.061 18.8525 114.235 18.8018 114.429 18.7002C114.633 18.5986 114.823 18.4421 115.001 18.2305C115.187 18.0189 115.352 17.7523 115.496 17.4307C115.648 17.109 115.754 16.7282 115.813 16.2881C115.83 16.1696 115.885 16.0723 115.978 15.9961C116.071 15.9115 116.181 15.8691 116.308 15.8691C116.427 15.8691 116.528 15.9157 116.613 16.0088C116.706 16.1019 116.757 16.2077 116.765 16.3262C116.774 16.487 116.791 16.7155 116.816 17.0117C116.842 17.2995 116.897 17.5872 116.981 17.875C117.074 18.1628 117.21 18.4124 117.387 18.624C117.565 18.8356 117.811 18.9414 118.124 18.9414C118.327 18.9414 118.526 18.8864 118.72 18.7764C118.924 18.6663 119.118 18.5225 119.304 18.3447C119.499 18.1585 119.681 17.9512 119.85 17.7227C120.028 17.4857 120.189 17.2487 120.333 17.0117C120.477 16.7747 120.604 16.5462 120.714 16.3262C120.824 16.1061 120.917 15.9157 120.993 15.7549C121.035 15.6618 121.095 15.5898 121.171 15.5391C121.255 15.4883 121.344 15.4629 121.437 15.4629C121.581 15.4629 121.695 15.5179 121.78 15.6279C121.873 15.7295 121.92 15.8395 121.92 15.958C121.92 16.0173 121.907 16.0765 121.882 16.1357ZM144.48 1.25684C144.48 1.55306 144.4 1.84505 144.239 2.13281C144.078 2.42057 143.871 2.68717 143.617 2.93262C143.363 3.17806 143.075 3.40234 142.754 3.60547C142.441 3.80013 142.127 3.96094 141.814 4.08789C141.73 4.44336 141.662 4.84115 141.611 5.28125C141.56 5.71289 141.527 6.19531 141.51 6.72852C141.493 7.38867 141.467 8.0446 141.433 8.69629C141.4 9.34798 141.349 9.99544 141.281 10.6387C141.967 10.6133 142.716 10.5879 143.528 10.5625C144.341 10.5286 145.191 10.499 146.08 10.4736C146.969 10.4482 147.878 10.4271 148.809 10.4102C149.749 10.3932 150.684 10.3848 151.615 10.3848C151.683 9.0306 151.831 7.82878 152.059 6.7793C152.288 5.72982 152.584 4.84538 152.948 4.12598C153.32 3.40658 153.756 2.86068 154.256 2.48828C154.755 2.11589 155.309 1.92969 155.919 1.92969C156.02 1.92969 156.143 1.93815 156.287 1.95508C156.439 1.97201 156.587 2.00586 156.731 2.05664C156.875 2.09896 156.998 2.16667 157.099 2.25977C157.201 2.3444 157.252 2.46289 157.252 2.61523C157.252 2.65755 157.248 2.69987 157.239 2.74219C157.231 2.77604 157.214 2.81413 157.188 2.85645C157.095 3.00879 156.968 3.08496 156.807 3.08496C156.74 3.08496 156.685 3.0765 156.642 3.05957C156.609 3.03418 156.562 3.01302 156.503 2.99609C156.452 2.9707 156.384 2.94954 156.3 2.93262C156.215 2.90723 156.096 2.89453 155.944 2.89453C155.817 2.89453 155.652 2.91992 155.449 2.9707C155.254 3.01302 155.043 3.11882 154.814 3.28809C154.586 3.45736 154.349 3.70703 154.103 4.03711C153.866 4.35872 153.642 4.79883 153.43 5.35742C153.227 5.90755 153.045 6.5931 152.885 7.41406C152.732 8.23503 152.631 9.22526 152.58 10.3848C153.138 10.3932 153.689 10.4017 154.23 10.4102C154.772 10.4186 155.305 10.4313 155.83 10.4482C155.974 10.4482 156.084 10.499 156.16 10.6006C156.245 10.6937 156.287 10.8079 156.287 10.9434C156.287 11.0788 156.24 11.1888 156.147 11.2734C156.054 11.3581 155.944 11.4004 155.817 11.4004C155.648 11.4004 155.47 11.4004 155.284 11.4004C155.106 11.3919 154.89 11.3835 154.637 11.375C154.391 11.3665 154.099 11.3581 153.761 11.3496C153.422 11.3411 153.02 11.3369 152.555 11.3369C152.546 11.4723 152.542 11.6077 152.542 11.7432C152.542 11.8786 152.542 12.0182 152.542 12.1621C152.542 13.0931 152.576 13.9268 152.643 14.6631C152.72 15.3994 152.808 16.0511 152.91 16.6182C153.02 17.1852 153.138 17.6719 153.265 18.0781C153.392 18.4759 153.511 18.806 153.621 19.0684C153.731 19.3223 153.82 19.5127 153.888 19.6396C153.964 19.7581 154.002 19.8174 154.002 19.8174C154.061 19.902 154.091 19.9951 154.091 20.0967C154.091 20.2236 154.044 20.3337 153.951 20.4268C153.858 20.5283 153.744 20.5791 153.608 20.5791C153.447 20.5791 153.32 20.5114 153.227 20.376C153.21 20.3506 153.113 20.1855 152.935 19.8809C152.766 19.5762 152.58 19.098 152.377 18.4463C152.174 17.7861 151.987 16.944 151.818 15.9199C151.657 14.8874 151.577 13.6348 151.577 12.1621V11.3369C150.638 11.3369 149.694 11.3454 148.746 11.3623C147.798 11.3792 146.875 11.4004 145.978 11.4258C145.09 11.4512 144.235 11.4808 143.414 11.5146C142.601 11.54 141.852 11.5654 141.167 11.5908C141.006 12.7673 140.756 13.876 140.418 14.917C140.088 15.958 139.61 16.8721 138.983 17.6592C138.365 18.4378 137.574 19.0557 136.609 19.5127C135.644 19.9613 134.455 20.1855 133.042 20.1855C132.297 20.1855 131.573 20.1051 130.871 19.9443C130.177 19.792 129.529 19.5762 128.929 19.2969C128.328 19.0091 127.786 18.6663 127.304 18.2686C126.821 17.8708 126.428 17.4349 126.123 16.9609C126.072 16.8848 126.047 16.8001 126.047 16.707C126.047 16.5801 126.089 16.4701 126.174 16.377C126.267 16.2754 126.385 16.2246 126.529 16.2246C126.605 16.2246 126.681 16.2458 126.758 16.2881C126.834 16.3219 126.893 16.3727 126.935 16.4404C127.198 16.8551 127.536 17.2318 127.951 17.5703C128.374 17.9089 128.852 18.2008 129.386 18.4463C129.919 18.6917 130.494 18.8822 131.112 19.0176C131.738 19.153 132.386 19.2207 133.055 19.2207C134.299 19.2207 135.344 19.026 136.19 18.6367C137.037 18.2389 137.726 17.6973 138.26 17.0117C138.801 16.3262 139.216 15.5264 139.504 14.6123C139.8 13.6898 140.02 12.6995 140.164 11.6416C139.351 11.6839 138.708 11.7178 138.234 11.7432C137.76 11.7686 137.515 11.7812 137.498 11.7812C137.371 11.7812 137.252 11.7432 137.142 11.667C137.041 11.5824 136.99 11.4681 136.99 11.3242C136.99 11.1888 137.028 11.0745 137.104 10.9814C137.189 10.8883 137.299 10.8333 137.434 10.8164C137.451 10.8164 137.714 10.8037 138.221 10.7783C138.729 10.7529 139.415 10.7191 140.278 10.6768C140.346 10.0251 140.397 9.36914 140.43 8.70898C140.473 8.04036 140.511 7.36751 140.545 6.69043C140.562 6.25879 140.591 5.84408 140.634 5.44629C140.684 5.04004 140.744 4.67188 140.811 4.3418C140.617 4.38411 140.397 4.4222 140.151 4.45605C139.914 4.48145 139.677 4.49414 139.44 4.49414C138.695 4.49414 137.963 4.4349 137.244 4.31641C136.525 4.19792 135.801 4.07096 135.073 3.93555C134.354 3.79167 133.626 3.66048 132.889 3.54199C132.162 3.4235 131.417 3.36426 130.655 3.36426C130.029 3.36426 129.441 3.43197 128.89 3.56738C128.349 3.69434 127.875 3.89323 127.469 4.16406C127.062 4.4349 126.741 4.77767 126.504 5.19238C126.275 5.59863 126.161 6.08105 126.161 6.63965C126.161 6.99512 126.224 7.30827 126.351 7.5791C126.478 7.84993 126.622 8.07845 126.783 8.26465C126.944 8.45085 127.096 8.59896 127.24 8.70898C127.392 8.81055 127.49 8.87402 127.532 8.89941C127.684 9.00944 127.761 9.14909 127.761 9.31836C127.761 9.45378 127.718 9.56803 127.634 9.66113C127.549 9.74577 127.443 9.78809 127.316 9.78809C127.257 9.78809 127.198 9.77962 127.138 9.7627C127.088 9.7373 127.041 9.71191 126.999 9.68652C126.804 9.56803 126.601 9.41569 126.389 9.22949C126.178 9.04329 125.983 8.82324 125.805 8.56934C125.628 8.30697 125.48 8.01497 125.361 7.69336C125.251 7.37174 125.196 7.02051 125.196 6.63965C125.196 5.89486 125.357 5.25586 125.679 4.72266C126.009 4.18099 126.436 3.74089 126.961 3.40234C127.485 3.05534 128.069 2.80143 128.713 2.64062C129.364 2.47982 130.016 2.39941 130.668 2.39941C131.404 2.39941 132.132 2.46289 132.851 2.58984C133.579 2.70833 134.307 2.83952 135.035 2.9834C135.763 3.12728 136.491 3.2627 137.219 3.38965C137.955 3.50814 138.704 3.56738 139.466 3.56738C139.77 3.56738 140.045 3.55892 140.291 3.54199C140.536 3.5166 140.769 3.47005 140.989 3.40234C141.141 2.86914 141.315 2.41211 141.51 2.03125C141.713 1.64193 141.924 1.32454 142.144 1.0791C142.373 0.825195 142.601 0.638997 142.83 0.520508C143.058 0.402018 143.278 0.342773 143.49 0.342773C143.769 0.342773 144.002 0.427409 144.188 0.59668C144.383 0.765951 144.48 0.986003 144.48 1.25684ZM143.427 1.24414C143.359 1.24414 143.266 1.28223 143.147 1.3584C143.037 1.42611 142.915 1.53613 142.779 1.68848C142.644 1.83236 142.508 2.01855 142.373 2.24707C142.237 2.47559 142.119 2.74642 142.017 3.05957C142.297 2.93262 142.542 2.76758 142.754 2.56445C142.965 2.36133 143.135 2.16243 143.262 1.96777C143.388 1.76465 143.469 1.59538 143.503 1.45996C143.537 1.31608 143.511 1.24414 143.427 1.24414ZM165.771 16.1357C165.737 16.2035 165.665 16.3473 165.555 16.5674C165.453 16.779 165.318 17.0244 165.149 17.3037C164.988 17.583 164.798 17.875 164.577 18.1797C164.357 18.4844 164.112 18.7637 163.841 19.0176C163.57 19.2715 163.278 19.4831 162.965 19.6523C162.652 19.8132 162.322 19.8936 161.975 19.8936C161.484 19.8936 161.069 19.737 160.731 19.4238C160.401 19.1107 160.16 18.7171 160.007 18.2432C159.719 18.7256 159.377 19.1107 158.979 19.3984C158.581 19.6777 158.183 19.8174 157.785 19.8174C157.472 19.8174 157.189 19.7624 156.935 19.6523C156.681 19.5339 156.465 19.373 156.287 19.1699C156.11 18.9583 155.97 18.7129 155.868 18.4336C155.775 18.1543 155.729 17.8496 155.729 17.5195C155.729 16.8594 155.839 16.2796 156.059 15.7803C156.287 15.2725 156.575 14.8493 156.922 14.5107C157.269 14.1722 157.65 13.9183 158.065 13.749C158.488 13.5798 158.894 13.4951 159.284 13.4951C159.546 13.4951 159.787 13.5332 160.007 13.6094C160.227 13.6771 160.413 13.7533 160.566 13.8379C160.727 13.9225 160.849 14.0029 160.934 14.0791C161.019 14.1468 161.065 14.1849 161.074 14.1934C161.167 14.3034 161.213 14.4176 161.213 14.5361C161.213 14.6631 161.167 14.7773 161.074 14.8789C160.98 14.972 160.87 15.0186 160.743 15.0186C160.608 15.0186 160.494 14.972 160.401 14.8789C160.384 14.862 160.346 14.8324 160.286 14.79C160.227 14.7393 160.147 14.6885 160.045 14.6377C159.944 14.5869 159.821 14.5446 159.677 14.5107C159.542 14.4684 159.385 14.4473 159.207 14.4473C158.945 14.4473 158.666 14.5065 158.369 14.625C158.073 14.7435 157.802 14.9297 157.557 15.1836C157.312 15.429 157.104 15.7422 156.935 16.123C156.774 16.4954 156.694 16.9398 156.694 17.4561C156.694 17.6169 156.711 17.7819 156.744 17.9512C156.778 18.112 156.838 18.2601 156.922 18.3955C157.007 18.5309 157.121 18.641 157.265 18.7256C157.409 18.8102 157.587 18.8525 157.798 18.8525C157.951 18.8525 158.124 18.8018 158.319 18.7002C158.522 18.5986 158.712 18.4421 158.89 18.2305C159.076 18.0189 159.241 17.7523 159.385 17.4307C159.537 17.109 159.643 16.7282 159.702 16.2881C159.719 16.1696 159.774 16.0723 159.868 15.9961C159.961 15.9115 160.071 15.8691 160.198 15.8691C160.316 15.8691 160.418 15.9157 160.502 16.0088C160.595 16.1019 160.646 16.2077 160.655 16.3262C160.663 16.487 160.68 16.7155 160.705 17.0117C160.731 17.2995 160.786 17.5872 160.87 17.875C160.964 18.1628 161.099 18.4124 161.277 18.624C161.454 18.8356 161.7 18.9414 162.013 18.9414C162.216 18.9414 162.415 18.8864 162.61 18.7764C162.813 18.6663 163.007 18.5225 163.194 18.3447C163.388 18.1585 163.57 17.9512 163.74 17.7227C163.917 17.4857 164.078 17.2487 164.222 17.0117C164.366 16.7747 164.493 16.5462 164.603 16.3262C164.713 16.1061 164.806 15.9157 164.882 15.7549C164.924 15.6618 164.984 15.5898 165.06 15.5391C165.145 15.4883 165.233 15.4629 165.327 15.4629C165.47 15.4629 165.585 15.5179 165.669 15.6279C165.762 15.7295 165.809 15.8395 165.809 15.958C165.809 16.0173 165.796 16.0765 165.771 16.1357ZM165.708 14.46C165.674 14.6885 165.632 14.9043 165.581 15.1074C165.53 15.3021 165.479 15.4756 165.429 15.6279C165.386 15.7718 165.348 15.8903 165.314 15.9834C165.28 16.0765 165.259 16.1273 165.251 16.1357C165.166 16.3304 165.018 16.4277 164.807 16.4277C164.688 16.4277 164.578 16.3854 164.476 16.3008C164.375 16.2077 164.324 16.0934 164.324 15.958C164.324 15.9072 164.333 15.8691 164.349 15.8438C164.366 15.8184 164.392 15.7676 164.426 15.6914C164.46 15.6152 164.502 15.4883 164.553 15.3105C164.603 15.1328 164.667 14.8577 164.743 14.4854C164.599 14.4854 164.451 14.4811 164.299 14.4727C164.146 14.4642 164.007 14.4346 163.88 14.3838C163.744 14.333 163.634 14.2526 163.55 14.1426C163.465 14.0326 163.423 13.8802 163.423 13.6855C163.423 13.5417 163.465 13.347 163.55 13.1016C163.626 12.8561 163.732 12.6149 163.867 12.3779C164.002 12.141 164.155 11.9378 164.324 11.7686C164.493 11.5908 164.663 11.502 164.832 11.502C165.027 11.502 165.183 11.5739 165.302 11.7178C165.429 11.8617 165.526 12.0394 165.594 12.251C165.661 12.4541 165.708 12.6699 165.733 12.8984C165.767 13.127 165.784 13.3258 165.784 13.4951C165.928 13.4951 166.068 13.4951 166.203 13.4951C166.347 13.4867 166.482 13.4824 166.609 13.4824C167.092 13.4824 167.46 13.5882 167.714 13.7998C167.968 14.0114 168.095 14.3584 168.095 14.8408C168.095 15.0355 168.082 15.2386 168.057 15.4502C168.031 15.6618 168.002 15.8818 167.968 16.1104C167.934 16.3304 167.904 16.5505 167.879 16.7705C167.853 16.9906 167.841 17.2064 167.841 17.418C167.841 17.7227 167.883 17.9766 167.968 18.1797C168.052 18.3743 168.158 18.5309 168.285 18.6494C168.412 18.7679 168.547 18.8525 168.691 18.9033C168.835 18.9456 168.966 18.9668 169.085 18.9668C169.449 18.9668 169.792 18.8483 170.113 18.6113C170.435 18.3743 170.731 18.0908 171.002 17.7607C171.273 17.4222 171.514 17.0667 171.725 16.6943C171.946 16.3219 172.127 15.9961 172.271 15.7168C172.314 15.6406 172.373 15.5814 172.449 15.5391C172.525 15.4967 172.606 15.4756 172.69 15.4756C172.843 15.4756 172.961 15.5264 173.046 15.6279C173.13 15.721 173.173 15.8268 173.173 15.9453C173.173 16.0299 173.156 16.1061 173.122 16.1738C172.927 16.5208 172.699 16.9144 172.436 17.3545C172.182 17.7861 171.891 18.1924 171.56 18.5732C171.23 18.9541 170.858 19.2757 170.443 19.5381C170.037 19.8005 169.588 19.9316 169.098 19.9316C168.793 19.9316 168.505 19.8724 168.234 19.7539C167.963 19.6439 167.726 19.4831 167.523 19.2715C167.329 19.0514 167.172 18.7848 167.054 18.4717C166.935 18.1501 166.876 17.7904 166.876 17.3926C166.876 16.9694 166.918 16.5505 167.003 16.1357C167.087 15.7126 167.13 15.3105 167.13 14.9297C167.13 14.7689 167.092 14.6504 167.016 14.5742C166.948 14.4896 166.791 14.4473 166.546 14.4473C166.427 14.4473 166.296 14.4473 166.152 14.4473C166.017 14.4473 165.869 14.4515 165.708 14.46ZM164.857 13.5205C164.857 13.4613 164.853 13.3851 164.845 13.292C164.845 13.1904 164.836 13.0931 164.819 13C164.811 12.9069 164.794 12.8265 164.768 12.7588C164.752 12.6911 164.73 12.6572 164.705 12.6572C164.68 12.6572 164.646 12.6911 164.603 12.7588C164.57 12.818 164.531 12.8942 164.489 12.9873C164.447 13.0719 164.409 13.165 164.375 13.2666C164.341 13.3682 164.316 13.4528 164.299 13.5205H164.857ZM182.035 6.96973C182.035 7.10514 181.988 7.21517 181.895 7.2998C181.802 7.37598 181.688 7.41406 181.552 7.41406H175.116V7.55371C175.116 8.06999 175.078 8.62012 175.001 9.2041C174.925 9.78809 174.819 10.3721 174.684 10.9561C174.557 11.5316 174.409 12.0944 174.24 12.6445C174.079 13.1947 173.91 13.7025 173.732 14.168C173.563 14.6335 173.393 15.0397 173.224 15.3867C173.055 15.7253 172.902 15.9792 172.767 16.1484C172.877 16.5378 173.008 16.9017 173.161 17.2402C173.313 17.5703 173.482 17.8623 173.668 18.1162C173.863 18.3617 174.07 18.5563 174.29 18.7002C174.51 18.8441 174.747 18.916 175.001 18.916C175.298 18.916 175.59 18.7933 175.877 18.5479C176.174 18.2939 176.444 17.9977 176.69 17.6592C176.944 17.3122 177.164 16.9652 177.35 16.6182C177.545 16.2627 177.684 15.9792 177.769 15.7676C177.854 15.5645 178.002 15.4629 178.213 15.4629C178.357 15.4629 178.471 15.5137 178.556 15.6152C178.649 15.7168 178.696 15.8268 178.696 15.9453C178.696 16.0046 178.683 16.0638 178.658 16.123C178.632 16.1823 178.569 16.3177 178.467 16.5293C178.374 16.7409 178.247 16.9863 178.086 17.2656C177.934 17.5449 177.752 17.8411 177.54 18.1543C177.337 18.459 177.105 18.7383 176.842 18.9922C176.588 19.2461 176.313 19.4577 176.017 19.627C175.721 19.7962 175.408 19.8809 175.078 19.8809C174.494 19.8809 173.969 19.6904 173.503 19.3096C173.038 18.9287 172.64 18.3955 172.31 17.71C171.988 17.0244 171.743 16.2119 171.574 15.2725C171.404 14.333 171.32 13.3047 171.32 12.1875C171.32 11.9082 171.324 11.5824 171.332 11.21C171.341 10.8291 171.358 10.4313 171.383 10.0166C171.409 9.59342 171.447 9.16178 171.497 8.72168C171.548 8.27311 171.616 7.83724 171.701 7.41406H167.143C167.008 7.41406 166.893 7.37598 166.8 7.2998C166.707 7.21517 166.661 7.10514 166.661 6.96973C166.661 6.83431 166.707 6.72852 166.8 6.65234C166.893 6.56771 167.008 6.52539 167.143 6.52539H171.916C172.001 6.2207 172.098 5.94141 172.208 5.6875C172.327 5.43359 172.458 5.21354 172.602 5.02734C172.754 4.84115 172.919 4.69727 173.097 4.5957C173.283 4.48568 173.486 4.43066 173.706 4.43066C173.918 4.43066 174.1 4.48568 174.252 4.5957C174.413 4.69727 174.549 4.84115 174.659 5.02734C174.769 5.21354 174.853 5.43359 174.912 5.6875C174.98 5.94141 175.031 6.2207 175.065 6.52539H181.552C181.688 6.52539 181.802 6.56771 181.895 6.65234C181.988 6.72852 182.035 6.83431 182.035 6.96973ZM172.475 14.8789C172.729 14.3203 172.957 13.7194 173.161 13.0762C173.372 12.4245 173.55 11.7686 173.694 11.1084C173.846 10.4482 173.96 9.80078 174.036 9.16602C174.121 8.53125 174.163 7.94727 174.163 7.41406H172.665C172.547 7.9388 172.45 8.59049 172.373 9.36914C172.306 10.1393 172.272 11.0788 172.272 12.1875C172.272 12.8053 172.289 13.3258 172.323 13.749C172.356 14.1637 172.407 14.5404 172.475 14.8789ZM173.656 5.38281C173.579 5.38281 173.469 5.46745 173.326 5.63672C173.182 5.79753 173.038 6.09375 172.894 6.52539H174.113C174.07 6.16992 174.007 5.89062 173.922 5.6875C173.846 5.48438 173.757 5.38281 173.656 5.38281ZM172.678 15.793V15.8057V15.793ZM180.232 18.5479C180.359 18.2939 180.52 17.9808 180.715 17.6084C180.918 17.2275 181.125 16.8467 181.337 16.4658C181.557 16.085 181.768 15.7253 181.972 15.3867C182.183 15.0482 182.361 14.79 182.505 14.6123C182.75 14.3161 183.004 14.1045 183.267 13.9775C183.529 13.8506 183.77 13.7871 183.99 13.7871C184.21 13.7871 184.396 13.8337 184.549 13.9268C184.71 14.0199 184.841 14.1468 184.942 14.3076C185.044 14.46 185.12 14.6419 185.171 14.8535C185.222 15.0566 185.247 15.2767 185.247 15.5137C185.247 15.6491 185.239 15.8268 185.222 16.0469C185.213 16.2669 185.2 16.5039 185.184 16.7578C185.175 17.0117 185.162 17.2741 185.145 17.5449C185.137 17.8158 185.128 18.0697 185.12 18.3066C185.247 18.0527 185.391 17.7734 185.552 17.4688C185.712 17.1556 185.873 16.8467 186.034 16.542C186.203 16.2373 186.364 15.9538 186.517 15.6914C186.669 15.4206 186.809 15.2005 186.935 15.0312C187.299 14.5319 187.638 14.1976 187.951 14.0283C188.273 13.859 188.556 13.7744 188.802 13.7744C189.089 13.7744 189.326 13.8294 189.513 13.9395C189.699 14.041 189.843 14.1764 189.944 14.3457C190.054 14.5065 190.13 14.6885 190.173 14.8916C190.215 15.0947 190.236 15.2894 190.236 15.4756C190.236 15.7633 190.215 16.0638 190.173 16.377C190.13 16.6901 190.109 17.0625 190.109 17.4941C190.109 17.6719 190.118 17.8496 190.135 18.0273C190.152 18.2051 190.185 18.3617 190.236 18.4971C190.295 18.6325 190.384 18.7425 190.503 18.8271C190.621 18.9118 190.782 18.9541 190.985 18.9541C191.205 18.9541 191.421 18.8991 191.633 18.7891C191.844 18.6706 192.047 18.5182 192.242 18.332C192.437 18.1458 192.619 17.9342 192.788 17.6973C192.966 17.4603 193.127 17.2233 193.27 16.9863C193.414 16.7493 193.541 16.5251 193.651 16.3135C193.761 16.0934 193.85 15.9072 193.918 15.7549C193.96 15.6618 194.019 15.5898 194.096 15.5391C194.172 15.4883 194.256 15.4629 194.35 15.4629C194.493 15.4629 194.608 15.5179 194.692 15.6279C194.785 15.7295 194.832 15.8395 194.832 15.958C194.832 16.0173 194.819 16.0765 194.794 16.1357C194.76 16.2035 194.692 16.3473 194.591 16.5674C194.489 16.779 194.354 17.0244 194.184 17.3037C194.015 17.5745 193.816 17.8623 193.588 18.167C193.368 18.4717 193.122 18.7552 192.851 19.0176C192.581 19.2715 192.289 19.4831 191.975 19.6523C191.662 19.8132 191.332 19.8936 190.985 19.8936C190.613 19.8936 190.308 19.8258 190.071 19.6904C189.843 19.5635 189.656 19.39 189.513 19.1699C189.377 18.9499 189.284 18.696 189.233 18.4082C189.183 18.1204 189.157 17.82 189.157 17.5068C189.157 17.0921 189.178 16.7113 189.221 16.3643C189.263 16.0088 189.284 15.7337 189.284 15.5391C189.284 15.3275 189.263 15.1667 189.221 15.0566C189.187 14.9466 189.14 14.8704 189.081 14.8281C189.03 14.7773 188.979 14.752 188.929 14.752C188.878 14.7435 188.84 14.7393 188.814 14.7393C188.611 14.7393 188.395 14.8535 188.167 15.082C187.947 15.3021 187.718 15.5983 187.481 15.9707C187.244 16.3431 186.999 16.7663 186.745 17.2402C186.5 17.7142 186.25 18.1966 185.996 18.6875C185.852 18.9583 185.729 19.1826 185.628 19.3604C185.535 19.5381 185.442 19.6777 185.349 19.7793C185.264 19.8809 185.179 19.9528 185.095 19.9951C185.01 20.0374 184.917 20.0586 184.815 20.0586C184.595 20.0586 184.426 19.9824 184.308 19.8301C184.197 19.6777 184.142 19.4788 184.142 19.2334C184.142 19.1064 184.147 18.9372 184.155 18.7256C184.164 18.514 184.172 18.2812 184.181 18.0273C184.189 17.7734 184.202 17.5111 184.219 17.2402C184.236 16.9694 184.248 16.7113 184.257 16.4658C184.265 16.2119 184.274 15.9876 184.282 15.793C184.291 15.5983 184.295 15.4502 184.295 15.3486C184.295 15.1286 184.257 14.972 184.181 14.8789C184.104 14.7773 184.016 14.7266 183.914 14.7266C183.821 14.7266 183.715 14.7604 183.597 14.8281C183.487 14.8958 183.355 15.027 183.203 15.2217C183.085 15.374 182.932 15.5983 182.746 15.8945C182.568 16.1823 182.378 16.5039 182.175 16.8594C181.972 17.2148 181.768 17.5788 181.565 17.9512C181.371 18.3236 181.201 18.6579 181.058 18.9541C180.88 19.3096 180.702 19.5508 180.524 19.6777C180.347 19.8132 180.173 19.8809 180.004 19.8809C179.758 19.8809 179.576 19.8089 179.458 19.665C179.339 19.5127 179.28 19.3138 179.28 19.0684C179.28 19.043 179.284 18.8906 179.293 18.6113C179.31 18.332 179.327 17.9935 179.344 17.5957C179.361 17.1895 179.378 16.7578 179.394 16.3008C179.42 15.8438 179.441 15.4163 179.458 15.0186C179.466 14.807 179.458 14.6123 179.433 14.4346C179.407 14.2568 179.373 14.151 179.331 14.1172C179.263 14.1341 179.128 14.2907 178.925 14.5869C178.73 14.8831 178.48 15.3994 178.176 16.1357C178.133 16.2288 178.07 16.3008 177.985 16.3516C177.901 16.4023 177.812 16.4277 177.719 16.4277C177.575 16.4277 177.461 16.3812 177.376 16.2881C177.291 16.1865 177.249 16.0723 177.249 15.9453C177.249 15.8861 177.262 15.8226 177.287 15.7549C177.668 14.8493 178.032 14.1849 178.379 13.7617C178.726 13.3301 179.064 13.1143 179.394 13.1143C179.589 13.1143 179.75 13.1608 179.877 13.2539C180.012 13.3385 180.118 13.4528 180.194 13.5967C180.27 13.7321 180.325 13.8887 180.359 14.0664C180.393 14.2441 180.41 14.4176 180.41 14.5869C180.41 15.3402 180.389 16.0299 180.347 16.6562C180.313 17.2826 180.275 17.9131 180.232 18.5479ZM203.224 16.1357C203.19 16.2035 203.118 16.3473 203.008 16.5674C202.907 16.779 202.771 17.0244 202.602 17.3037C202.441 17.583 202.251 17.875 202.031 18.1797C201.811 18.4844 201.565 18.7637 201.294 19.0176C201.024 19.2715 200.732 19.4831 200.418 19.6523C200.105 19.8132 199.775 19.8936 199.428 19.8936C198.937 19.8936 198.523 19.737 198.184 19.4238C197.854 19.1107 197.613 18.7171 197.46 18.2432C197.173 18.7256 196.83 19.1107 196.432 19.3984C196.034 19.6777 195.636 19.8174 195.239 19.8174C194.926 19.8174 194.642 19.7624 194.388 19.6523C194.134 19.5339 193.918 19.373 193.741 19.1699C193.563 18.9583 193.423 18.7129 193.322 18.4336C193.229 18.1543 193.182 17.8496 193.182 17.5195C193.182 16.8594 193.292 16.2796 193.512 15.7803C193.741 15.2725 194.028 14.8493 194.375 14.5107C194.722 14.1722 195.103 13.9183 195.518 13.749C195.941 13.5798 196.347 13.4951 196.737 13.4951C196.999 13.4951 197.24 13.5332 197.46 13.6094C197.68 13.6771 197.867 13.7533 198.019 13.8379C198.18 13.9225 198.303 14.0029 198.387 14.0791C198.472 14.1468 198.518 14.1849 198.527 14.1934C198.62 14.3034 198.666 14.4176 198.666 14.5361C198.666 14.6631 198.62 14.7773 198.527 14.8789C198.434 14.972 198.324 15.0186 198.197 15.0186C198.061 15.0186 197.947 14.972 197.854 14.8789C197.837 14.862 197.799 14.8324 197.74 14.79C197.68 14.7393 197.6 14.6885 197.498 14.6377C197.397 14.5869 197.274 14.5446 197.13 14.5107C196.995 14.4684 196.838 14.4473 196.661 14.4473C196.398 14.4473 196.119 14.5065 195.823 14.625C195.526 14.7435 195.256 14.9297 195.01 15.1836C194.765 15.429 194.557 15.7422 194.388 16.123C194.227 16.4954 194.147 16.9398 194.147 17.4561C194.147 17.6169 194.164 17.7819 194.198 17.9512C194.232 18.112 194.291 18.2601 194.375 18.3955C194.46 18.5309 194.574 18.641 194.718 18.7256C194.862 18.8102 195.04 18.8525 195.251 18.8525C195.404 18.8525 195.577 18.8018 195.772 18.7002C195.975 18.5986 196.165 18.4421 196.343 18.2305C196.529 18.0189 196.694 17.7523 196.838 17.4307C196.991 17.109 197.096 16.7282 197.156 16.2881C197.173 16.1696 197.228 16.0723 197.321 15.9961C197.414 15.9115 197.524 15.8691 197.651 15.8691C197.769 15.8691 197.871 15.9157 197.956 16.0088C198.049 16.1019 198.099 16.2077 198.108 16.3262C198.116 16.487 198.133 16.7155 198.159 17.0117C198.184 17.2995 198.239 17.5872 198.324 17.875C198.417 18.1628 198.552 18.4124 198.73 18.624C198.908 18.8356 199.153 18.9414 199.466 18.9414C199.669 18.9414 199.868 18.8864 200.063 18.7764C200.266 18.6663 200.461 18.5225 200.647 18.3447C200.842 18.1585 201.024 17.9512 201.193 17.7227C201.371 17.4857 201.531 17.2487 201.675 17.0117C201.819 16.7747 201.946 16.5462 202.056 16.3262C202.166 16.1061 202.259 15.9157 202.335 15.7549C202.378 15.6618 202.437 15.5898 202.513 15.5391C202.598 15.4883 202.687 15.4629 202.78 15.4629C202.924 15.4629 203.038 15.5179 203.122 15.6279C203.216 15.7295 203.262 15.8395 203.262 15.958C203.262 16.0173 203.249 16.0765 203.224 16.1357ZM204.646 18.5352C204.782 18.2559 204.938 17.9512 205.116 17.6211C205.294 17.2826 205.484 16.944 205.687 16.6055C205.891 16.2585 206.102 15.9157 206.322 15.5771C206.551 15.2386 206.788 14.917 207.033 14.6123C207.279 14.3161 207.524 14.1045 207.769 13.9775C208.023 13.8421 208.26 13.7744 208.48 13.7744C208.921 13.7744 209.246 13.9352 209.458 14.2568C209.67 14.5785 209.775 14.9762 209.775 15.4502C209.775 15.5602 209.767 15.6956 209.75 15.8564C209.741 16.0088 209.729 16.1738 209.712 16.3516C209.703 16.5293 209.691 16.7113 209.674 16.8975C209.665 17.0752 209.661 17.2445 209.661 17.4053C209.661 17.6084 209.67 17.8031 209.686 17.9893C209.712 18.1755 209.754 18.3405 209.813 18.4844C209.873 18.6198 209.957 18.7298 210.067 18.8145C210.177 18.8906 210.321 18.9287 210.499 18.9287C210.821 18.9287 211.134 18.806 211.438 18.5605C211.743 18.3066 212.022 18.0104 212.276 17.6719C212.539 17.3249 212.763 16.9736 212.949 16.6182C213.144 16.2627 213.288 15.9749 213.381 15.7549C213.423 15.6618 213.482 15.5898 213.559 15.5391C213.643 15.4883 213.732 15.4629 213.825 15.4629C213.969 15.4629 214.083 15.5179 214.168 15.6279C214.261 15.7295 214.308 15.8395 214.308 15.958C214.308 16.0173 214.295 16.0765 214.269 16.1357C214.236 16.2035 214.168 16.3431 214.066 16.5547C213.965 16.7663 213.829 17.0117 213.66 17.291C213.499 17.5618 213.309 17.8538 213.089 18.167C212.869 18.4717 212.623 18.751 212.352 19.0049C212.09 19.2588 211.802 19.4704 211.489 19.6396C211.185 19.8089 210.863 19.8936 210.524 19.8936C210.143 19.8936 209.835 19.8216 209.598 19.6777C209.361 19.5254 209.174 19.3307 209.039 19.0938C208.904 18.8483 208.81 18.5817 208.76 18.2939C208.717 17.9977 208.696 17.7015 208.696 17.4053C208.696 17.2783 208.7 17.1344 208.709 16.9736C208.726 16.8128 208.743 16.6436 208.76 16.4658C208.785 16.2881 208.802 16.1104 208.81 15.9326C208.827 15.7549 208.836 15.5856 208.836 15.4248C208.836 15.154 208.794 14.972 208.709 14.8789C208.624 14.7773 208.548 14.7266 208.48 14.7266C208.345 14.7266 208.188 14.807 208.011 14.9678C207.841 15.1201 207.659 15.3232 207.465 15.5771C207.279 15.8311 207.084 16.1188 206.881 16.4404C206.686 16.7536 206.5 17.0667 206.322 17.3799C206.153 17.693 205.992 17.9935 205.84 18.2812C205.696 18.5605 205.582 18.7933 205.497 18.9795C205.328 19.335 205.158 19.5719 204.989 19.6904C204.82 19.8174 204.646 19.8809 204.469 19.8809C204.223 19.8809 204.024 19.8089 203.872 19.665C203.728 19.5127 203.656 19.3011 203.656 19.0303C203.656 18.971 203.665 18.8568 203.682 18.6875C203.699 18.5098 203.72 18.3024 203.745 18.0654C203.77 17.82 203.796 17.5576 203.821 17.2783C203.847 16.999 203.872 16.724 203.897 16.4531C203.923 16.1738 203.944 15.9157 203.961 15.6787C203.978 15.4417 203.986 15.2428 203.986 15.082C203.986 14.8704 203.978 14.6673 203.961 14.4727C203.944 14.278 203.91 14.1595 203.859 14.1172C203.783 14.1426 203.648 14.3034 203.453 14.5996C203.258 14.8874 203.009 15.3994 202.704 16.1357C202.662 16.2288 202.598 16.3008 202.514 16.3516C202.429 16.4023 202.34 16.4277 202.247 16.4277C202.103 16.4277 201.989 16.3812 201.904 16.2881C201.82 16.1865 201.777 16.0723 201.777 15.9453C201.777 15.8861 201.79 15.8226 201.815 15.7549C202.196 14.8493 202.552 14.1849 202.882 13.7617C203.22 13.3301 203.555 13.1143 203.885 13.1143C204.079 13.1143 204.244 13.165 204.38 13.2666C204.515 13.3597 204.621 13.4867 204.697 13.6475C204.782 13.8083 204.841 13.986 204.875 14.1807C204.917 14.3753 204.938 14.5742 204.938 14.7773C204.938 14.9297 204.926 15.1667 204.9 15.4883C204.883 15.8099 204.858 16.1569 204.824 16.5293C204.79 16.8932 204.756 17.2572 204.723 17.6211C204.697 17.985 204.672 18.2897 204.646 18.5352Z" fill="#5C5F6A"/>
</svg>
