<svg width="39" height="14" viewBox="0 0 39 14" fill="none" xmlns="http://www.w3.org/2000/svg">
<mask id="mask0_2310_1347" style="mask-type:alpha" maskUnits="userSpaceOnUse" x="5" y="0" width="34" height="14">
<path fill-rule="evenodd" clip-rule="evenodd" d="M11.1301 1.8039C10.7368 2.27651 10.1077 2.64927 9.47858 2.59602C9.39994 1.957 9.70795 1.27804 10.0684 0.858683C10.4616 0.372762 11.1497 0.0266258 11.7068 0C11.7723 0.665646 11.5167 1.31798 11.1301 1.8039ZM11.7004 2.7236C11.1461 2.6912 10.6404 2.8929 10.2319 3.05583C9.969 3.16067 9.74639 3.24946 9.57703 3.24946C9.38698 3.24946 9.15518 3.15592 8.89492 3.05091C8.5539 2.9133 8.16402 2.75598 7.75517 2.76353C6.81802 2.77685 5.94641 3.31602 5.46801 4.1747C4.48499 5.89207 5.21242 8.43483 6.16267 9.83268C6.62797 10.525 7.18502 11.2838 7.919 11.2572C8.24192 11.2448 8.4742 11.1447 8.71459 11.0411C8.99135 10.9218 9.27885 10.7979 9.72776 10.7979C10.1611 10.7979 10.436 10.9186 10.7 11.0344C10.9509 11.1446 11.1919 11.2503 11.5496 11.2438C12.3098 11.2305 12.7882 10.5516 13.2535 9.85931C13.7557 9.11631 13.9763 8.39118 14.0098 8.28114L14.0137 8.26842C14.0129 8.2676 14.0067 8.26472 13.9958 8.25963C13.8279 8.18157 12.545 7.585 12.5326 5.98526C12.5203 4.6425 13.5503 3.96218 13.7124 3.85508C13.7223 3.84857 13.7289 3.84417 13.7319 3.84188C13.0766 2.85672 12.0542 2.75022 11.7004 2.7236ZM16.9629 11.1697V0.792341H20.7967C22.7759 0.792341 24.1587 2.17688 24.1587 4.20044C24.1587 6.224 22.7497 7.62186 20.7443 7.62186H18.5489V11.1697H16.9629ZM18.5485 2.15064H20.3769C21.7532 2.15064 22.5396 2.89616 22.5396 4.20748C22.5396 5.5188 21.7532 6.27098 20.3704 6.27098H18.5485V2.15064ZM29.3947 9.9243C28.9752 10.7364 28.0512 11.2489 27.0551 11.2489C25.5805 11.2489 24.5516 10.357 24.5516 9.01237C24.5516 7.68108 25.5478 6.91559 27.3893 6.80243L29.3684 6.68262V6.11016C29.3684 5.26479 28.8245 4.8055 27.8546 4.8055C27.0551 4.8055 26.4718 5.22486 26.3538 5.86387H24.9252C24.9711 4.51927 26.2162 3.54078 27.9005 3.54078C29.7158 3.54078 30.8954 4.50596 30.8954 6.00366V11.1691H29.4274V9.9243H29.3947ZM27.4811 10.0177C26.6357 10.0177 26.0983 9.60496 26.0983 8.97259C26.0983 8.32026 26.616 7.94084 27.6056 7.88094L29.3685 7.76778V8.35354C29.3685 9.32538 28.5559 10.0177 27.4811 10.0177ZM35.7648 11.5743C35.1291 13.3915 34.4017 13.9906 32.8551 13.9906C32.7371 13.9906 32.3439 13.9773 32.2521 13.9507V12.7059C32.3504 12.7192 32.5929 12.7325 32.7174 12.7325C33.4187 12.7325 33.8119 12.433 34.0544 11.6542L34.1985 11.1949L31.5116 3.63982H33.1696L35.0374 9.77041H35.0701L36.9379 3.63982H38.55L35.7648 11.5743Z" fill="white"/>
</mask>
<g mask="url(#mask0_2310_1347)">
<rect x="16" y="0.09375" width="24" height="14" fill="#D9D9D9"/>
</g>
<path d="M1.604 8.16667C1.604 5.3231 4.04517 3.0625 6.99984 3.0625C9.95451 3.0625 12.3957 5.3231 12.3957 8.16667C12.3957 11.0102 9.95451 13.2708 6.99984 13.2708C4.04517 13.2708 1.604 11.0102 1.604 8.16667Z" fill="white"/>
<path fill-rule="evenodd" clip-rule="evenodd" d="M7.73496 2.25085C7.51662 2.65518 7.4375 3.16147 7.4375 3.5013C7.4375 3.74293 7.24162 3.9388 7 3.9388C6.75838 3.9388 6.5625 3.74293 6.5625 3.5013C6.5625 3.06336 6.65838 2.40298 6.96504 1.83509C7.28194 1.24825 7.84772 0.730469 8.75 0.730469C8.99162 0.730469 9.1875 0.926344 9.1875 1.16797C9.1875 1.40959 8.99162 1.60547 8.75 1.60547C8.25228 1.60547 7.94306 1.86547 7.73496 2.25085Z" fill="white"/>
<path fill-rule="evenodd" clip-rule="evenodd" d="M3.14508 0.912158C3.22731 0.798072 3.35937 0.730469 3.5 0.730469C5.30533 0.730469 6.27126 1.15571 6.79395 1.80511C7.04815 2.12094 7.16858 2.45666 7.24435 2.7345C7.27042 2.83008 7.29352 2.92847 7.31318 3.01222C7.32085 3.04487 7.32799 3.0753 7.33459 3.10247C7.36088 3.21083 7.38123 3.28019 7.40213 3.32896C7.46006 3.46413 7.4462 3.61937 7.36525 3.74214C7.28429 3.86492 7.14707 3.9388 7 3.9388C5.44661 3.9388 4.49664 3.46861 3.91236 2.85511C3.4042 2.32154 3.21299 1.71246 3.11546 1.40181C3.10415 1.36577 3.0941 1.33374 3.08495 1.30632C3.04048 1.1729 3.06286 1.02624 3.14508 0.912158ZM4.12986 1.62625C4.22282 1.8312 4.35145 2.0474 4.54598 2.25166C4.87453 2.59664 5.42894 2.93981 6.41913 3.03679C6.41315 3.01321 6.40689 2.9893 6.40018 2.96472C6.33924 2.74126 6.25915 2.53618 6.11231 2.35374C5.8706 2.05344 5.36034 1.71271 4.12986 1.62625Z" fill="white"/>
</svg>
