<?xml version="1.0" encoding="UTF-8"?>
<svg id="Layer_1" xmlns="http://www.w3.org/2000/svg" version="1.1" viewBox="0 0 486.23 214.86">
  <!-- Generator: Adobe Illustrator 30.5.1, SVG Export Plug-In . SVG Version: 2.1.4 Build 3)  -->
  <defs>
    <style>
      .st0 {
        fill: #fff;
      }
    </style>
  </defs>
  <g>
    <path class="st0" d="M275.58,184.15c-9.56-12.54-16.74-24.83-25.18-37.63-3.28-4.98-8.52-11.36-14.71-11.49l-17.64-.37.03,41.62c0,2.02,1.75,5.7,2.58,7.48h-17.54s2.81-5.99,2.81-5.99l-.04-88.81-2.04-5.55,33.19.29c9.82.08,19.56,1.58,26.55,9.31,6.45,7.13,7.36,17.7,2.89,26.87-3.62,7.42-12.07,12.49-22.28,13.96,8.94,2.92,15.9,8.69,21.29,16.72,7.71,11.47,14.85,22.77,23.22,33.74,18.57,24.32,47.06,35.94,75.27,21.11-8.05,7.91-19.37,9.4-30.77,9.45-22.93.09-43.42-12.06-57.64-30.71ZM256.37,104.75c-.93-9.96-7.06-19.15-16.86-19.31l-21.33-.34-.11,47.62c9.43.4,18.81,1.68,26.82-1.71,9.86-4.17,12.46-15.69,11.48-26.27Z"/>
    <path class="st0" d="M96.84,177.4c0,1.16,1.49,4.57,2.17,6.33h-16.78c1.13-2.7,2.32-5.55,2.32-7.18l-.08-86.34c0-1.59-1.29-4.55-2.22-6.7l27.97.07c10.93.03,21.69,1.81,29.11,10.72,5.89,7.08,7.08,16.7,3.83,26.39-5.73,17.12-26.73,19.85-46.23,19.19l-.08,37.52ZM125.35,91.31c-3.53-4.35-9.19-6.15-13.59-6.18l-14.89-.08.04,52.7c9.32.4,18.45,1.51,25.31-4.09,12.16-9.95,13.1-30.08,3.13-42.35Z"/>
    <path class="st0" d="M476.21,177.9c-16.63,11.72-38.68,10.01-53.21-3.57-2.31-2.16-3.28-6.84-2.84-9.14,8.94,17.84,31.36,24.25,48.39,14.46,5.52-3.17,8.2-10.69,8.06-16.43-.14-5.85-3.86-12.89-9.51-16.55l-32.24-20.91c-6.24-4.05-10.26-11.21-11.03-17.44-.95-7.74,1.79-15.12,8.01-19.87,12.58-9.62,29.1-8.85,42.52-1.06,4.2,2.44,6.35,5.61,5.4,10.84-5.72-11.49-15.7-14.78-27.19-14.69-8.59.07-16.6,2.59-19.66,10.62-2.96,7.75-.03,16.27,7.51,21.11l34.53,22.19c6.89,4.43,10.87,12.41,11.25,19.66.4,7.64-2.81,15.74-9.99,20.79Z"/>
    <path class="st0" d="M57.42,176.36c-15.26,12.79-37.52,12.06-52.35.25-3.72-2.96-5.81-6.87-4.83-10.38,9.36,17.11,31.1,22.83,47.28,13.58,6.11-3.49,8.57-10.36,8.38-16.68-.17-5.95-3.61-12.94-9.54-16.76l-32.29-20.78c-7.19-4.63-11.04-12.84-11-20.57.04-8.57,5.19-16.01,13.34-19.95,12.74-6.15,26.77-4.2,38.88,3.11,3.1,1.87,4.56,5.35,3.68,8.67-6.1-10.97-16.19-13.54-27.39-13.29-8.47.19-16.51,2.57-19.32,10.88-2.4,7.11.11,16.04,7.31,20.6l33.25,21.04c6.75,4.27,11.43,11.06,12.26,17.86.96,7.88-.82,16.68-7.68,22.43Z"/>
    <path class="st0" d="M378.31,174.09c0,3.08.98,6.19,2.02,9.56l-16.5.02c1.21-3.16,2.31-6.11,2.3-8.48l-.12-90.04-21.36.03c-4.44,0-8.86,2.42-12.6,4.92l1.05-6.53,37.07.02,41.12.03,1.88,7.79c-3.01-2.8-7.18-6.09-11.34-6.13l-23.37-.23-.15,89.03Z"/>
    <path class="st0" d="M176.95,183.75l-17.35-.08c.75-1.62,2.47-5.42,2.47-7.1l.11-85.15c0-2.14-1.45-5.44-2.5-7.8l17.74-.23-3.03,6.7-.04,86.46,2.6,7.21Z"/>
    <path class="st0" d="M316.79,183.64l-16.14.11c.77-2.35,1.91-5.98,1.91-8.54l.06-84.92-2.19-6.79,16.77-.04c-.93,2.56-2.16,5.78-2.16,7.96l-.02,85.07,1.78,7.16Z"/>
  </g>
  <g>
    <path class="st0" d="M180.69,24.71c-.41-.63-.55-.69-1.04-.69s-.69.25-1.04.72c-.55.74-7.01,10.28-7.08,10.28h16.35s-6.26-8.97-7.19-10.31ZM180.69,24.71c-.41-.63-.55-.69-1.04-.69s-.69.25-1.04.72c-.55.74-7.01,10.28-7.08,10.28h16.35s-6.26-8.97-7.19-10.31ZM0,6.66v51.55h257.7V6.66H0ZM91.45,48.13h-23.58c-7.01,0-6.63-6.68-6.63-6.68h29.25c1.17,0,2.89-1.17,2.89-2.91,0-1.64-1.52-2.92-2.63-2.92h-19.79c-5.59,0-9.94-4.17-9.94-9.8,0-6.36,5.45-9.55,8.66-9.55h23.17c5.77,0,6.29,6.63,6.29,6.63h-28.52c-1.42,0-2.74,1.07-2.74,2.92,0,2.11,1.59,3.12,2.63,3.12h20.17c3.97,0,9.68,3.33,9.68,9.07,0,7.47-6.6,10.12-8.92,10.12ZM153.02,26.75c0,3.79-2.37,7.11-5.7,8.73,0,0-1.73.55-3.31.74h-15.08c-2.67,0-6.12-2.16-6.12-6.85h20.07c1.11-.04,2.93-1.01,2.93-3.08,0-1.91-1.69-3.22-2.86-3.22h-22.37s0,21.22,0,21.22c0,2.32-1.77,3.88-3.71,3.88-1.78,0-3.62-1.61-3.62-3.78v-21.64c0-3.62,3.83-6.54,6.5-6.54h24c3.65,0,9.28,2.98,9.28,10.08v.45ZM201.09,47.28c-1.31,1.11-3.62,1.21-4.9-.46l-3.86-5.34h-25.39l-3.86,5.43c-1.35,1.63-3.05,1.63-4.52.62-1.59-1.05-1.97-3.08-1.04-4.49l16.3-23.24c2.06-2.88,3.69-3.64,5.9-3.64,2.35,0,3.76.86,5.94,3.64l16.14,23.09c.86,1.21.79,3.15-.7,4.4ZM250.9,47.16c-1.42,1.25-3.74,1.42-4.91.06-1.61-1.9-3.51-4.4-8.73-11h-9.35c-2.67,0-6.32-2.12-6.32-6.81h20.26c1.11-.04,2.86-1.1,2.86-3.17,0-1.91-1.69-3.23-2.86-3.23h-22.37v21.23c0,2.32-1.77,3.88-3.67,3.88s-3.67-1.61-3.67-3.78v-21.63c0-3.64,3.83-6.56,6.53-6.56h24c3.64,0,9.25,2.98,9.25,10.08v.45c0,3.79-2.35,7.12-5.69,8.72,0,0,.24.37,5.42,7.37.65.9.69,3.08-.76,4.38ZM179.65,24.02c-.48,0-.69.25-1.04.72-.55.74-7.01,10.28-7.08,10.28h16.35s-6.26-8.97-7.19-10.31c-.41-.63-.55-.69-1.04-.69Z"/>
    <g id="Group">
      <path class="st0" d="M309.09,0c-18.39,0-33.21,14.82-33.21,33.21,0,11.96,5.98,22.63,16.56,27.83,9.97,4.93,23.24,4.93,33.21,0,9.89-4.87,16.56-15.95,16.56-27.83,0-18.3-14.84-33.21-33.12-33.21ZM331.45,47.25c-2.77,4.85-7.87,7.81-13.43,7.98-3.02.08-5.54-2.35-5.63-5.37v-5.29h17.42c-7.45-8.06-17.42-24.62-20.72-35.98-3.38,11.36-13.35,27.92-20.55,36.06h17.25v4.93c0,2.79-2.26,5.73-5.46,5.64-5.56-.08-10.76-3.04-13.54-7.89-2.52-4.16-4.24-7.54-4.24-14.13,0-14.65,11.88-26.53,26.45-26.53h.08c14.57.17,26.35,11.96,26.53,26.53-.19,4.93-1.57,9.78-4.17,14.04Z"/>
    </g>
  </g>
</svg>