<?xml version="1.0" encoding="UTF-8"?>
<svg id="Layer_1" xmlns="http://www.w3.org/2000/svg" version="1.1" viewBox="0 0 98.36 96">
  <!-- Generator: Adobe Illustrator 30.5.1, SVG Export Plug-In . SVG Version: 2.1.4 Build 3)  -->
  <defs>
    <style>
      .st0 {
        fill: #fff;
      }
    </style>
  </defs>
  <g id="Group">
    <path class="st0" d="M49.24,0C21.98,0,0,21.98,0,49.24c0,17.74,8.87,33.55,24.56,41.27,14.78,7.32,34.46,7.32,49.24,0,14.66-7.22,24.56-23.66,24.56-41.27C98.36,22.1,76.35,0,49.24,0ZM82.39,70.06c-4.11,7.19-11.68,11.58-19.92,11.83-4.49.13-8.22-3.48-8.34-7.97v-7.84h25.84c-11.05-11.95-25.84-36.51-30.72-53.35-5.01,16.84-19.8,41.4-30.47,53.48h25.58v7.32c0,4.13-3.36,8.49-8.09,8.37-8.24-.13-15.96-4.51-20.07-11.7-3.73-6.16-6.29-11.18-6.29-20.95,0-21.73,17.62-39.34,39.22-39.34h.13c21.6.25,39.07,17.74,39.34,39.34-.28,7.32-2.33,14.51-6.19,20.82Z"/>
  </g>
</svg>