<?xml version="1.0" encoding="UTF-8"?>
<svg id="Layer_1" xmlns="http://www.w3.org/2000/svg" version="1.1" viewBox="0 0 330.07 112.42">
  <!-- Generator: Adobe Illustrator 30.5.1, SVG Export Plug-In . SVG Version: 2.1.4 Build 3)  -->
  <defs>
    <style>
      .st0 {
        fill: #fdc500;
      }

      .st1 {
        fill: #fff;
      }

      .st2 {
        fill: #00a082;
      }
    </style>
  </defs>
  <g>
    <g id="g28">
      <path id="path30" class="st1" d="M138.62,31.64c-1.68,0-3.18,0-3.93.12-1.5.12-2.02,1.56-1.91,2.95,1.39,20.16-3.24,43.51-8.26,43.51-3.76,0-4.68-10.98-4.62-20.74,0-5.78.4-11.32.58-16.18.06-1.79-.58-2.2-1.91-2.31-1.96-.23-3.41-.29-5.37.17-1.5.35-1.91,1.56-3.52,5.32-8.09,18.72-15.83,33.74-15.83,33.74-1.91-15.14.81-29.81,3.12-40.5.29-1.5-.4-2.37-1.62-2.37-2.31,0-5.78.06-7.4,1.1-1.5.98-2.02,1.96-2.48,4.1-2.54,12.25-4.28,27.62-1.91,39.58.52,2.6,1.1,3.18,2.2,3.87s5.72,1.33,7.57,1.33c2.08,0,3.93-.52,5.55-3.18,3.35-5.66,6.07-11.32,11.15-22.19.4,14.21,2.31,25.42,12.31,25.54,13.23.12,22.07-32.93,22.24-48.88,0-4.22-2.02-4.91-5.89-4.97"/>
    </g>
    <g id="g32">
      <path id="path34" class="st1" d="M228.98,50.01s-4.45-.29-9.65-.52c0,0,1.1-5.72,1.62-8.03.29-1.16-.35-2.25-1.79-2.66-1.44-.35-4.74-.4-5.84-.29-.92.12-1.85.64-2.02,1.62-.52,2.37-1.1,5.26-1.79,8.96-1.91-.06-3.76-.12-5.08-.06-1.21,0-1.79.64-2.02,1.62s-.46,2.43-.58,3.87c-.06,1.1,1.16,1.68,2.37,1.62,0,0,1.5,0,3.93-.17-.46,2.08-1.39,7.68-1.79,11.21-2.25,7.22-6.76,12.6-10.63,12.54-2.37,0-3.76-1.44-3.76-5.72,0-5.89,1.44-13.35,3.52-20.8,2.83-6.7,4.51-14.16,4.56-17.51,0-1.27-.35-2.72-1.91-3-2.77-.58-5.37-.52-7.22.06-1.62.52-1.96,2.2-2.2,3.12-.98,4.39-2.6,12.19-3.76,19.07-2.43,2.89-5.2,4.91-8.2,5.37-.4-9.07-5.66-13.06-12.94-13.12-12.77-.12-21.03,11.21-21.15,23.98-.12,10.34,5.55,14.73,13.75,14.79,9.71.06,16.99-6.76,19.82-19.36,2.77-.52,5.14-1.85,7.22-3.7,0,0-1.62,7.8-1.68,12.42-.06,6.99,2.89,10.86,9.94,10.92,5.78,0,10.86-3.99,14.04-8.9.81,6.47,4.16,9.07,9.65,9.13,5.03,0,9.94-3.12,13.4-8.84.69-1.16,1.21-2.14.75-2.66-.98-1.16-2.89-1.79-3.41-.81-2.31,4.1-4.74,5.78-7.4,5.78-2.08,0-3.76-1.27-3.76-4.91,0-5.26,3.12-19.36,3.12-19.36,2.6-.06,5.49-.12,8.2-.17,2.43,0,4.1-.75,4.56-3,.23-1.33-.52-2.25-2.08-2.31M158.09,80.23c-2.95,0-4.91-2.6-4.85-7.63.06-9.65,3.58-19.99,9.76-19.93.69,0,1.33.12,1.85.35-.12.35-.17.69-.23.87-.98,5.49.12,8.96,2.72,10.92-1.39,8.44-5.2,15.48-9.3,15.48"/>
    </g>
  </g>
  <rect class="st0" x="9.54" y="20.95" width="311" height="70.52" rx="19.54" ry="19.54"/>
  <g>
    <path class="st2" d="M82.44,57.72v-.09c0-9.31,7.12-17.19,17.16-17.19,4.99,0,8.31,1.19,11.35,3.38.75.56,1.19,1.44,1.19,2.37,0,1.6-1.29,2.89-2.89,2.89h0c-.76,0-1.34-.33-1.8-.67-2.13-1.55-4.47-2.62-8.06-2.62-6.15,0-10.8,5.39-10.8,11.74v.09c0,6.85,4.5,11.9,11.32,11.9,3.13,0,5.99-1,8.03-2.53v-6.24h-6.57c-1.43,0-2.62-1.1-2.62-2.53s1.19-2.56,2.62-2.56h9.28c1.67,0,2.95,1.28,2.95,2.95v8.88c0,1.67-.67,2.86-2.04,3.71-2.86,1.92-6.85,3.62-11.84,3.62-10.44-.03-17.28-7.46-17.28-17.13M118.8,42.17c-.01-1.57,1.25-2.85,2.82-2.86.01,0,.03,0,.04,0,1.61,0,2.89,1.28,2.89,2.86v29.45c0,1.61-1.28,2.86-2.89,2.86-1.57.01-2.85-1.25-2.86-2.82,0-.01,0-.03,0-.04v-29.45ZM129.02,61.86v-.09c0-7.18,5.69-13.11,13.39-13.11s13.36,5.84,13.36,13.02v.09c0,7.12-5.69,13.08-13.45,13.08-7.64-.03-13.3-5.87-13.3-12.99M150.02,61.86v-.09c0-4.41-3.2-8.09-7.7-8.09s-7.55,3.62-7.55,7.97v.09c0,4.38,3.2,8.03,7.64,8.03,4.66.03,7.61-3.59,7.61-7.91M170.13,74.73h-.27c-1.58,0-2.62-1-3.29-2.53l-8.37-19.14c-.15-.43-.33-.91-.33-1.43,0-1.43,1.28-2.77,2.86-2.77s2.37.91,2.86,2.1l6.45,16.64,6.57-16.73c.43-1,1.19-2.01,2.71-2.01s2.8,1.19,2.8,2.77c0,.52-.18,1.1-.33,1.37l-8.37,19.2c-.67,1.49-1.7,2.53-3.29,2.53M184.22,61.86v-.09c0-7.18,5.69-13.11,13.39-13.11s13.36,5.84,13.36,13.02v.09c0,7.12-5.69,13.08-13.45,13.08-7.67-.03-13.3-5.87-13.3-12.99M205.21,61.86v-.09c0-4.41-3.2-8.09-7.7-8.09s-7.55,3.62-7.55,7.97v.09c0,4.38,3.19,8.03,7.67,8.03,4.63.03,7.58-3.59,7.58-7.91"/>
    <path class="st2" d="M220.58,25.86c-6.24,0-11.29,5.05-11.29,11.29,0,2.37.73,4.66,2.13,6.57l.3.43,5.87,8.31s.73,1.19,2.28,1.19h1.43c1.55,0,2.28-1.19,2.28-1.19l5.87-8.31.31-.43c1.4-1.95,2.13-4.2,2.13-6.57-.03-6.24-5.08-11.29-11.32-11.29M225.23,40.5l-.3.43-4.32,6.12-4.35-6.12-.31-.46c-.7-1-1.1-2.13-1.1-3.35,0-3.16,2.55-5.72,5.71-5.72h.01c3.16,0,5.72,2.55,5.72,5.71h0c0,1.22-.37,2.4-1.07,3.39M217.41,58.72c0-1.7,1.34-3.1,3.13-3.1s3.13,1.37,3.13,3.07v.03c0,1.67-1.34,3.07-3.16,3.07-1.8-.03-3.1-1.4-3.1-3.07"/>
  </g>
</svg>