<?xml version="1.0" encoding="UTF-8"?>
<svg id="Layer_1" xmlns="http://www.w3.org/2000/svg" version="1.1" viewBox="0 0 311 59.56">
  <!-- Generator: Adobe Illustrator 30.5.1, SVG Export Plug-In . SVG Version: 2.1.4 Build 3)  -->
  <defs>
    <style>
      .st0 {
        fill: #00a082;
      }
    </style>
  </defs>
  <path class="st0" d="M68.97,36.15v-.09c0-9.31,7.12-17.19,17.16-17.19,4.99,0,8.31,1.19,11.35,3.38.75.56,1.19,1.44,1.19,2.37,0,1.6-1.29,2.89-2.89,2.89h0c-.76,0-1.34-.33-1.8-.67-2.13-1.55-4.47-2.62-8.06-2.62-6.15,0-10.8,5.39-10.8,11.74v.09c0,6.85,4.5,11.9,11.32,11.9,3.13,0,5.99-1,8.03-2.53v-6.24h-6.57c-1.43,0-2.62-1.1-2.62-2.53s1.19-2.56,2.62-2.56h9.28c1.67,0,2.95,1.28,2.95,2.95v8.88c0,1.67-.67,2.86-2.04,3.71-2.86,1.92-6.85,3.62-11.84,3.62-10.44-.03-17.28-7.46-17.28-17.13M105.33,20.61c-.01-1.57,1.25-2.85,2.82-2.86.01,0,.03,0,.04,0,1.61,0,2.89,1.28,2.89,2.86v29.45c0,1.61-1.28,2.86-2.89,2.86-1.57.01-2.85-1.25-2.86-2.82,0-.01,0-.03,0-.04v-29.45ZM115.55,40.29v-.09c0-7.18,5.69-13.11,13.39-13.11s13.36,5.84,13.36,13.02v.09c0,7.12-5.69,13.08-13.45,13.08-7.64-.03-13.3-5.87-13.3-12.99M136.55,40.29v-.09c0-4.41-3.2-8.09-7.7-8.09s-7.55,3.62-7.55,7.97v.09c0,4.38,3.2,8.03,7.64,8.03,4.66.03,7.61-3.59,7.61-7.91M156.66,53.16h-.27c-1.58,0-2.62-1-3.29-2.53l-8.37-19.14c-.15-.43-.33-.91-.33-1.43,0-1.43,1.28-2.77,2.86-2.77s2.37.91,2.86,2.1l6.45,16.64,6.57-16.73c.43-1,1.19-2.01,2.71-2.01s2.8,1.19,2.8,2.77c0,.52-.18,1.1-.33,1.37l-8.37,19.2c-.67,1.49-1.7,2.53-3.29,2.53M170.75,40.29v-.09c0-7.18,5.69-13.11,13.39-13.11s13.36,5.84,13.36,13.02v.09c0,7.12-5.69,13.08-13.45,13.08-7.67-.03-13.3-5.87-13.3-12.99M191.74,40.29v-.09c0-4.41-3.2-8.09-7.7-8.09s-7.55,3.62-7.55,7.97v.09c0,4.38,3.19,8.03,7.67,8.03,4.63.03,7.58-3.59,7.58-7.91"/>
  <path class="st0" d="M207.11,4.3c-6.24,0-11.29,5.05-11.29,11.29,0,2.37.73,4.66,2.13,6.57l.3.43,5.87,8.31s.73,1.19,2.28,1.19h1.43c1.55,0,2.28-1.19,2.28-1.19l5.87-8.31.31-.43c1.4-1.95,2.13-4.2,2.13-6.57-.03-6.24-5.08-11.29-11.32-11.29M211.76,18.93l-.3.43-4.32,6.12-4.35-6.12-.31-.46c-.7-1-1.1-2.13-1.1-3.35,0-3.16,2.55-5.72,5.71-5.72h.01c3.16,0,5.72,2.55,5.72,5.71h0c0,1.22-.37,2.4-1.07,3.39M203.94,37.16c0-1.7,1.34-3.1,3.13-3.1s3.13,1.37,3.13,3.07v.03c0,1.67-1.34,3.07-3.16,3.07-1.8-.03-3.1-1.4-3.1-3.07"/>
</svg>