<?xml version="1.0" encoding="UTF-8"?>
<svg id="Layer_1" xmlns="http://www.w3.org/2000/svg" version="1.1" viewBox="0 0 330.07 112.42">
  <!-- Generator: Adobe Illustrator 30.5.1, SVG Export Plug-In . SVG Version: 2.1.4 Build 3)  -->
  <defs>
    <style>
      .st0 {
        fill: #fdc500;
      }

      .st1 {
        fill: #fff;
      }

      .st2 {
        fill: #00c2e8;
      }

      .st3 {
        fill: #00a082;
      }
    </style>
  </defs>
  <rect class="st2" x="8.9" y="20.95" width="311" height="70.52" rx="19.54" ry="19.54"/>
  <path class="st0" d="M319.91,40.5v31.43c0,10.79-8.75,19.54-19.55,19.54h-135.95V20.95h135.95c10.8,0,19.55,8.75,19.55,19.55Z"/>
  <g>
    <g id="g28">
      <path id="path30" class="st1" d="M77.4,43.39c-.84,0-1.59,0-1.97.06-.75.06-1.01.78-.95,1.47.69,10.09-1.62,21.77-4.13,21.77-1.88,0-2.34-5.49-2.31-10.38,0-2.89.2-5.67.29-8.1.03-.9-.29-1.1-.95-1.16-.98-.12-1.71-.14-2.69.09-.75.17-.95.78-1.76,2.66-4.05,9.37-7.92,16.89-7.92,16.89-.95-7.58.4-14.92,1.56-20.27.14-.75-.2-1.19-.81-1.19-1.16,0-2.89.03-3.7.55-.75.49-1.01.98-1.24,2.05-1.27,6.13-2.14,13.82-.95,19.81.26,1.3.55,1.59,1.1,1.94s2.86.67,3.79.67c1.04,0,1.97-.26,2.78-1.59,1.68-2.83,3.04-5.67,5.58-11.1.2,7.11,1.16,12.72,6.16,12.78,6.62.06,11.05-16.48,11.13-24.46,0-2.11-1.01-2.46-2.95-2.49"/>
    </g>
    <g id="g32">
      <path id="path34" class="st1" d="M122.62,52.58s-2.23-.14-4.83-.26c0,0,.55-2.86.81-4.02.14-.58-.17-1.13-.9-1.33-.72-.17-2.37-.2-2.92-.14-.46.06-.93.32-1.01.81-.26,1.19-.55,2.63-.9,4.48-.95-.03-1.88-.06-2.54-.03-.61,0-.9.32-1.01.81s-.23,1.21-.29,1.94c-.03.55.58.84,1.19.81,0,0,.75,0,1.97-.09-.23,1.04-.69,3.85-.9,5.61-1.13,3.61-3.38,6.3-5.32,6.27-1.19,0-1.88-.72-1.88-2.86,0-2.95.72-6.68,1.76-10.41,1.42-3.35,2.26-7.08,2.28-8.76,0-.64-.17-1.36-.95-1.5-1.39-.29-2.69-.26-3.61.03-.81.26-.98,1.1-1.1,1.56-.49,2.2-1.3,6.1-1.88,9.54-1.21,1.45-2.6,2.46-4.11,2.69-.2-4.54-2.83-6.53-6.48-6.56-6.39-.06-10.52,5.61-10.58,12-.06,5.18,2.78,7.37,6.88,7.4,4.86.03,8.5-3.38,9.92-9.69,1.39-.26,2.57-.93,3.61-1.85,0,0-.81,3.9-.84,6.22-.03,3.5,1.45,5.44,4.97,5.46,2.89,0,5.44-2,7.03-4.45.4,3.24,2.08,4.54,4.83,4.57,2.52,0,4.97-1.56,6.71-4.42.35-.58.61-1.07.38-1.33-.49-.58-1.45-.9-1.71-.4-1.16,2.05-2.37,2.89-3.7,2.89-1.04,0-1.88-.64-1.88-2.46,0-2.63,1.56-9.69,1.56-9.69,1.3-.03,2.75-.06,4.11-.09,1.21,0,2.05-.38,2.28-1.5.12-.67-.26-1.13-1.04-1.16M87.14,67.7c-1.47,0-2.46-1.3-2.43-3.82.03-4.83,1.79-10,4.89-9.98.35,0,.67.06.93.17-.06.17-.09.35-.12.43-.49,2.75.06,4.48,1.36,5.46-.69,4.22-2.6,7.75-4.66,7.75"/>
    </g>
  </g>
  <g>
    <path class="st3" d="M188.17,58.51v-.07c0-6.69,5.12-12.36,12.34-12.36,3.59,0,5.97.85,8.16,2.43.54.4.85,1.03.85,1.71,0,1.15-.93,2.08-2.08,2.08h0c-.55,0-.96-.24-1.29-.48-1.53-1.12-3.22-1.88-5.8-1.88-4.42,0-7.76,3.87-7.76,8.44v.07c0,4.92,3.24,8.55,8.14,8.55,2.25,0,4.31-.72,5.77-1.82v-4.48h-4.72c-1.03,0-1.88-.79-1.88-1.82s.85-1.84,1.88-1.84h6.67c1.2,0,2.12.92,2.12,2.12v6.39c0,1.2-.48,2.06-1.47,2.67-2.06,1.38-4.92,2.6-8.51,2.6-7.5-.02-12.42-5.36-12.42-12.31M214.3,47.34c0-1.13.9-2.05,2.02-2.06.01,0,.02,0,.03,0,1.16,0,2.08.92,2.08,2.06v21.17c0,1.16-.92,2.06-2.08,2.06-1.13,0-2.05-.9-2.06-2.02,0-.01,0-.02,0-.03v-21.17ZM221.65,61.49v-.07c0-5.16,4.09-9.43,9.62-9.43s9.6,4.2,9.6,9.36v.07c0,5.12-4.09,9.4-9.67,9.4-5.49-.02-9.56-4.22-9.56-9.34M236.74,61.49v-.07c0-3.17-2.3-5.82-5.53-5.82s-5.42,2.6-5.42,5.73v.07c0,3.15,2.3,5.77,5.49,5.77,3.35.02,5.47-2.58,5.47-5.69M251.2,70.74h-.2c-1.14,0-1.88-.72-2.36-1.82l-6.01-13.76c-.11-.31-.24-.66-.24-1.03,0-1.03.92-1.99,2.06-1.99s1.71.66,2.06,1.51l4.64,11.96,4.72-12.03c.31-.72.85-1.44,1.95-1.44s2.01.85,2.01,1.99c0,.37-.13.79-.24.98l-6.01,13.8c-.48,1.07-1.22,1.82-2.36,1.82M261.32,61.49v-.07c0-5.16,4.09-9.43,9.62-9.43s9.6,4.2,9.6,9.36v.07c0,5.12-4.09,9.4-9.67,9.4-5.51-.02-9.56-4.22-9.56-9.34M276.41,61.49v-.07c0-3.17-2.3-5.82-5.53-5.82s-5.42,2.6-5.42,5.73v.07c0,3.15,2.3,5.77,5.51,5.77,3.32.02,5.45-2.58,5.45-5.69"/>
    <path class="st3" d="M287.46,35.62c-4.48,0-8.11,3.63-8.11,8.11,0,1.71.52,3.35,1.53,4.72l.22.31,4.22,5.97s.53.85,1.64.85h1.03c1.12,0,1.64-.85,1.64-.85l4.22-5.97.22-.31c1.01-1.4,1.53-3.02,1.53-4.72-.02-4.48-3.65-8.11-8.14-8.11M290.8,46.14l-.22.31-3.11,4.4-3.13-4.4-.22-.33c-.5-.72-.79-1.53-.79-2.41,0-2.27,1.83-4.11,4.1-4.11h0c2.27,0,4.11,1.83,4.11,4.1h0c0,.88-.27,1.73-.77,2.44M285.18,59.24c0-1.22.96-2.23,2.25-2.23s2.25.98,2.25,2.21v.02c0,1.2-.96,2.21-2.27,2.21-1.29-.02-2.23-1.01-2.23-2.21"/>
  </g>
</svg>