<svg width="117" height="32" viewBox="0 0 117 32" fill="none" xmlns="http://www.w3.org/2000/svg">
<path d="M8.26658 0.000148773C2.59618 0.000148773 -0.451675 6.77324 3.44673 10.7533L3.51761 10.8231L12.0232 19.2021L20.5288 10.8231L20.5997 10.7533C24.569 6.77324 21.4502 0.000148773 15.7798 0.000148773H8.26658Z" fill="white"/>
<path d="M20.5288 16.5486L19.4656 15.5012L12.0232 22.8329L4.58076 15.5012L3.51756 16.5486C0.824116 19.202 -0.23908 22.6234 0.0444412 25.8354C0.186201 27.0923 1.2494 28 2.52524 28L21.4502 28C22.726 28 23.8601 27.0923 23.931 25.8354C24.2854 22.6234 23.2931 19.2718 20.5288 16.5486Z" fill="white"/>
<path d="M33.4531 25V7.53906H45.1953V10.2227H36.5469V14.9922H44.5742V17.6172H36.5469V25H33.4531ZM50.1528 25.2461C48.8559 25.2461 47.7973 24.8281 46.977 23.9922C46.1567 23.1562 45.7466 21.9453 45.7466 20.3594V12.625H48.6997V19.8906C48.6997 20.7969 48.9184 21.4844 49.3559 21.9531C49.7934 22.4219 50.4067 22.6562 51.1958 22.6562C51.977 22.6562 52.6216 22.4141 53.1294 21.9297C53.645 21.4453 53.9028 20.6758 53.9028 19.6211V12.625H56.8677V25H53.9614V23.1016C53.0942 24.5312 51.8247 25.2461 50.1528 25.2461ZM61.9775 18.0039V25H59.0244V12.625H61.9306V14.5234C62.79 13.0938 64.0556 12.3789 65.7275 12.3789C67.0244 12.3789 68.083 12.7969 68.9033 13.6328C69.7314 14.4688 70.1455 15.6797 70.1455 17.2656V25H67.1806V17.7344C67.1806 16.8281 66.9619 16.1406 66.5244 15.6719C66.0869 15.2031 65.4736 14.9688 64.6845 14.9688C63.9111 14.9688 63.2666 15.2109 62.7509 15.6953C62.2353 16.1797 61.9775 16.9492 61.9775 18.0039ZM77.0834 25.2461C76.0053 25.2461 75.0639 24.9766 74.2592 24.4375C73.4545 23.8984 72.8295 23.1484 72.3842 22.1875C71.9467 21.2188 71.728 20.0898 71.728 18.8008C71.728 17.5352 71.9506 16.4219 72.3959 15.4609C72.8413 14.4922 73.4663 13.7383 74.2709 13.1992C75.0756 12.6523 76.0053 12.3789 77.06 12.3789C77.8647 12.3789 78.5873 12.543 79.228 12.8711C79.8686 13.1992 80.3881 13.7031 80.7866 14.3828H80.81V7.53906H83.7631V25H80.8569V23.1133H80.8334C80.4428 23.832 79.9194 24.3672 79.2631 24.7188C78.6147 25.0703 77.8881 25.2461 77.0834 25.2461ZM77.7748 22.7734C78.7436 22.7734 79.517 22.4141 80.0952 21.6953C80.6811 20.9688 80.9741 20.0039 80.9741 18.8008C80.9741 17.5977 80.6811 16.6367 80.0952 15.918C79.517 15.1914 78.7436 14.8281 77.7748 14.8281C76.8608 14.8281 76.1225 15.1719 75.56 15.8594C74.9975 16.5469 74.7163 17.5273 74.7163 18.8008C74.7163 20.082 74.9975 21.0664 75.56 21.7539C76.1225 22.4336 76.8608 22.7734 77.7748 22.7734ZM88.8613 7.53906V25H85.9081V7.53906H88.8613ZM96.4672 25.2812C95.2328 25.2812 94.1625 25.0039 93.2562 24.4492C92.35 23.8945 91.6508 23.1328 91.1586 22.1641C90.6742 21.1875 90.432 20.0742 90.432 18.8242C90.432 17.5664 90.682 16.4531 91.182 15.4844C91.6898 14.5078 92.3891 13.7422 93.2797 13.1875C94.1703 12.625 95.1937 12.3438 96.35 12.3438C97.5375 12.3438 98.5766 12.6172 99.4672 13.1641C100.358 13.7109 101.049 14.4688 101.541 15.4375C102.034 16.3984 102.28 17.5117 102.28 18.7773V19.5859H93.3266C93.3656 20.5938 93.6625 21.4062 94.2172 22.0234C94.7719 22.6406 95.5453 22.9492 96.5375 22.9492C97.2797 22.9492 97.893 22.7891 98.3773 22.4688C98.8617 22.1406 99.1898 21.7109 99.3617 21.1797H102.127C101.971 21.9844 101.627 22.6953 101.096 23.3125C100.573 23.9297 99.9125 24.4141 99.1156 24.7656C98.3187 25.1094 97.4359 25.2812 96.4672 25.2812ZM93.35 17.5469H99.4437C99.35 16.6641 99.0297 15.9688 98.4828 15.4609C97.9437 14.9453 97.2484 14.6875 96.3969 14.6875C95.5375 14.6875 94.8383 14.9453 94.2992 15.4609C93.768 15.9688 93.4516 16.6641 93.35 17.5469Z" fill="white"/>
</svg>
