<svg width="105" height="23" viewBox="0 0 105 23" fill="none" xmlns="http://www.w3.org/2000/svg">
<path d="M7.71039 21.958L0.000390667 0.658007H2.82039L9.42039 19.138L15.9904 0.658007H18.8104L11.1004 21.958H7.71039ZM21.4963 21.958V0.658007H34.8763V3.17801H24.0763V10.048H34.5163V12.508H24.0763V19.438H35.1163V21.958H21.4963ZM41.6172 0.893555C41.7344 0.473633 42.0225 0.253906 42.4814 0.234375H43.3896C43.6045 0.234375 43.7754 0.3125 43.9023 0.46875C44.0391 0.615234 44.127 0.849609 44.166 1.17188L46.832 16.3477L50.7578 0.893555C50.8848 0.454102 51.1875 0.234375 51.666 0.234375H52.5303C52.7744 0.234375 52.9502 0.327148 53.0576 0.512695C53.165 0.688477 53.1895 0.908203 53.1309 1.17188L48.0039 21.2988C47.8867 21.7383 47.584 21.958 47.0957 21.958H46.0264C45.8799 21.958 45.7578 21.9141 45.6602 21.8262C45.5625 21.7383 45.4844 21.4746 45.4258 21.0352L42.7891 5.90332L38.8486 21.2988C38.7314 21.7383 38.4336 21.958 37.9551 21.958H37.0762C36.8418 21.958 36.6709 21.8701 36.5635 21.6943C36.4463 21.5088 36.417 21.2891 36.4756 21.0352L41.6172 0.893555ZM52.5156 15.4541C52.5156 13.6279 52.7842 11.8115 53.3213 10.0049C53.8682 8.19824 54.5273 6.58203 55.2988 5.15625C56.0703 3.7207 57.0225 2.50488 58.1553 1.50879C59.2979 0.50293 60.4795 0 61.7002 0C62.54 0 63.4092 0.27832 64.3076 0.834961C64.9326 1.21582 65.3623 1.81641 65.5967 2.63672C65.8408 3.45703 65.9629 4.66797 65.9629 6.26953C65.9629 7.87109 65.6113 10 64.9082 12.6562C64.2734 15.1172 63.3359 17.2559 62.0957 19.0723C61.4316 20.0195 60.6455 20.7568 59.7373 21.2842C58.8291 21.8115 57.9502 22.085 57.1006 22.1045C56.251 22.124 55.4355 21.9238 54.6543 21.5039C53.2285 20.7715 52.5156 18.7549 52.5156 15.4541ZM55.8555 10.415C55.2891 12.2705 55.001 13.96 54.9912 15.4834C54.9814 16.9971 55.1572 18.1396 55.5186 18.9111C55.8799 19.6826 56.3486 20.0684 56.9248 20.0684C57.9893 20.0684 58.9219 19.5459 59.7227 18.501C60.6992 17.1436 61.6367 15.0049 62.5352 12.085C63.3555 9.28223 63.6582 6.97754 63.4434 5.1709C63.2383 3.36426 62.6182 2.46094 61.583 2.46094C60.4795 2.46094 59.498 3.01758 58.6387 4.13086C57.584 5.53711 56.6562 7.63184 55.8555 10.415ZM68.4592 21.958V0.658007H76.5292C78.0292 0.658007 79.3192 0.918007 80.3992 1.43801C81.4792 1.95801 82.3092 2.70801 82.8892 3.68801C83.4892 4.64801 83.7892 5.78801 83.7892 7.10801C83.7892 8.06801 83.5592 8.92801 83.0992 9.68801C82.6592 10.428 82.0892 11.018 81.3892 11.458C80.6892 11.898 79.9592 12.138 79.1992 12.178L79.0192 11.908C80.3192 11.908 81.3392 12.208 82.0792 12.808C82.8392 13.408 83.2792 14.368 83.3992 15.688L83.9992 21.958H81.3892L80.8492 15.958C80.7692 15.078 80.4492 14.428 79.8892 14.008C79.3492 13.588 78.4592 13.378 77.2192 13.378H71.0392V21.958H68.4592ZM71.0392 10.858H76.8592C78.1592 10.858 79.1892 10.528 79.9492 9.86801C80.7092 9.20801 81.0892 8.26801 81.0892 7.04801C81.0892 5.80801 80.6992 4.85801 79.9192 4.19801C79.1392 3.51801 78.0092 3.17801 76.5292 3.17801H71.0392V10.858ZM86.1625 21.958L93.8425 0.658007H97.3225L105.003 21.958H102.183L100.053 15.898H91.1125L88.9825 21.958H86.1625ZM91.9825 13.378H99.1825L95.5825 2.90801L91.9825 13.378Z" fill="black"/>
</svg>
