<svg width="20" height="20" viewBox="0 0 20 20" fill="none" xmlns="http://www.w3.org/2000/svg">
<path d="M12.134 9.99992C12.134 10.4219 12.0089 10.8343 11.7745 11.1851C11.54 11.536 11.2069 11.8094 10.817 11.9709C10.4272 12.1323 9.99828 12.1746 9.58446 12.0923C9.17063 12.0099 8.79051 11.8068 8.49216 11.5084C8.1938 11.2101 7.99062 10.8299 7.90831 10.4161C7.82599 10.0023 7.86824 9.57334 8.02971 9.18353C8.19117 8.79371 8.46461 8.46053 8.81543 8.22612C9.16626 7.9917 9.57872 7.86658 10.0007 7.86658C10.5659 7.86834 11.1075 8.09367 11.5072 8.49337C11.9069 8.89306 12.1322 9.43466 12.134 9.99992ZM16.6673 7.06659V12.9333C16.6673 13.9234 16.274 14.873 15.5738 15.5731C14.8737 16.2733 13.9241 16.6666 12.934 16.6666H7.06732C6.07718 16.6666 5.12759 16.2733 4.42745 15.5731C3.72732 14.873 3.33398 13.9234 3.33398 12.9333V7.06659C3.33398 6.07644 3.72732 5.12686 4.42745 4.42672C5.12759 3.72658 6.07718 3.33325 7.06732 3.33325H12.934C13.9241 3.33325 14.8737 3.72658 15.5738 4.42672C16.274 5.12686 16.6673 6.07644 16.6673 7.06659ZM13.2007 9.99992C13.2007 9.36702 13.013 8.74833 12.6614 8.22209C12.3097 7.69586 11.81 7.2857 11.2252 7.0435C10.6405 6.8013 9.9971 6.73793 9.37636 6.86141C8.75562 6.98488 8.18544 7.28965 7.73791 7.73718C7.29038 8.1847 6.98561 8.75489 6.86214 9.37563C6.73867 9.99637 6.80204 10.6398 7.04424 11.2245C7.28644 11.8092 7.69659 12.309 8.22283 12.6606C8.74906 13.0122 9.36775 13.1999 10.0007 13.1999C10.8493 13.1999 11.6633 12.8628 12.2634 12.2627C12.8635 11.6625 13.2007 10.8486 13.2007 9.99992ZM14.2673 6.53325C14.2673 6.37503 14.2204 6.22036 14.1325 6.0888C14.0446 5.95724 13.9196 5.8547 13.7735 5.79415C13.6273 5.7336 13.4664 5.71776 13.3112 5.74862C13.1561 5.77949 13.0135 5.85568 12.9016 5.96757C12.7898 6.07945 12.7136 6.22199 12.6827 6.37718C12.6518 6.53236 12.6677 6.69322 12.7282 6.8394C12.7888 6.98558 12.8913 7.11052 13.0229 7.19843C13.1544 7.28633 13.3091 7.33325 13.4673 7.33325C13.6795 7.33325 13.883 7.24897 14.033 7.09894C14.183 6.94891 14.2673 6.74542 14.2673 6.53325Z" fill="white"/>
</svg>
