<svg width="110" height="26" viewBox="0 0 110 26" fill="none" xmlns="http://www.w3.org/2000/svg">
<g clip-path="url(#clip0_1_61)">
<path d="M32.265 18.36H40.0907V16.0771H35.0464V7.47809H32.265V18.36Z" fill="#B5B5B5"/>
<path d="M44.7273 16.8381C43.6115 16.8381 43.0301 15.8945 43.0301 14.4791C43.0301 13.0637 43.6115 12.1049 44.7273 12.1049C45.843 12.1049 46.4401 13.0637 46.4401 14.4791C46.4401 15.8945 45.843 16.8381 44.7273 16.8381ZM44.743 18.6036C47.3358 18.6036 49.033 16.8229 49.033 14.4791C49.033 12.1353 47.3358 10.3546 44.743 10.3546C42.1658 10.3546 40.4373 12.1353 40.4373 14.4791C40.4373 16.8229 42.1658 18.6036 44.743 18.6036Z" fill="#B5B5B5"/>
<path d="M53.521 21.0539C54.7153 21.0539 55.7681 20.7952 56.4753 20.1864C57.1196 19.6233 57.5438 18.771 57.5438 17.5991V10.5676H55.0924V11.4047H55.061C54.5896 10.7503 53.8667 10.3394 52.7981 10.3394C50.8024 10.3394 49.4196 11.9526 49.4196 14.2356C49.4196 16.625 51.101 17.9339 52.9081 17.9339C53.8824 17.9339 54.4953 17.5534 54.9667 17.0359H55.0296V17.8121C55.0296 18.7557 54.5738 19.3036 53.4896 19.3036C52.641 19.3036 52.2167 18.9536 52.0753 18.5427H49.5924C49.8438 20.1712 51.3053 21.0539 53.521 21.0539ZM53.5053 16.0923C52.5467 16.0923 51.9181 15.3314 51.9181 14.1595C51.9181 12.9723 52.5467 12.2114 53.5053 12.2114C54.5738 12.2114 55.1396 13.0941 55.1396 14.1442C55.1396 15.24 54.621 16.0923 53.5053 16.0923Z" fill="#B5B5B5"/>
<path d="M62.5844 16.8381C61.4687 16.8381 60.8873 15.8945 60.8873 14.4791C60.8873 13.0637 61.4687 12.1049 62.5844 12.1049C63.7001 12.1049 64.2973 13.0637 64.2973 14.4791C64.2973 15.8945 63.7001 16.8381 62.5844 16.8381ZM62.6001 18.6036C65.193 18.6036 66.8898 16.8229 66.8898 14.4791C66.8898 12.1353 65.193 10.3546 62.6001 10.3546C60.023 10.3546 58.2944 12.1353 58.2944 14.4791C58.2944 16.8229 60.023 18.6036 62.6001 18.6036Z" fill="#B5B5B5"/>
<path d="M67.6382 18.36H70.1996V10.5676H67.6382V18.36ZM67.6382 9.48706H70.1996V7.47809H67.6382V9.48706Z" fill="#B5B5B5"/>
<path d="M71.3108 20.9321H73.8722V17.5534H73.9036C74.4065 18.2078 75.1451 18.6035 76.1822 18.6035C78.2879 18.6035 79.6865 16.9903 79.6865 14.4638C79.6865 12.12 78.3822 10.3394 76.2451 10.3394C75.1451 10.3394 74.3594 10.8112 73.8094 11.5113H73.7622V10.5676H71.3108V20.9321ZM75.5222 16.6859C74.4222 16.6859 73.7936 15.8184 73.7936 14.5552C73.7936 13.2919 74.3594 12.3331 75.4751 12.3331C76.5751 12.3331 77.0936 13.2158 77.0936 14.5552C77.0936 15.8793 76.4965 16.6859 75.5222 16.6859Z" fill="#B5B5B5"/>
<path d="M83.8567 18.6036C85.9624 18.6036 87.5181 17.7208 87.5181 16.0162C87.5181 14.0225 85.8524 13.6724 84.4381 13.4441C83.4167 13.2615 82.5053 13.1854 82.5053 12.6375C82.5053 12.1505 82.9924 11.9222 83.621 11.9222C84.3281 11.9222 84.8153 12.1353 84.9096 12.8354H87.2667C87.141 11.2982 85.9153 10.3394 83.6367 10.3394C81.7353 10.3394 80.1638 11.1916 80.1638 12.8354C80.1638 14.6617 81.6567 15.027 83.0553 15.2553C84.1238 15.4379 85.0981 15.514 85.0981 16.2141C85.0981 16.7163 84.611 16.9903 83.841 16.9903C82.9924 16.9903 82.4581 16.6098 82.3638 15.8336H79.9438C80.0224 17.5534 81.4996 18.6036 83.8567 18.6036Z" fill="#B5B5B5"/>
<path d="M90.9975 18.5884C92.1132 18.5884 92.8204 18.1622 93.4018 17.4012H93.4489V18.3601H95.9004V10.5677H93.3389V14.9205C93.3389 15.8489 92.8047 16.4881 91.9247 16.4881C91.1075 16.4881 90.7147 16.0163 90.7147 15.164V10.5677H88.1689V15.6814C88.1689 17.4165 89.1432 18.5884 90.9975 18.5884Z" fill="#B5B5B5"/>
<path d="M97.0148 18.36H99.5762V13.992C99.5762 13.0636 100.048 12.4092 100.849 12.4092C101.619 12.4092 101.98 12.8962 101.98 13.7333V18.36H104.542V13.992C104.542 13.0636 104.998 12.4092 105.815 12.4092C106.585 12.4092 106.946 12.8962 106.946 13.7333V18.36H109.508V13.2919C109.508 11.5417 108.596 10.3394 106.773 10.3394C105.736 10.3394 104.872 10.7655 104.243 11.7091H104.212C103.803 10.872 103.002 10.3394 101.949 10.3394C100.786 10.3394 100.016 10.872 99.5133 11.6787H99.4662V10.5676H97.0148V18.36Z" fill="#B5B5B5"/>
<path d="M16.6374 1.25363L14.0623 0.585327L11.8921 8.42944L9.93288 1.34772L7.35764 2.01602L9.47449 9.6673L4.20192 4.56078L2.31674 6.38661L8.10007 11.9879L0.89785 10.1188L0.207825 12.6129L8.07716 14.6551C7.98706 14.2787 7.9394 13.8866 7.9394 13.4837C7.9394 10.6315 10.3267 8.31942 13.2715 8.31942C16.2164 8.31942 18.6036 10.6315 18.6036 13.4837C18.6036 13.884 18.5566 14.2737 18.4676 14.6479L25.6193 16.5038L26.3093 14.0097L18.4087 11.9594L25.6114 10.0902L24.9214 7.59611L17.0211 9.64631L22.2936 4.53981L20.4084 2.71398L14.7053 8.23755L16.6374 1.25363Z" fill="#B5B5B5"/>
<path d="M18.4606 14.6769C18.2398 15.581 17.7737 16.3931 17.1341 17.0438L22.3152 22.0619L24.2004 20.2361L18.4606 14.6769Z" fill="#B5B5B5"/>
<path d="M17.0817 17.0963C16.4344 17.7366 15.6164 18.2144 14.6991 18.4607L16.5844 25.2752L19.1596 24.6069L17.0817 17.0963Z" fill="#B5B5B5"/>
<path d="M14.6029 18.4856C14.1773 18.5916 13.7312 18.6479 13.2715 18.6479C12.779 18.6479 12.3021 18.5832 11.8493 18.4622L9.96228 25.2829L12.5375 25.9512L14.6029 18.4856Z" fill="#B5B5B5"/>
<path d="M11.7583 18.437C10.855 18.1785 10.0515 17.6946 9.41746 17.0524L4.22357 22.0828L6.10876 23.9086L11.7583 18.437Z" fill="#B5B5B5"/>
<path d="M9.3741 17.008C8.7509 16.3618 8.29695 15.5605 8.08088 14.6704L0.905762 16.5325L1.59578 19.0266L9.3741 17.008Z" fill="#B5B5B5"/>
</g>
<defs>
<clipPath id="clip0_1_61">
<rect width="110" height="26" fill="white"/>
</clipPath>
</defs>
</svg>
