<svg width="106" height="28" viewBox="0 0 106 28" fill="none" xmlns="http://www.w3.org/2000/svg">
<path d="M12.2216 5.47644V1.97644H1.62158V26.0235H12.2216V22.5235C10.0502 22.5235 7.96766 21.6255 6.43227 20.027C4.89686 18.4285 4.03427 16.2606 4.03427 14C4.03427 11.7394 4.89686 9.57137 6.43227 7.97293C7.96766 6.37446 10.0502 5.47644 12.2216 5.47644Z" fill="#B5B5B5"/>
<path d="M12.2217 5.47644V22.5235C14.3931 22.5235 16.4756 21.6255 18.011 20.027C19.5464 18.4285 20.409 16.2606 20.409 14C20.409 11.7394 19.5464 9.57137 18.011 7.97293C16.4756 6.37446 14.3931 5.47644 12.2217 5.47644Z" fill="#B5B5B5"/>
<path d="M26.3577 7.61768H28.7308V19.5177H26.3577V7.61768Z" fill="#B5B5B5"/>
<path d="M30.0597 15.4412C30.0597 14.585 30.3039 13.7482 30.7613 13.0366C31.2187 12.3251 31.8687 11.771 32.6289 11.4444C33.3892 11.118 34.2254 11.0338 35.0317 11.2026C35.8379 11.3715 36.5778 11.7857 37.1577 12.3928C37.7375 13 38.1312 13.7726 38.2888 14.613C38.4463 15.4533 38.3607 16.3233 38.0427 17.1129C37.7247 17.9025 37.1888 18.576 36.5027 19.0481C35.8166 19.5202 35.0113 19.7696 34.189 19.7647C33.6435 19.7692 33.1027 19.6602 32.5982 19.4441C32.0938 19.2281 31.6358 18.9094 31.2512 18.5068C30.8666 18.1041 30.5631 17.6254 30.3585 17.099C30.1539 16.5726 30.0523 16.009 30.0597 15.4412ZM36.0084 15.4412C35.999 15.0721 35.8853 14.714 35.6816 14.4118C35.4778 14.1096 35.193 13.8766 34.8627 13.7421C34.5324 13.6075 34.1714 13.5773 33.8248 13.6553C33.478 13.7332 33.1611 13.9158 32.9136 14.1803C32.6661 14.4447 32.499 14.7792 32.4332 15.1421C32.3673 15.5049 32.4057 15.8799 32.5435 16.2201C32.6813 16.5603 32.9124 16.8507 33.2079 17.0549C33.5034 17.2591 33.8501 17.3681 34.2048 17.3682C34.4463 17.3732 34.6861 17.3262 34.9094 17.2301C35.1326 17.1342 35.3344 16.9913 35.5022 16.8105C35.6699 16.6296 35.8001 16.4146 35.8845 16.1791C35.9689 15.9434 36.0057 15.6923 35.9925 15.4412H36.0084Z" fill="#B5B5B5"/>
<path d="M47.7079 11.3647V19.1141C47.7079 21.8482 45.6512 23.0094 43.5707 23.0094C42.8369 23.0721 42.1008 22.9203 41.4454 22.5711C40.79 22.222 40.2411 21.6892 39.8607 21.033L41.8621 19.8306C42.0242 20.171 42.2822 20.4519 42.6016 20.6358C42.921 20.8197 43.2867 20.8979 43.6498 20.86C43.8812 20.8897 44.116 20.8658 44.3374 20.79C44.5589 20.7142 44.7615 20.5884 44.9308 20.4216C45.1001 20.2547 45.2319 20.0511 45.3168 19.825C45.4017 19.599 45.4375 19.3562 45.4218 19.1141V18.3647C45.1456 18.7133 44.7952 18.99 44.3984 19.173C44.0015 19.356 43.5692 19.4402 43.1356 19.4188C42.0866 19.4188 41.0807 18.985 40.3389 18.2128C39.5971 17.4406 39.1804 16.3933 39.1804 15.3012C39.1804 14.2091 39.5971 13.1618 40.3389 12.3896C41.0807 11.6174 42.0866 11.1835 43.1356 11.1835C43.5692 11.1622 44.0015 11.2464 44.3984 11.4294C44.7952 11.6124 45.1456 11.8891 45.4218 12.2377V11.4141L47.7079 11.3647ZM45.4218 15.2765C45.4375 14.8825 45.3397 14.4926 45.1409 14.1569C44.9422 13.8212 44.6515 13.5551 44.3062 13.3928C43.961 13.2305 43.5771 13.1794 43.2038 13.2462C42.8305 13.3129 42.4848 13.4943 42.2113 13.7671C41.9378 14.04 41.749 14.3918 41.6691 14.7773C41.5892 15.1628 41.6219 15.5642 41.7629 15.9302C41.9041 16.2962 42.1471 16.6099 42.4607 16.8309C42.7745 17.0519 43.1445 17.1703 43.5233 17.1706C43.7705 17.1891 44.0186 17.1535 44.2517 17.066C44.4848 16.9785 44.6977 16.841 44.8766 16.6625C45.0555 16.484 45.1965 16.2684 45.2904 16.0297C45.3843 15.7909 45.429 15.5343 45.4218 15.2765Z" fill="#B5B5B5"/>
<path d="M49.0448 15.4412C49.0448 14.5857 49.2886 13.7495 49.7453 13.0383C50.202 12.3271 50.851 11.7729 51.6103 11.446C52.3697 11.1189 53.2051 11.0338 54.0109 11.2013C54.8168 11.3688 55.5567 11.7814 56.1373 12.3869C56.7177 12.9924 57.1126 13.7635 57.2719 14.6027C57.4313 15.442 57.348 16.3115 57.0324 17.1014C56.7169 17.8913 56.1833 18.566 55.4994 19.0401C54.8153 19.5142 54.0116 19.7663 53.1899 19.7647C52.6435 19.7702 52.1014 19.6621 51.5956 19.4466C51.0898 19.2312 50.6303 18.9128 50.2443 18.5101C49.8582 18.1074 49.5532 17.6285 49.3472 17.1016C49.1413 16.5746 49.0385 16.0101 49.0448 15.4412ZM54.9935 15.4412C54.9842 15.0717 54.8702 14.7133 54.6662 14.4109C54.4621 14.1086 54.1767 13.8756 53.846 13.7413C53.5153 13.607 53.1538 13.5773 52.807 13.6559C52.4601 13.7345 52.1432 13.918 51.896 14.1832C51.6488 14.4485 51.4823 14.7838 51.4174 15.1472C51.3525 15.5105 51.3919 15.8857 51.5309 16.2257C51.6699 16.5659 51.9022 16.8557 52.1988 17.0589C52.4953 17.2621 52.8428 17.3697 53.1978 17.3682C53.4393 17.3732 53.6792 17.3261 53.9024 17.2301C54.1256 17.1342 54.3274 16.9913 54.4952 16.8104C54.663 16.6296 54.7931 16.4146 54.8775 16.179C54.9619 15.9434 54.9987 15.6923 54.9856 15.4412H54.9935Z" fill="#B5B5B5"/>
<path d="M58.4344 9.18238C58.4344 8.89249 58.517 8.60903 58.6718 8.36799C58.8265 8.12691 59.0464 7.93903 59.3036 7.82807C59.561 7.71713 59.8441 7.6881 60.1172 7.74466C60.3903 7.80122 60.6412 7.94083 60.8382 8.14584C61.0351 8.35086 61.1692 8.61208 61.2235 8.89636C61.2779 9.18073 61.2499 9.47547 61.1434 9.74336C61.0368 10.0112 60.8563 10.2401 60.6248 10.4012C60.3932 10.5623 60.121 10.6483 59.8425 10.6483C59.4703 10.644 59.1146 10.4882 58.8514 10.2142C58.5882 9.94019 58.4386 9.56985 58.4344 9.18238ZM58.6639 11.3647H61.037V19.5177H58.6639V11.3647Z" fill="#B5B5B5"/>
<path d="M71.194 15.4412C71.2206 15.9834 71.1439 16.5257 70.9684 17.037C70.7929 17.5482 70.522 18.0183 70.1713 18.4201C69.8206 18.822 69.3971 19.1476 68.925 19.3784C68.4529 19.6091 67.9417 19.7404 67.4207 19.7647C66.9786 19.7953 66.5355 19.7216 66.1247 19.5491C65.7137 19.3765 65.3456 19.1096 65.0476 18.7682V22.7953H62.6744V11.3647H65.0476V12.1306C65.346 11.7902 65.7144 11.5245 66.1254 11.3534C66.5363 11.1822 66.9791 11.11 67.4207 11.1423C67.9396 11.1666 68.4488 11.2972 68.9193 11.5263C69.3897 11.7555 69.8122 12.079 70.1625 12.4782C70.513 12.8773 70.7844 13.3444 70.9613 13.8529C71.1383 14.3613 71.2174 14.9009 71.194 15.4412ZM68.8209 15.4412C68.8115 15.0586 68.6939 14.6875 68.4828 14.3744C68.2718 14.0612 67.9766 13.8197 67.6343 13.6804C67.292 13.5411 66.9178 13.5101 66.5586 13.5913C66.1995 13.6724 65.8714 13.8621 65.6153 14.1366C65.3592 14.4111 65.1867 14.7581 65.1194 15.1343C65.052 15.5104 65.0927 15.8989 65.2366 16.251C65.3804 16.6031 65.6208 16.9032 65.9277 17.1137C66.2346 17.3242 66.5944 17.4356 66.9619 17.4341C67.2136 17.4452 67.4648 17.4008 67.6988 17.3038C67.933 17.2068 68.1448 17.0594 68.3203 16.8712C68.4958 16.683 68.6311 16.4583 68.7174 16.2119C68.8037 15.9654 68.8389 15.7028 68.8209 15.4412Z" fill="#B5B5B5"/>
<path d="M78.4163 17.0718C78.4163 18.9494 76.8342 19.7483 75.1572 19.7483C74.4732 19.8123 73.7865 19.6614 73.1858 19.3149C72.585 18.9685 72.0979 18.4424 71.7874 17.8047L73.8283 16.6024C73.9091 16.8962 74.0844 17.1522 74.3249 17.3277C74.5653 17.5031 74.8564 17.5872 75.1493 17.5659C75.7109 17.5659 75.9957 17.3847 75.9957 17.0553C75.9957 16.1577 72.1433 16.6353 72.1433 13.8106C72.1433 12.0318 73.583 11.1424 75.2126 11.1424C75.832 11.1135 76.4474 11.2598 76.9933 11.5658C77.5393 11.8717 77.9955 12.3259 78.3135 12.88L76.2726 14C76.1824 13.7876 76.0351 13.6069 75.8484 13.4797C75.6617 13.3526 75.4436 13.2845 75.2205 13.2836C74.8091 13.2836 74.5639 13.4483 74.5639 13.7365C74.5639 14.6753 78.4163 14.0577 78.4163 17.0718Z" fill="#B5B5B5"/>
<path d="M87.015 11.3647V19.5176H84.6418V18.7517C84.3721 19.0908 84.0296 19.359 83.6427 19.535C83.2551 19.711 82.8335 19.7896 82.4111 19.7647C80.829 19.7647 79.4763 18.587 79.4763 16.3882V11.3647H81.8495V16.0176C81.8305 16.2121 81.8526 16.4086 81.9143 16.5934C81.976 16.7781 82.0749 16.9467 82.2046 17.0877C82.3352 17.2286 82.4934 17.3385 82.6682 17.4097C82.843 17.4809 83.0305 17.5117 83.218 17.5C84.0723 17.5 84.6735 16.9729 84.6735 15.8529V11.3647H87.015Z" fill="#B5B5B5"/>
<path d="M100.463 14.5106V19.5176H98.0896V14.7247C98.0896 13.9012 97.7178 13.3906 96.9663 13.3906C96.2148 13.3906 95.7402 13.9588 95.7402 14.9224V19.5176H93.3671V14.7247C93.3671 13.9012 92.9953 13.3906 92.2438 13.3906C91.4923 13.3906 91.0177 13.9588 91.0177 14.9224V19.5176H88.6445V11.3647H91.0177V12.1141C91.2637 11.7831 91.5841 11.5208 91.9519 11.3512C92.3189 11.1816 92.7216 11.1097 93.1218 11.1424C93.5229 11.1205 93.9232 11.2078 94.2823 11.3955C94.6414 11.5832 94.9476 11.8649 95.1707 12.2129C95.4317 11.8493 95.7766 11.5604 96.1737 11.3732C96.57 11.1859 97.0067 11.1065 97.441 11.1424C99.292 11.1424 100.463 12.4765 100.463 14.5106Z" fill="#B5B5B5"/>
<path d="M102.456 11.3153C103.417 11.3153 104.196 10.5041 104.196 9.50354C104.196 8.50295 103.417 7.69177 102.456 7.69177C101.495 7.69177 100.716 8.50295 100.716 9.50354C100.716 10.5041 101.495 11.3153 102.456 11.3153Z" fill="#B5B5B5"/>
</svg>
