<svg width="22" height="22" viewBox="0 0 22 22" fill="none" xmlns="http://www.w3.org/2000/svg">
<path d="M5.7821 19.7082C5.31903 19.7082 4.92708 19.5478 4.60625 19.2269C4.28542 18.9061 4.125 18.5141 4.125 18.0511V7.61528C4.125 7.15221 4.28542 6.76025 4.60625 6.43942C4.92708 6.11859 5.31903 5.95817 5.7821 5.95817H7.5625V5.729C7.5625 4.77949 7.898 3.96916 8.569 3.298C9.24015 2.627 10.0505 2.2915 11 2.2915C11.9495 2.2915 12.7598 2.627 13.431 3.298C14.102 3.96916 14.4375 4.77949 14.4375 5.729V5.95817H16.2179C16.681 5.95817 17.0729 6.11859 17.3938 6.43942C17.7146 6.76025 17.875 7.15221 17.875 7.61528V18.0511C17.875 18.5141 17.7146 18.9061 17.3938 19.2269C17.0729 19.5478 16.681 19.7082 16.2179 19.7082H5.7821ZM5.7821 18.3332H16.2179C16.2885 18.3332 16.3531 18.3038 16.4118 18.2449C16.4706 18.1863 16.5 18.1217 16.5 18.0511V7.61528C16.5 7.54469 16.4706 7.48007 16.4118 7.4214C16.3531 7.36258 16.2885 7.33317 16.2179 7.33317H14.4375V9.39567C14.4375 9.59077 14.3717 9.75409 14.24 9.88563C14.1084 10.0173 13.9451 10.0832 13.75 10.0832C13.5549 10.0832 13.3916 10.0173 13.26 9.88563C13.1283 9.75409 13.0625 9.59077 13.0625 9.39567V7.33317H8.9375V9.39567C8.9375 9.59077 8.87165 9.75409 8.73996 9.88563C8.60842 10.0173 8.4451 10.0832 8.25 10.0832C8.0549 10.0832 7.89158 10.0173 7.76004 9.88563C7.62835 9.75409 7.5625 9.59077 7.5625 9.39567V7.33317H5.7821C5.71152 7.33317 5.6469 7.36258 5.58823 7.4214C5.52941 7.48007 5.5 7.54469 5.5 7.61528V18.0511C5.5 18.1217 5.52941 18.1863 5.58823 18.2449C5.6469 18.3038 5.71152 18.3332 5.7821 18.3332ZM8.9375 5.95817H13.0625V5.729C13.0625 5.15441 12.8624 4.66697 12.4623 4.26669C12.0622 3.86657 11.5747 3.6665 11 3.6665C10.4253 3.6665 9.93781 3.86657 9.53769 4.26669C9.13756 4.66697 8.9375 5.15441 8.9375 5.729V5.95817Z" fill="white"/>
</svg>
