<svg width="19" height="19" viewBox="0 0 19 19" fill="none" xmlns="http://www.w3.org/2000/svg">
<g clip-path="url(#clip0_1_202)">
<path d="M10.4617 15.2531C10.4788 13.5091 10.0366 12.091 9.47424 12.0855C8.9118 12.08 8.44205 13.4893 8.42502 15.2332C8.40796 16.9771 8.85009 18.3953 9.41249 18.4008C9.97493 18.4063 10.4447 16.997 10.4617 15.2531Z" fill="white"/>
<path d="M7.19986 14.8568C8.15712 13.399 8.55197 11.9669 8.08184 11.6582C7.61166 11.3495 6.45453 12.281 5.49731 13.7389C4.54005 15.1967 4.14519 16.6287 4.61533 16.9375C5.0855 17.2462 6.2426 16.3147 7.19986 14.8568Z" fill="white"/>
<path d="M4.6661 12.7653C6.25959 12.0566 7.36604 11.0654 7.13743 10.5515C6.90886 10.0375 5.4318 10.1956 3.83831 10.9044C2.24483 11.6131 1.13837 12.6043 1.36696 13.1182C1.59555 13.6322 3.07262 13.4742 4.6661 12.7653Z" fill="white"/>
<path d="M6.94617 9.11012C7.03175 8.55421 5.70376 7.88849 3.98008 7.62318C2.25636 7.35786 0.789654 7.59346 0.704093 8.14936C0.618532 8.70526 1.94651 9.37095 3.67022 9.63626C5.39391 9.90158 6.86063 9.66598 6.94617 9.11012Z" fill="white"/>
<path d="M7.56505 7.7861C7.93752 7.36468 7.18011 6.08677 5.87332 4.93184C4.56654 3.77691 3.20524 3.1823 2.83277 3.60375C2.4603 4.0252 3.21772 5.3031 4.52451 6.45803C5.8313 7.61297 7.19261 8.20755 7.56505 7.7861Z" fill="white"/>
<path d="M8.79754 7.01218C9.33874 6.85904 9.39251 5.37449 8.91766 3.69639C8.44281 2.01827 7.61912 0.782043 7.07793 0.935187C6.53673 1.08833 6.48296 2.57285 6.95781 4.25098C7.43266 5.92906 8.25634 7.16532 8.79754 7.01218Z" fill="white"/>
<path d="M12.1442 4.30296C12.6521 2.63453 12.6276 1.14923 12.0895 0.985445C11.5514 0.821658 10.7035 2.0414 10.1957 3.70983C9.68783 5.37824 9.71231 6.86355 10.2504 7.02733C10.7885 7.19111 11.6364 5.97138 12.1442 4.30296Z" fill="white"/>
<path d="M14.5355 6.55735C15.8647 5.42818 16.6469 4.16532 16.2827 3.7367C15.9186 3.30806 14.5459 3.87595 13.2168 5.00509C11.8877 6.13426 11.1055 7.39711 11.4696 7.82575C11.8338 8.25439 13.2064 7.68652 14.5355 6.55735Z" fill="white"/>
<path d="M15.3262 9.74752C17.0549 9.51625 18.3957 8.87687 18.3211 8.31937C18.2465 7.76191 16.7847 7.49747 15.0561 7.7287C13.3275 7.95996 11.9867 8.59935 12.0613 9.15685C12.1359 9.71431 13.5976 9.97879 15.3262 9.74752Z" fill="white"/>
<path d="M17.5562 13.2774C17.7948 12.7681 16.7081 11.7553 15.1289 11.0152C13.5498 10.2751 12.0761 10.0881 11.8374 10.5973C11.5987 11.1066 12.6854 12.1195 14.2646 12.8595C15.8438 13.5996 17.3175 13.7867 17.5562 13.2774Z" fill="white"/>
<path d="M14.2344 17.0353C14.7105 16.7359 14.344 15.2963 13.4157 13.8199C12.4874 12.3435 11.3488 11.3894 10.8727 11.6887C10.3965 11.9881 10.7631 13.4277 11.6914 14.9041C12.6197 16.3805 13.7582 17.3347 14.2344 17.0353Z" fill="white"/>
</g>
<defs>
<clipPath id="clip0_1_202">
<rect width="19" height="19" fill="white"/>
</clipPath>
</defs>
</svg>
