<svg width="39" height="15" viewBox="0 0 39 15" fill="none" xmlns="http://www.w3.org/2000/svg">
<mask id="mask0_2310_1348" style="mask-type:alpha" maskUnits="userSpaceOnUse" x="5" y="0" width="34" height="14">
<path fill-rule="evenodd" clip-rule="evenodd" d="M11.1301 1.8039C10.7368 2.27651 10.1077 2.64927 9.47858 2.59602C9.39994 1.957 9.70795 1.27804 10.0684 0.858683C10.4616 0.372762 11.1497 0.0266258 11.7068 0C11.7723 0.665646 11.5167 1.31798 11.1301 1.8039ZM11.7004 2.7236C11.1461 2.6912 10.6404 2.8929 10.2319 3.05583C9.969 3.16067 9.74639 3.24946 9.57703 3.24946C9.38698 3.24946 9.15518 3.15592 8.89492 3.05091C8.5539 2.9133 8.16402 2.75598 7.75517 2.76353C6.81802 2.77685 5.94641 3.31602 5.46801 4.1747C4.48499 5.89207 5.21242 8.43483 6.16267 9.83268C6.62797 10.525 7.18502 11.2838 7.919 11.2572C8.24192 11.2448 8.4742 11.1447 8.71459 11.0411C8.99135 10.9218 9.27885 10.7979 9.72776 10.7979C10.1611 10.7979 10.436 10.9186 10.7 11.0344C10.9509 11.1446 11.1919 11.2503 11.5496 11.2438C12.3098 11.2305 12.7882 10.5516 13.2535 9.85931C13.7557 9.11631 13.9763 8.39118 14.0098 8.28114L14.0137 8.26842C14.0129 8.2676 14.0067 8.26472 13.9958 8.25963C13.8279 8.18157 12.545 7.585 12.5326 5.98526C12.5203 4.6425 13.5503 3.96218 13.7124 3.85508C13.7223 3.84857 13.7289 3.84417 13.7319 3.84188C13.0766 2.85672 12.0542 2.75022 11.7004 2.7236ZM16.9629 11.1697V0.792341H20.7967C22.7759 0.792341 24.1587 2.17688 24.1587 4.20044C24.1587 6.224 22.7497 7.62186 20.7443 7.62186H18.5489V11.1697H16.9629ZM18.5485 2.15064H20.3769C21.7532 2.15064 22.5396 2.89616 22.5396 4.20748C22.5396 5.5188 21.7532 6.27098 20.3704 6.27098H18.5485V2.15064ZM29.3947 9.9243C28.9752 10.7364 28.0512 11.2489 27.0551 11.2489C25.5805 11.2489 24.5516 10.357 24.5516 9.01237C24.5516 7.68108 25.5478 6.91559 27.3893 6.80243L29.3684 6.68262V6.11016C29.3684 5.26479 28.8245 4.8055 27.8546 4.8055C27.0551 4.8055 26.4718 5.22486 26.3538 5.86387H24.9252C24.9711 4.51927 26.2162 3.54078 27.9005 3.54078C29.7158 3.54078 30.8954 4.50596 30.8954 6.00366V11.1691H29.4274V9.9243H29.3947ZM27.4811 10.0177C26.6357 10.0177 26.0983 9.60496 26.0983 8.97259C26.0983 8.32026 26.616 7.94084 27.6056 7.88094L29.3685 7.76778V8.35354C29.3685 9.32538 28.5559 10.0177 27.4811 10.0177ZM35.7648 11.5743C35.1291 13.3915 34.4017 13.9906 32.8551 13.9906C32.7371 13.9906 32.3439 13.9773 32.2521 13.9507V12.7059C32.3504 12.7192 32.5929 12.7325 32.7174 12.7325C33.4187 12.7325 33.8119 12.433 34.0544 11.6542L34.1985 11.1949L31.5116 3.63982H33.1696L35.0374 9.77041H35.0701L36.9379 3.63982H38.55L35.7648 11.5743Z" fill="white"/>
</mask>
<g mask="url(#mask0_2310_1348)">
<rect x="16" y="0.09375" width="24" height="14" fill="#D9D9D9"/>
</g>
<path fill-rule="evenodd" clip-rule="evenodd" d="M9.98983 6.29036C9.98983 5.9682 10.251 5.70703 10.5732 5.70703H11.3838C11.6629 5.70703 11.9188 5.7167 12.1423 5.74938C12.3632 5.78166 12.5952 5.84195 12.7992 5.97172C13.2812 6.2783 13.3569 6.78973 13.3419 7.23394C13.3179 7.94465 13.1446 8.76343 12.613 9.47016C12.0728 10.1884 11.2127 10.7244 9.94509 10.9481C9.62783 11.0042 9.32524 10.7924 9.26923 10.4751C9.21323 10.1578 9.42502 9.85525 9.74228 9.79925C10.7725 9.61739 11.3484 9.21057 11.6806 8.76888C12.0215 8.31573 12.1569 7.75759 12.1759 7.19454C12.1807 7.05224 12.1686 6.98044 12.1599 6.94933C12.1367 6.93889 12.0824 6.91967 11.9736 6.90378C11.8341 6.88339 11.6448 6.8737 11.3838 6.8737H10.5732C10.251 6.8737 9.98983 6.61253 9.98983 6.29036Z" fill="white"/>
<path d="M1.78638 4.73943C2.02898 4.69987 2.3162 4.6875 2.64499 4.6875H8.87594C9.20473 4.6875 9.49195 4.69987 9.73455 4.73943C9.9761 4.77882 10.2091 4.85046 10.4026 4.9948C10.8219 5.30754 10.873 5.81257 10.8637 6.30008C10.8207 8.55634 10.5323 10.8929 8.39181 12.5386C8.07169 12.7847 7.76139 12.9428 7.41002 13.0348C7.06752 13.1245 6.70578 13.1458 6.29676 13.1458H5.22417C4.81516 13.1458 4.45341 13.1245 4.11092 13.0348C3.75954 12.9428 3.44924 12.7847 3.12912 12.5386C0.988677 10.8929 0.700254 8.55634 0.657213 6.30008C0.647913 5.81257 0.699042 5.30754 1.11834 4.99481C1.31186 4.85046 1.54483 4.77882 1.78638 4.73943Z" fill="white"/>
<path d="M7.02006 1.31536C7.18968 1.58925 7.10515 1.9488 6.83125 2.11841C6.79532 2.14067 6.66741 2.25775 6.54546 2.50308C6.431 2.73334 6.34464 3.0331 6.34464 3.37248C6.34464 3.69464 6.08347 3.95581 5.76131 3.95581C5.43914 3.95581 5.17797 3.69464 5.17797 3.37248C5.17797 2.83685 5.31354 2.36038 5.50075 1.98376C5.68047 1.62222 5.93398 1.30181 6.21701 1.12654C6.49091 0.95692 6.85045 1.04146 7.02006 1.31536Z" fill="white"/>
<path d="M8.59058 2.19036C8.74148 2.43403 8.69122 2.74549 8.48543 2.9307C8.47459 2.95361 8.46031 2.98903 8.44537 3.0368C8.40569 3.16363 8.38558 3.29816 8.38558 3.37248C8.38558 3.69464 8.12441 3.95581 7.80225 3.95581C7.48008 3.95581 7.21891 3.69464 7.21891 3.37248C7.21891 3.15513 7.26526 2.90154 7.33191 2.68848C7.36597 2.57961 7.41107 2.46261 7.46973 2.35522C7.51948 2.26413 7.61731 2.10695 7.78752 2.00154C8.06142 1.83192 8.42096 1.91646 8.59058 2.19036Z" fill="white"/>
<path d="M4.75333 2.10104C4.96825 2.33303 4.95862 2.69293 4.73465 2.91318L4.7296 2.91921C4.71989 2.9312 4.70146 2.956 4.68133 2.99328C4.64223 3.06574 4.59391 3.19006 4.59391 3.37248C4.59391 3.69464 4.33275 3.95581 4.01058 3.95581C3.68841 3.95581 3.42725 3.69464 3.42725 3.37248C3.42725 2.97156 3.53634 2.65838 3.65465 2.43917C3.71324 2.33062 3.83204 2.15936 3.92897 2.06956C4.16531 1.85061 4.53438 1.86471 4.75333 2.10104Z" fill="white"/>
</svg>
