<svg width="14" height="18" viewBox="0 0 14 18" fill="none" xmlns="http://www.w3.org/2000/svg">
<path d="M1.6571 17.4167C1.19403 17.4167 0.802083 17.2563 0.48125 16.9354C0.160417 16.6146 0 16.2226 0 15.7596V5.32377C0 4.8607 0.160417 4.46875 0.48125 4.14792C0.802083 3.82708 1.19403 3.66667 1.6571 3.66667H3.4375V3.4375C3.4375 2.48799 3.773 1.67765 4.444 1.0065C5.11515 0.3355 5.92549 0 6.875 0C7.82451 0 8.63485 0.3355 9.306 1.0065C9.977 1.67765 10.3125 2.48799 10.3125 3.4375V3.66667H12.0929C12.556 3.66667 12.9479 3.82708 13.2688 4.14792C13.5896 4.46875 13.75 4.8607 13.75 5.32377V15.7596C13.75 16.2226 13.5896 16.6146 13.2688 16.9354C12.9479 17.2563 12.556 17.4167 12.0929 17.4167H1.6571ZM1.6571 16.0417H12.0929C12.1635 16.0417 12.2281 16.0123 12.2868 15.9534C12.3456 15.8948 12.375 15.8301 12.375 15.7596V5.32377C12.375 5.25319 12.3456 5.18856 12.2868 5.1299C12.2281 5.07108 12.1635 5.04167 12.0929 5.04167H10.3125V7.10417C10.3125 7.29926 10.2467 7.46258 10.115 7.59413C9.98342 7.72582 9.8201 7.79167 9.625 7.79167C9.4299 7.79167 9.26658 7.72582 9.13504 7.59413C9.00335 7.46258 8.9375 7.29926 8.9375 7.10417V5.04167H4.8125V7.10417C4.8125 7.29926 4.74665 7.46258 4.61496 7.59413C4.48342 7.72582 4.3201 7.79167 4.125 7.79167C3.9299 7.79167 3.76658 7.72582 3.63504 7.59413C3.50335 7.46258 3.4375 7.29926 3.4375 7.10417V5.04167H1.6571C1.58652 5.04167 1.5219 5.07108 1.46323 5.1299C1.40441 5.18856 1.375 5.25319 1.375 5.32377V15.7596C1.375 15.8301 1.40441 15.8948 1.46323 15.9534C1.5219 16.0123 1.58652 16.0417 1.6571 16.0417ZM4.8125 3.66667H8.9375V3.4375C8.9375 2.8629 8.73744 2.37547 8.33731 1.97519C7.93719 1.57506 7.44975 1.375 6.875 1.375C6.30025 1.375 5.81281 1.57506 5.41269 1.97519C5.01256 2.37547 4.8125 2.8629 4.8125 3.4375V3.66667Z" fill="#072708"/>
</svg>
